<ttFont>
    <TTGlyph name=".notdef" xMin="89" yMin="-220" xMax="583" yMax="1030">
      <contour>
        <pt x="89" y="1030" on="1"/>
        <pt x="583" y="1030" on="1"/>
        <pt x="583" y="-220" on="1"/>
        <pt x="89" y="-220" on="1"/>
      </contour>
      <contour>
        <pt x="512" y="-152" on="1"/>
        <pt x="512" y="963" on="1"/>
        <pt x="160" y="963" on="1"/>
        <pt x="160" y="-152" on="1"/>
      </contour>
    </TTGlyph>
    <TTGlyph name="A" xMin="7" yMin="0" xMax="588" yMax="740">
      <contour>
        <pt x="7" y="6" on="1"/>
        <pt x="239" y="740" on="1"/>
        <pt x="355" y="740" on="1"/>
        <pt x="588" y="6" on="1"/>
        <pt x="588" y="0" on="1"/>
        <pt x="511" y="0" on="1"/>
        <pt x="438" y="224" on="1"/>
        <pt x="155" y="224" on="1"/>
        <pt x="84" y="0" on="1"/>
        <pt x="7" y="0" on="1"/>
      </contour>
      <contour>
        <pt x="420" y="292" on="1"/>
        <pt x="336" y="556" on="1"/>
        <pt x="301" y="672" on="1"/>
        <pt x="293" y="672" on="1"/>
        <pt x="258" y="556" on="1"/>
        <pt x="174" y="292" on="1"/>
      </contour>
    </TTGlyph>
    <TTGlyph name="A.sc" xMin="11" yMin="0" xMax="527" yMax="577">
      <contour>
        <pt x="11" y="5" on="1"/>
        <pt x="213" y="577" on="1"/>
        <pt x="326" y="577" on="1"/>
        <pt x="527" y="5" on="1"/>
        <pt x="527" y="0" on="1"/>
        <pt x="453" y="0" on="1"/>
        <pt x="393" y="166" on="1"/>
        <pt x="146" y="166" on="1"/>
        <pt x="86" y="0" on="1"/>
        <pt x="11" y="0" on="1"/>
      </contour>
      <contour>
        <pt x="376" y="224" on="1"/>
        <pt x="303" y="427" on="1"/>
        <pt x="272" y="516" on="1"/>
        <pt x="266" y="516" on="1"/>
        <pt x="236" y="427" on="1"/>
        <pt x="162" y="224" on="1"/>
      </contour>
    </TTGlyph>
    <TTGlyph name="AE" xMin="5" yMin="0" xMax="758" yMax="740">
      <contour>
        <pt x="5" y="6" on="1"/>
        <pt x="264" y="740" on="1"/>
        <pt x="748" y="740" on="1"/>
        <pt x="748" y="671" on="1"/>
        <pt x="447" y="671" on="1"/>
        <pt x="460" y="409" on="1"/>
        <pt x="722" y="409" on="1"/>
        <pt x="722" y="340" on="1"/>
        <pt x="463" y="340" on="1"/>
        <pt x="477" y="69" on="1"/>
        <pt x="758" y="69" on="1"/>
        <pt x="758" y="0" on="1"/>
        <pt x="399" y="0" on="1"/>
        <pt x="390" y="223" on="1"/>
        <pt x="163" y="223" on="1"/>
        <pt x="85" y="0" on="1"/>
        <pt x="5" y="0" on="1"/>
      </contour>
      <contour>
        <pt x="188" y="294" on="1"/>
        <pt x="387" y="294" on="1"/>
        <pt x="371" y="674" on="1"/>
        <pt x="323" y="674" on="1"/>
      </contour>
    </TTGlyph>
    <TTGlyph name="AE.sc" xMin="13" yMin="0" xMax="679" yMax="577">
      <contour>
        <pt x="13" y="5" on="1"/>
        <pt x="239" y="577" on="1"/>
        <pt x="671" y="577" on="1"/>
        <pt x="671" y="514" on="1"/>
        <pt x="410" y="514" on="1"/>
        <pt x="419" y="322" on="1"/>
        <pt x="648" y="322" on="1"/>
        <pt x="648" y="261" on="1"/>
        <pt x="424" y="261" on="1"/>
        <pt x="436" y="64" on="1"/>
        <pt x="679" y="64" on="1"/>
        <pt x="679" y="0" on="1"/>
        <pt x="360" y="0" on="1"/>
        <pt x="353" y="166" on="1"/>
        <pt x="156" y="166" on="1"/>
        <pt x="90" y="0" on="1"/>
        <pt x="13" y="0" on="1"/>
      </contour>
      <contour>
        <pt x="179" y="225" on="1"/>
        <pt x="349" y="225" on="1"/>
        <pt x="337" y="516" on="1"/>
        <pt x="296" y="516" on="1"/>
      </contour>
    </TTGlyph>
    <TTGlyph name="AEacute" xMin="5" yMin="0" xMax="758" yMax="936">
      <contour>
        <pt x="440" y="796" on="1"/>
        <pt x="515" y="936" on="1"/>
        <pt x="598" y="936" on="1"/>
        <pt x="502" y="791" on="1"/>
      </contour>
      <contour>
        <pt x="5" y="6" on="1"/>
        <pt x="264" y="740" on="1"/>
        <pt x="748" y="740" on="1"/>
        <pt x="748" y="671" on="1"/>
        <pt x="447" y="671" on="1"/>
        <pt x="460" y="409" on="1"/>
        <pt x="722" y="409" on="1"/>
        <pt x="722" y="340" on="1"/>
        <pt x="463" y="340" on="1"/>
        <pt x="477" y="69" on="1"/>
        <pt x="758" y="69" on="1"/>
        <pt x="758" y="0" on="1"/>
        <pt x="399" y="0" on="1"/>
        <pt x="390" y="223" on="1"/>
        <pt x="163" y="223" on="1"/>
        <pt x="85" y="0" on="1"/>
        <pt x="5" y="0" on="1"/>
      </contour>
      <contour>
        <pt x="188" y="294" on="1"/>
        <pt x="387" y="294" on="1"/>
        <pt x="371" y="674" on="1"/>
        <pt x="323" y="674" on="1"/>
      </contour>
    </TTGlyph>
    <TTGlyph name="AEacute.sc" xMin="13" yMin="0" xMax="679" yMax="738">
      <contour>
        <pt x="13" y="5" on="1"/>
        <pt x="239" y="577" on="1"/>
        <pt x="671" y="577" on="1"/>
        <pt x="671" y="514" on="1"/>
        <pt x="410" y="514" on="1"/>
        <pt x="419" y="322" on="1"/>
        <pt x="648" y="322" on="1"/>
        <pt x="648" y="261" on="1"/>
        <pt x="424" y="261" on="1"/>
        <pt x="436" y="64" on="1"/>
        <pt x="679" y="64" on="1"/>
        <pt x="679" y="0" on="1"/>
        <pt x="360" y="0" on="1"/>
        <pt x="353" y="166" on="1"/>
        <pt x="156" y="166" on="1"/>
        <pt x="90" y="0" on="1"/>
        <pt x="13" y="0" on="1"/>
      </contour>
      <contour>
        <pt x="349" y="225" on="1"/>
        <pt x="337" y="516" on="1"/>
        <pt x="296" y="516" on="1"/>
        <pt x="179" y="225" on="1"/>
      </contour>
      <contour>
        <pt x="392" y="623" on="1"/>
        <pt x="456" y="738" on="1"/>
        <pt x="535" y="738" on="1"/>
        <pt x="450" y="618" on="1"/>
      </contour>
    </TTGlyph>
    <TTGlyph name="Aacute" xMin="7" yMin="0" xMax="588" yMax="936">
      <contour>
        <pt x="7" y="6" on="1"/>
        <pt x="239" y="740" on="1"/>
        <pt x="355" y="740" on="1"/>
        <pt x="588" y="6" on="1"/>
        <pt x="588" y="0" on="1"/>
        <pt x="511" y="0" on="1"/>
        <pt x="438" y="224" on="1"/>
        <pt x="155" y="224" on="1"/>
        <pt x="84" y="0" on="1"/>
        <pt x="7" y="0" on="1"/>
      </contour>
      <contour>
        <pt x="420" y="292" on="1"/>
        <pt x="336" y="556" on="1"/>
        <pt x="301" y="672" on="1"/>
        <pt x="293" y="672" on="1"/>
        <pt x="258" y="556" on="1"/>
        <pt x="174" y="292" on="1"/>
      </contour>
      <contour>
        <pt x="262" y="796" on="1"/>
        <pt x="337" y="936" on="1"/>
        <pt x="420" y="936" on="1"/>
        <pt x="324" y="791" on="1"/>
      </contour>
    </TTGlyph>
    <TTGlyph name="Aacute.sc" xMin="11" yMin="0" xMax="527" yMax="738">
      <contour>
        <pt x="11" y="5" on="1"/>
        <pt x="213" y="577" on="1"/>
        <pt x="326" y="577" on="1"/>
        <pt x="527" y="5" on="1"/>
        <pt x="527" y="0" on="1"/>
        <pt x="453" y="0" on="1"/>
        <pt x="393" y="166" on="1"/>
        <pt x="146" y="166" on="1"/>
        <pt x="86" y="0" on="1"/>
        <pt x="11" y="0" on="1"/>
      </contour>
      <contour>
        <pt x="376" y="224" on="1"/>
        <pt x="303" y="427" on="1"/>
        <pt x="272" y="516" on="1"/>
        <pt x="266" y="516" on="1"/>
        <pt x="236" y="427" on="1"/>
        <pt x="162" y="224" on="1"/>
      </contour>
      <contour>
        <pt x="236" y="623" on="1"/>
        <pt x="300" y="738" on="1"/>
        <pt x="379" y="738" on="1"/>
        <pt x="295" y="618" on="1"/>
      </contour>
    </TTGlyph>
    <TTGlyph name="Abreve" xMin="7" yMin="0" xMax="588" yMax="957">
      <contour>
        <pt x="7" y="6" on="1"/>
        <pt x="239" y="740" on="1"/>
        <pt x="355" y="740" on="1"/>
        <pt x="588" y="6" on="1"/>
        <pt x="588" y="0" on="1"/>
        <pt x="511" y="0" on="1"/>
        <pt x="438" y="224" on="1"/>
        <pt x="155" y="224" on="1"/>
        <pt x="84" y="0" on="1"/>
        <pt x="7" y="0" on="1"/>
      </contour>
      <contour>
        <pt x="420" y="292" on="1"/>
        <pt x="336" y="556" on="1"/>
        <pt x="301" y="672" on="1"/>
        <pt x="293" y="672" on="1"/>
        <pt x="258" y="556" on="1"/>
        <pt x="174" y="292" on="1"/>
      </contour>
      <contour>
        <pt x="298" y="810" on="1"/>
        <pt x="220" y="810" on="0"/>
        <pt x="138" y="889" on="0"/>
        <pt x="138" y="957" on="1"/>
        <pt x="199" y="957" on="1"/>
        <pt x="199" y="860" on="0"/>
        <pt x="298" y="860" on="1"/>
        <pt x="397" y="860" on="0"/>
        <pt x="397" y="957" on="1"/>
        <pt x="458" y="957" on="1"/>
        <pt x="458" y="889" on="0"/>
        <pt x="376" y="810" on="0"/>
      </contour>
    </TTGlyph>
    <TTGlyph name="Abreve.sc" xMin="11" yMin="0" xMax="527" yMax="750">
      <contour>
        <pt x="270" y="630" on="1"/>
        <pt x="201" y="630" on="0"/>
        <pt x="127" y="695" on="0"/>
        <pt x="127" y="750" on="1"/>
        <pt x="185" y="750" on="1"/>
        <pt x="185" y="674" on="0"/>
        <pt x="270" y="674" on="1"/>
        <pt x="356" y="674" on="0"/>
        <pt x="356" y="750" on="1"/>
        <pt x="413" y="750" on="1"/>
        <pt x="413" y="695" on="0"/>
        <pt x="340" y="630" on="0"/>
      </contour>
      <contour>
        <pt x="11" y="5" on="1"/>
        <pt x="213" y="577" on="1"/>
        <pt x="326" y="577" on="1"/>
        <pt x="527" y="5" on="1"/>
        <pt x="527" y="0" on="1"/>
        <pt x="453" y="0" on="1"/>
        <pt x="393" y="166" on="1"/>
        <pt x="146" y="166" on="1"/>
        <pt x="86" y="0" on="1"/>
        <pt x="11" y="0" on="1"/>
      </contour>
      <contour>
        <pt x="376" y="224" on="1"/>
        <pt x="303" y="427" on="1"/>
        <pt x="272" y="516" on="1"/>
        <pt x="266" y="516" on="1"/>
        <pt x="236" y="427" on="1"/>
        <pt x="162" y="224" on="1"/>
      </contour>
    </TTGlyph>
    <TTGlyph name="Acircumflex" xMin="7" yMin="0" xMax="588" yMax="949">
      <contour>
        <pt x="7" y="6" on="1"/>
        <pt x="239" y="740" on="1"/>
        <pt x="355" y="740" on="1"/>
        <pt x="588" y="6" on="1"/>
        <pt x="588" y="0" on="1"/>
        <pt x="511" y="0" on="1"/>
        <pt x="438" y="224" on="1"/>
        <pt x="155" y="224" on="1"/>
        <pt x="84" y="0" on="1"/>
        <pt x="7" y="0" on="1"/>
      </contour>
      <contour>
        <pt x="420" y="292" on="1"/>
        <pt x="336" y="556" on="1"/>
        <pt x="301" y="672" on="1"/>
        <pt x="293" y="672" on="1"/>
        <pt x="258" y="556" on="1"/>
        <pt x="174" y="292" on="1"/>
      </contour>
      <contour>
        <pt x="154" y="876" on="1"/>
        <pt x="298" y="949" on="1"/>
        <pt x="443" y="876" on="1"/>
        <pt x="443" y="811" on="1"/>
        <pt x="298" y="883" on="1"/>
        <pt x="154" y="811" on="1"/>
      </contour>
    </TTGlyph>
    <TTGlyph name="Acircumflex.sc" xMin="11" yMin="0" xMax="527" yMax="745">
      <contour>
        <pt x="11" y="5" on="1"/>
        <pt x="213" y="577" on="1"/>
        <pt x="326" y="577" on="1"/>
        <pt x="527" y="5" on="1"/>
        <pt x="527" y="0" on="1"/>
        <pt x="453" y="0" on="1"/>
        <pt x="393" y="166" on="1"/>
        <pt x="146" y="166" on="1"/>
        <pt x="86" y="0" on="1"/>
        <pt x="11" y="0" on="1"/>
      </contour>
      <contour>
        <pt x="376" y="224" on="1"/>
        <pt x="303" y="427" on="1"/>
        <pt x="272" y="516" on="1"/>
        <pt x="266" y="516" on="1"/>
        <pt x="236" y="427" on="1"/>
        <pt x="162" y="224" on="1"/>
      </contour>
      <contour>
        <pt x="141" y="688" on="1"/>
        <pt x="270" y="745" on="1"/>
        <pt x="399" y="688" on="1"/>
        <pt x="399" y="630" on="1"/>
        <pt x="270" y="687" on="1"/>
        <pt x="141" y="630" on="1"/>
      </contour>
    </TTGlyph>
    <TTGlyph name="Adblgrave" xMin="7" yMin="0" xMax="588" yMax="934">
      <contour>
        <pt x="7" y="6" on="1"/>
        <pt x="239" y="740" on="1"/>
        <pt x="355" y="740" on="1"/>
        <pt x="588" y="6" on="1"/>
        <pt x="588" y="0" on="1"/>
        <pt x="511" y="0" on="1"/>
        <pt x="438" y="224" on="1"/>
        <pt x="155" y="224" on="1"/>
        <pt x="84" y="0" on="1"/>
        <pt x="7" y="0" on="1"/>
      </contour>
      <contour>
        <pt x="420" y="292" on="1"/>
        <pt x="336" y="556" on="1"/>
        <pt x="301" y="672" on="1"/>
        <pt x="293" y="672" on="1"/>
        <pt x="258" y="556" on="1"/>
        <pt x="174" y="292" on="1"/>
      </contour>
      <contour>
        <pt x="198" y="789" on="1"/>
        <pt x="103" y="934" on="1"/>
        <pt x="177" y="934" on="1"/>
        <pt x="252" y="802" on="1"/>
      </contour>
      <contour>
        <pt x="349" y="789" on="1"/>
        <pt x="252" y="934" on="1"/>
        <pt x="328" y="934" on="1"/>
        <pt x="402" y="802" on="1"/>
      </contour>
    </TTGlyph>
    <TTGlyph name="Adblgrave.sc" xMin="11" yMin="0" xMax="527" yMax="736">
      <contour>
        <pt x="11" y="5" on="1"/>
        <pt x="213" y="577" on="1"/>
        <pt x="326" y="577" on="1"/>
        <pt x="527" y="5" on="1"/>
        <pt x="527" y="0" on="1"/>
        <pt x="453" y="0" on="1"/>
        <pt x="393" y="166" on="1"/>
        <pt x="146" y="166" on="1"/>
        <pt x="86" y="0" on="1"/>
        <pt x="11" y="0" on="1"/>
      </contour>
      <contour>
        <pt x="376" y="224" on="1"/>
        <pt x="303" y="427" on="1"/>
        <pt x="272" y="516" on="1"/>
        <pt x="266" y="516" on="1"/>
        <pt x="236" y="427" on="1"/>
        <pt x="162" y="224" on="1"/>
      </contour>
      <contour>
        <pt x="94" y="736" on="1"/>
        <pt x="166" y="736" on="1"/>
        <pt x="230" y="626" on="1"/>
        <pt x="179" y="616" on="1"/>
      </contour>
      <contour>
        <pt x="228" y="736" on="1"/>
        <pt x="299" y="736" on="1"/>
        <pt x="363" y="626" on="1"/>
        <pt x="313" y="616" on="1"/>
      </contour>
    </TTGlyph>
    <TTGlyph name="Adieresis" xMin="7" yMin="0" xMax="588" yMax="914">
      <contour>
        <pt x="7" y="6" on="1"/>
        <pt x="239" y="740" on="1"/>
        <pt x="355" y="740" on="1"/>
        <pt x="588" y="6" on="1"/>
        <pt x="588" y="0" on="1"/>
        <pt x="511" y="0" on="1"/>
        <pt x="438" y="224" on="1"/>
        <pt x="155" y="224" on="1"/>
        <pt x="84" y="0" on="1"/>
        <pt x="7" y="0" on="1"/>
      </contour>
      <contour>
        <pt x="420" y="292" on="1"/>
        <pt x="336" y="556" on="1"/>
        <pt x="301" y="672" on="1"/>
        <pt x="293" y="672" on="1"/>
        <pt x="258" y="556" on="1"/>
        <pt x="174" y="292" on="1"/>
      </contour>
      <contour>
        <pt x="190" y="813" on="1"/>
        <pt x="139" y="813" on="0"/>
        <pt x="139" y="864" on="1"/>
        <pt x="139" y="914" on="0"/>
        <pt x="190" y="914" on="1"/>
        <pt x="242" y="914" on="0"/>
        <pt x="242" y="864" on="1"/>
        <pt x="242" y="837" on="0"/>
        <pt x="215" y="813" on="0"/>
      </contour>
      <contour>
        <pt x="405" y="813" on="1"/>
        <pt x="354" y="813" on="0"/>
        <pt x="354" y="864" on="1"/>
        <pt x="354" y="914" on="0"/>
        <pt x="405" y="914" on="1"/>
        <pt x="429" y="914" on="0"/>
        <pt x="457" y="890" on="0"/>
        <pt x="457" y="864" on="1"/>
        <pt x="457" y="837" on="0"/>
        <pt x="429" y="813" on="0"/>
      </contour>
    </TTGlyph>
    <TTGlyph name="Adieresis.sc" xMin="11" yMin="0" xMax="527" yMax="724">
      <contour>
        <pt x="173" y="633" on="1"/>
        <pt x="126" y="633" on="0"/>
        <pt x="126" y="679" on="1"/>
        <pt x="126" y="703" on="0"/>
        <pt x="150" y="724" on="0"/>
        <pt x="173" y="724" on="1"/>
        <pt x="222" y="724" on="0"/>
        <pt x="222" y="679" on="1"/>
        <pt x="222" y="633" on="0"/>
      </contour>
      <contour>
        <pt x="366" y="633" on="1"/>
        <pt x="318" y="633" on="0"/>
        <pt x="318" y="679" on="1"/>
        <pt x="318" y="703" on="0"/>
        <pt x="343" y="724" on="0"/>
        <pt x="366" y="724" on="1"/>
        <pt x="389" y="724" on="0"/>
        <pt x="414" y="702" on="0"/>
        <pt x="414" y="679" on="1"/>
        <pt x="414" y="655" on="0"/>
        <pt x="389" y="633" on="0"/>
      </contour>
      <contour>
        <pt x="11" y="5" on="1"/>
        <pt x="213" y="577" on="1"/>
        <pt x="326" y="577" on="1"/>
        <pt x="527" y="5" on="1"/>
        <pt x="527" y="0" on="1"/>
        <pt x="453" y="0" on="1"/>
        <pt x="393" y="166" on="1"/>
        <pt x="146" y="166" on="1"/>
        <pt x="86" y="0" on="1"/>
        <pt x="11" y="0" on="1"/>
      </contour>
      <contour>
        <pt x="376" y="224" on="1"/>
        <pt x="303" y="427" on="1"/>
        <pt x="272" y="516" on="1"/>
        <pt x="266" y="516" on="1"/>
        <pt x="236" y="427" on="1"/>
        <pt x="162" y="224" on="1"/>
      </contour>
    </TTGlyph>
    <TTGlyph name="Agrave" xMin="7" yMin="0" xMax="588" yMax="936">
      <contour>
        <pt x="7" y="6" on="1"/>
        <pt x="239" y="740" on="1"/>
        <pt x="355" y="740" on="1"/>
        <pt x="588" y="6" on="1"/>
        <pt x="588" y="0" on="1"/>
        <pt x="511" y="0" on="1"/>
        <pt x="438" y="224" on="1"/>
        <pt x="155" y="224" on="1"/>
        <pt x="84" y="0" on="1"/>
        <pt x="7" y="0" on="1"/>
      </contour>
      <contour>
        <pt x="420" y="292" on="1"/>
        <pt x="336" y="556" on="1"/>
        <pt x="301" y="672" on="1"/>
        <pt x="293" y="672" on="1"/>
        <pt x="258" y="556" on="1"/>
        <pt x="174" y="292" on="1"/>
      </contour>
      <contour>
        <pt x="263" y="791" on="1"/>
        <pt x="167" y="936" on="1"/>
        <pt x="250" y="936" on="1"/>
        <pt x="325" y="804" on="1"/>
      </contour>
    </TTGlyph>
    <TTGlyph name="Agrave.sc" xMin="11" yMin="0" xMax="527" yMax="738">
      <contour>
        <pt x="11" y="5" on="1"/>
        <pt x="213" y="577" on="1"/>
        <pt x="326" y="577" on="1"/>
        <pt x="527" y="5" on="1"/>
        <pt x="527" y="0" on="1"/>
        <pt x="453" y="0" on="1"/>
        <pt x="393" y="166" on="1"/>
        <pt x="146" y="166" on="1"/>
        <pt x="86" y="0" on="1"/>
        <pt x="11" y="0" on="1"/>
      </contour>
      <contour>
        <pt x="376" y="224" on="1"/>
        <pt x="303" y="427" on="1"/>
        <pt x="272" y="516" on="1"/>
        <pt x="266" y="516" on="1"/>
        <pt x="236" y="427" on="1"/>
        <pt x="162" y="224" on="1"/>
      </contour>
      <contour>
        <pt x="237" y="618" on="1"/>
        <pt x="152" y="738" on="1"/>
        <pt x="232" y="738" on="1"/>
        <pt x="296" y="628" on="1"/>
      </contour>
    </TTGlyph>
    <TTGlyph name="Ainvertedbreve" xMin="7" yMin="0" xMax="588" yMax="965">
      <contour>
        <pt x="7" y="6" on="1"/>
        <pt x="239" y="740" on="1"/>
        <pt x="355" y="740" on="1"/>
        <pt x="588" y="6" on="1"/>
        <pt x="588" y="0" on="1"/>
        <pt x="511" y="0" on="1"/>
        <pt x="438" y="224" on="1"/>
        <pt x="155" y="224" on="1"/>
        <pt x="84" y="0" on="1"/>
        <pt x="7" y="0" on="1"/>
      </contour>
      <contour>
        <pt x="420" y="292" on="1"/>
        <pt x="336" y="556" on="1"/>
        <pt x="301" y="672" on="1"/>
        <pt x="293" y="672" on="1"/>
        <pt x="258" y="556" on="1"/>
        <pt x="174" y="292" on="1"/>
      </contour>
      <contour>
        <pt x="397" y="819" on="1"/>
        <pt x="397" y="867" on="0"/>
        <pt x="347" y="917" on="0"/>
        <pt x="298" y="917" on="1"/>
        <pt x="248" y="917" on="0"/>
        <pt x="199" y="867" on="0"/>
        <pt x="199" y="819" on="1"/>
        <pt x="138" y="819" on="1"/>
        <pt x="138" y="887" on="0"/>
        <pt x="220" y="965" on="0"/>
        <pt x="298" y="965" on="1"/>
        <pt x="375" y="965" on="0"/>
        <pt x="458" y="887" on="0"/>
        <pt x="458" y="819" on="1"/>
      </contour>
    </TTGlyph>
    <TTGlyph name="Ainvertedbreve.sc" xMin="11" yMin="0" xMax="527" yMax="756">
      <contour>
        <pt x="128" y="637" on="1"/>
        <pt x="128" y="692" on="0"/>
        <pt x="200" y="756" on="0"/>
        <pt x="270" y="756" on="1"/>
        <pt x="340" y="756" on="0"/>
        <pt x="413" y="693" on="0"/>
        <pt x="413" y="637" on="1"/>
        <pt x="355" y="637" on="1"/>
        <pt x="355" y="713" on="0"/>
        <pt x="270" y="713" on="1"/>
        <pt x="185" y="713" on="0"/>
        <pt x="185" y="637" on="1"/>
      </contour>
      <contour>
        <pt x="11" y="5" on="1"/>
        <pt x="213" y="577" on="1"/>
        <pt x="326" y="577" on="1"/>
        <pt x="527" y="5" on="1"/>
        <pt x="527" y="0" on="1"/>
        <pt x="453" y="0" on="1"/>
        <pt x="393" y="166" on="1"/>
        <pt x="146" y="166" on="1"/>
        <pt x="86" y="0" on="1"/>
        <pt x="11" y="0" on="1"/>
      </contour>
      <contour>
        <pt x="376" y="224" on="1"/>
        <pt x="303" y="427" on="1"/>
        <pt x="272" y="516" on="1"/>
        <pt x="266" y="516" on="1"/>
        <pt x="236" y="427" on="1"/>
        <pt x="162" y="224" on="1"/>
      </contour>
    </TTGlyph>
    <TTGlyph name="Amacron" xMin="7" yMin="0" xMax="588" yMax="901">
      <contour>
        <pt x="7" y="6" on="1"/>
        <pt x="239" y="740" on="1"/>
        <pt x="355" y="740" on="1"/>
        <pt x="588" y="6" on="1"/>
        <pt x="588" y="0" on="1"/>
        <pt x="511" y="0" on="1"/>
        <pt x="438" y="224" on="1"/>
        <pt x="155" y="224" on="1"/>
        <pt x="84" y="0" on="1"/>
        <pt x="7" y="0" on="1"/>
      </contour>
      <contour>
        <pt x="420" y="292" on="1"/>
        <pt x="336" y="556" on="1"/>
        <pt x="301" y="672" on="1"/>
        <pt x="293" y="672" on="1"/>
        <pt x="258" y="556" on="1"/>
        <pt x="174" y="292" on="1"/>
      </contour>
      <contour>
        <pt x="157" y="901" on="1"/>
        <pt x="427" y="901" on="1"/>
        <pt x="427" y="841" on="1"/>
        <pt x="157" y="841" on="1"/>
      </contour>
    </TTGlyph>
    <TTGlyph name="Amacron.sc" xMin="11" yMin="0" xMax="527" yMax="711">
      <contour>
        <pt x="11" y="5" on="1"/>
        <pt x="213" y="577" on="1"/>
        <pt x="326" y="577" on="1"/>
        <pt x="527" y="5" on="1"/>
        <pt x="527" y="0" on="1"/>
        <pt x="453" y="0" on="1"/>
        <pt x="393" y="166" on="1"/>
        <pt x="146" y="166" on="1"/>
        <pt x="86" y="0" on="1"/>
        <pt x="11" y="0" on="1"/>
      </contour>
      <contour>
        <pt x="376" y="224" on="1"/>
        <pt x="303" y="427" on="1"/>
        <pt x="272" y="516" on="1"/>
        <pt x="266" y="516" on="1"/>
        <pt x="236" y="427" on="1"/>
        <pt x="162" y="224" on="1"/>
      </contour>
      <contour>
        <pt x="144" y="711" on="1"/>
        <pt x="388" y="711" on="1"/>
        <pt x="388" y="656" on="1"/>
        <pt x="144" y="656" on="1"/>
      </contour>
    </TTGlyph>
    <TTGlyph name="Aogonek" xMin="7" yMin="-220" xMax="588" yMax="740">
      <contour>
        <pt x="525" y="-220" on="1"/>
        <pt x="427" y="-220" on="0"/>
        <pt x="427" y="-133" on="1"/>
        <pt x="427" y="-95" on="0"/>
        <pt x="473" y="-31" on="0"/>
        <pt x="522" y="0" on="1"/>
        <pt x="511" y="0" on="1"/>
        <pt x="438" y="224" on="1"/>
        <pt x="155" y="224" on="1"/>
        <pt x="84" y="0" on="1"/>
        <pt x="7" y="0" on="1"/>
        <pt x="7" y="6" on="1"/>
        <pt x="239" y="740" on="1"/>
        <pt x="355" y="740" on="1"/>
        <pt x="588" y="6" on="1"/>
        <pt x="588" y="-16" on="1"/>
        <pt x="536" y="-39" on="0"/>
        <pt x="486" y="-97" on="0"/>
        <pt x="486" y="-128" on="1"/>
        <pt x="486" y="-166" on="0"/>
        <pt x="531" y="-166" on="1"/>
        <pt x="560" y="-166" on="0"/>
        <pt x="587" y="-155" on="1"/>
        <pt x="587" y="-208" on="1"/>
        <pt x="558" y="-220" on="0"/>
      </contour>
      <contour>
        <pt x="420" y="292" on="1"/>
        <pt x="336" y="556" on="1"/>
        <pt x="301" y="672" on="1"/>
        <pt x="293" y="672" on="1"/>
        <pt x="258" y="556" on="1"/>
        <pt x="174" y="292" on="1"/>
      </contour>
    </TTGlyph>
    <TTGlyph name="Aogonek.sc" xMin="10" yMin="-169" xMax="527" yMax="577">
      <contour>
        <pt x="470" y="-169" on="1"/>
        <pt x="382" y="-169" on="0"/>
        <pt x="382" y="-101" on="1"/>
        <pt x="382" y="-72" on="0"/>
        <pt x="418" y="-24" on="0"/>
        <pt x="458" y="0" on="1"/>
        <pt x="452" y="0" on="1"/>
        <pt x="392" y="166" on="1"/>
        <pt x="145" y="166" on="1"/>
        <pt x="85" y="0" on="1"/>
        <pt x="10" y="0" on="1"/>
        <pt x="10" y="5" on="1"/>
        <pt x="212" y="577" on="1"/>
        <pt x="326" y="577" on="1"/>
        <pt x="527" y="5" on="1"/>
        <pt x="527" y="-10" on="1"/>
        <pt x="480" y="-27" on="0"/>
        <pt x="437" y="-70" on="0"/>
        <pt x="437" y="-93" on="1"/>
        <pt x="437" y="-121" on="0"/>
        <pt x="475" y="-121" on="1"/>
        <pt x="488" y="-121" on="0"/>
        <pt x="516" y="-117" on="0"/>
        <pt x="527" y="-112" on="1"/>
        <pt x="527" y="-160" on="1"/>
        <pt x="500" y="-169" on="0"/>
      </contour>
      <contour>
        <pt x="374" y="224" on="1"/>
        <pt x="302" y="432" on="1"/>
        <pt x="271" y="516" on="1"/>
        <pt x="265" y="516" on="1"/>
        <pt x="235" y="432" on="1"/>
        <pt x="161" y="224" on="1"/>
      </contour>
    </TTGlyph>
    <TTGlyph name="Aring" xMin="7" yMin="0" xMax="588" yMax="953">
      <contour>
        <pt x="7" y="6" on="1"/>
        <pt x="239" y="740" on="1"/>
        <pt x="355" y="740" on="1"/>
        <pt x="588" y="6" on="1"/>
        <pt x="588" y="0" on="1"/>
        <pt x="511" y="0" on="1"/>
        <pt x="438" y="224" on="1"/>
        <pt x="155" y="224" on="1"/>
        <pt x="84" y="0" on="1"/>
        <pt x="7" y="0" on="1"/>
      </contour>
      <contour>
        <pt x="420" y="292" on="1"/>
        <pt x="336" y="556" on="1"/>
        <pt x="301" y="672" on="1"/>
        <pt x="293" y="672" on="1"/>
        <pt x="258" y="556" on="1"/>
        <pt x="174" y="292" on="1"/>
      </contour>
      <contour>
        <pt x="298" y="742" on="1"/>
        <pt x="250" y="742" on="0"/>
        <pt x="193" y="802" on="0"/>
        <pt x="193" y="847" on="1"/>
        <pt x="193" y="892" on="0"/>
        <pt x="249" y="953" on="0"/>
        <pt x="298" y="953" on="1"/>
        <pt x="346" y="953" on="0"/>
        <pt x="403" y="892" on="0"/>
        <pt x="403" y="847" on="1"/>
        <pt x="403" y="802" on="0"/>
        <pt x="346" y="742" on="0"/>
      </contour>
      <contour>
        <pt x="298" y="784" on="1"/>
        <pt x="327" y="784" on="0"/>
        <pt x="358" y="818" on="0"/>
        <pt x="358" y="847" on="1"/>
        <pt x="358" y="876" on="0"/>
        <pt x="328" y="911" on="0"/>
        <pt x="298" y="911" on="1"/>
        <pt x="267" y="911" on="0"/>
        <pt x="237" y="876" on="0"/>
        <pt x="237" y="847" on="1"/>
        <pt x="237" y="818" on="0"/>
        <pt x="267" y="784" on="0"/>
      </contour>
    </TTGlyph>
    <TTGlyph name="Aring.sc" xMin="11" yMin="0" xMax="527" yMax="782">
      <contour>
        <pt x="11" y="5" on="1"/>
        <pt x="213" y="577" on="1"/>
        <pt x="326" y="577" on="1"/>
        <pt x="527" y="5" on="1"/>
        <pt x="527" y="0" on="1"/>
        <pt x="453" y="0" on="1"/>
        <pt x="393" y="166" on="1"/>
        <pt x="146" y="166" on="1"/>
        <pt x="86" y="0" on="1"/>
        <pt x="11" y="0" on="1"/>
      </contour>
      <contour>
        <pt x="376" y="224" on="1"/>
        <pt x="303" y="427" on="1"/>
        <pt x="272" y="516" on="1"/>
        <pt x="266" y="516" on="1"/>
        <pt x="236" y="427" on="1"/>
        <pt x="162" y="224" on="1"/>
      </contour>
      <contour>
        <pt x="269" y="615" on="1"/>
        <pt x="226" y="615" on="0"/>
        <pt x="175" y="663" on="0"/>
        <pt x="175" y="698" on="1"/>
        <pt x="175" y="734" on="0"/>
        <pt x="226" y="782" on="0"/>
        <pt x="269" y="782" on="1"/>
        <pt x="311" y="782" on="0"/>
        <pt x="362" y="734" on="0"/>
        <pt x="362" y="698" on="1"/>
        <pt x="362" y="663" on="0"/>
        <pt x="311" y="615" on="0"/>
      </contour>
      <contour>
        <pt x="269" y="650" on="1"/>
        <pt x="295" y="650" on="0"/>
        <pt x="322" y="675" on="0"/>
        <pt x="322" y="698" on="1"/>
        <pt x="322" y="721" on="0"/>
        <pt x="296" y="747" on="0"/>
        <pt x="269" y="747" on="1"/>
        <pt x="242" y="747" on="0"/>
        <pt x="216" y="721" on="0"/>
        <pt x="216" y="698" on="1"/>
        <pt x="216" y="675" on="0"/>
        <pt x="242" y="650" on="0"/>
      </contour>
    </TTGlyph>
    <TTGlyph name="Aringacute" xMin="7" yMin="0" xMax="588" yMax="952">
      <contour>
        <pt x="7" y="6" on="1"/>
        <pt x="214" y="651" on="1"/>
        <pt x="177" y="681" on="0"/>
        <pt x="177" y="736" on="1"/>
        <pt x="177" y="780" on="0"/>
        <pt x="227" y="844" on="0"/>
        <pt x="272" y="850" on="1"/>
        <pt x="332" y="952" on="1"/>
        <pt x="415" y="952" on="1"/>
        <pt x="343" y="843" on="1"/>
        <pt x="378" y="832" on="0"/>
        <pt x="417" y="774" on="0"/>
        <pt x="417" y="736" on="1"/>
        <pt x="417" y="683" on="0"/>
        <pt x="381" y="653" on="1"/>
        <pt x="588" y="6" on="1"/>
        <pt x="588" y="0" on="1"/>
        <pt x="511" y="0" on="1"/>
        <pt x="439" y="223" on="1"/>
        <pt x="156" y="223" on="1"/>
        <pt x="84" y="0" on="1"/>
        <pt x="7" y="0" on="1"/>
      </contour>
      <contour>
        <pt x="296" y="670" on="1"/>
        <pt x="327" y="670" on="0"/>
        <pt x="362" y="707" on="0"/>
        <pt x="362" y="736" on="1"/>
        <pt x="362" y="765" on="0"/>
        <pt x="327" y="803" on="0"/>
        <pt x="296" y="803" on="1"/>
        <pt x="265" y="803" on="0"/>
        <pt x="232" y="765" on="0"/>
        <pt x="232" y="736" on="1"/>
        <pt x="232" y="707" on="0"/>
        <pt x="266" y="670" on="0"/>
      </contour>
      <contour>
        <pt x="419" y="294" on="1"/>
        <pt x="337" y="556" on="1"/>
        <pt x="318" y="619" on="1"/>
        <pt x="278" y="619" on="1"/>
        <pt x="258" y="556" on="1"/>
        <pt x="175" y="294" on="1"/>
      </contour>
    </TTGlyph>
    <TTGlyph name="Aringacute.sc" xMin="12" yMin="0" xMax="527" yMax="753">
      <contour>
        <pt x="12" y="5" on="1"/>
        <pt x="192" y="512" on="1"/>
        <pt x="175" y="523" on="0"/>
        <pt x="160" y="557" on="0"/>
        <pt x="160" y="577" on="1"/>
        <pt x="160" y="614" on="0"/>
        <pt x="204" y="665" on="0"/>
        <pt x="245" y="671" on="1"/>
        <pt x="296" y="753" on="1"/>
        <pt x="375" y="753" on="1"/>
        <pt x="312" y="664" on="1"/>
        <pt x="343" y="654" on="0"/>
        <pt x="378" y="608" on="0"/>
        <pt x="378" y="577" on="1"/>
        <pt x="378" y="538" on="0"/>
        <pt x="347" y="513" on="1"/>
        <pt x="527" y="5" on="1"/>
        <pt x="527" y="0" on="1"/>
        <pt x="453" y="0" on="1"/>
        <pt x="392" y="166" on="1"/>
        <pt x="146" y="166" on="1"/>
        <pt x="85" y="0" on="1"/>
        <pt x="12" y="0" on="1"/>
      </contour>
      <contour>
        <pt x="268" y="527" on="1"/>
        <pt x="295" y="527" on="0"/>
        <pt x="326" y="555" on="0"/>
        <pt x="326" y="577" on="1"/>
        <pt x="326" y="601" on="0"/>
        <pt x="296" y="629" on="0"/>
        <pt x="268" y="629" on="1"/>
        <pt x="240" y="629" on="0"/>
        <pt x="211" y="601" on="0"/>
        <pt x="211" y="577" on="1"/>
        <pt x="211" y="555" on="0"/>
        <pt x="241" y="527" on="0"/>
      </contour>
      <contour>
        <pt x="376" y="224" on="1"/>
        <pt x="303" y="427" on="1"/>
        <pt x="286" y="481" on="1"/>
        <pt x="252" y="481" on="1"/>
        <pt x="236" y="427" on="1"/>
        <pt x="162" y="224" on="1"/>
      </contour>
    </TTGlyph>
    <TTGlyph name="Atilde" xMin="7" yMin="0" xMax="588" yMax="923">
      <contour>
        <pt x="7" y="6" on="1"/>
        <pt x="239" y="740" on="1"/>
        <pt x="355" y="740" on="1"/>
        <pt x="588" y="6" on="1"/>
        <pt x="588" y="0" on="1"/>
        <pt x="511" y="0" on="1"/>
        <pt x="438" y="224" on="1"/>
        <pt x="155" y="224" on="1"/>
        <pt x="84" y="0" on="1"/>
        <pt x="7" y="0" on="1"/>
      </contour>
      <contour>
        <pt x="420" y="292" on="1"/>
        <pt x="336" y="556" on="1"/>
        <pt x="301" y="672" on="1"/>
        <pt x="293" y="672" on="1"/>
        <pt x="258" y="556" on="1"/>
        <pt x="174" y="292" on="1"/>
      </contour>
      <contour>
        <pt x="130" y="851" on="1"/>
        <pt x="152" y="883" on="0"/>
        <pt x="210" y="923" on="0"/>
        <pt x="239" y="923" on="1"/>
        <pt x="260" y="923" on="0"/>
        <pt x="295" y="910" on="0"/>
        <pt x="329" y="894" on="0"/>
        <pt x="363" y="881" on="0"/>
        <pt x="382" y="881" on="1"/>
        <pt x="418" y="881" on="0"/>
        <pt x="450" y="920" on="1"/>
        <pt x="476" y="898" on="1"/>
        <pt x="457" y="863" on="0"/>
        <pt x="397" y="823" on="0"/>
        <pt x="367" y="823" on="1"/>
        <pt x="347" y="823" on="0"/>
        <pt x="312" y="836" on="0"/>
        <pt x="278" y="851" on="0"/>
        <pt x="244" y="864" on="0"/>
        <pt x="226" y="864" on="1"/>
        <pt x="189" y="864" on="0"/>
        <pt x="153" y="826" on="1"/>
      </contour>
    </TTGlyph>
    <TTGlyph name="Atilde.sc" xMin="11" yMin="0" xMax="527" yMax="727">
      <contour>
        <pt x="11" y="5" on="1"/>
        <pt x="213" y="577" on="1"/>
        <pt x="326" y="577" on="1"/>
        <pt x="527" y="5" on="1"/>
        <pt x="527" y="0" on="1"/>
        <pt x="453" y="0" on="1"/>
        <pt x="393" y="166" on="1"/>
        <pt x="146" y="166" on="1"/>
        <pt x="86" y="0" on="1"/>
        <pt x="11" y="0" on="1"/>
      </contour>
      <contour>
        <pt x="376" y="224" on="1"/>
        <pt x="303" y="427" on="1"/>
        <pt x="272" y="516" on="1"/>
        <pt x="266" y="516" on="1"/>
        <pt x="236" y="427" on="1"/>
        <pt x="162" y="224" on="1"/>
      </contour>
      <contour>
        <pt x="121" y="664" on="1"/>
        <pt x="140" y="693" on="0"/>
        <pt x="193" y="727" on="0"/>
        <pt x="219" y="727" on="1"/>
        <pt x="237" y="727" on="0"/>
        <pt x="268" y="717" on="0"/>
        <pt x="298" y="705" on="0"/>
        <pt x="328" y="695" on="0"/>
        <pt x="345" y="695" on="1"/>
        <pt x="378" y="695" on="0"/>
        <pt x="408" y="726" on="1"/>
        <pt x="430" y="707" on="1"/>
        <pt x="412" y="675" on="0"/>
        <pt x="358" y="641" on="0"/>
        <pt x="332" y="641" on="1"/>
        <pt x="314" y="641" on="0"/>
        <pt x="283" y="651" on="0"/>
        <pt x="252" y="664" on="0"/>
        <pt x="222" y="674" on="0"/>
        <pt x="206" y="674" on="1"/>
        <pt x="171" y="674" on="0"/>
        <pt x="141" y="643" on="1"/>
      </contour>
    </TTGlyph>
    <TTGlyph name="B" xMin="78" yMin="-10" xMax="551" yMax="750">
      <contour>
        <pt x="285" y="-10" on="1"/>
        <pt x="261" y="-10" on="0"/>
        <pt x="207" y="-8" on="0"/>
        <pt x="152" y="-4" on="0"/>
        <pt x="100" y="2" on="0"/>
        <pt x="78" y="5" on="1"/>
        <pt x="78" y="736" on="1"/>
        <pt x="145" y="743" on="0"/>
        <pt x="233" y="750" on="0"/>
        <pt x="274" y="750" on="1"/>
        <pt x="406" y="750" on="0"/>
        <pt x="528" y="653" on="0"/>
        <pt x="528" y="550" on="1"/>
        <pt x="528" y="481" on="0"/>
        <pt x="466" y="392" on="0"/>
        <pt x="409" y="380" on="1"/>
        <pt x="409" y="376" on="1"/>
        <pt x="476" y="365" on="0"/>
        <pt x="551" y="270" on="0"/>
        <pt x="551" y="195" on="1"/>
        <pt x="551" y="92" on="0"/>
        <pt x="417" y="-10" on="0"/>
      </contour>
      <contour>
        <pt x="290" y="53" on="1"/>
        <pt x="468" y="54" on="0"/>
        <pt x="468" y="199" on="1"/>
        <pt x="468" y="275" on="0"/>
        <pt x="381" y="343" on="0"/>
        <pt x="282" y="343" on="1"/>
        <pt x="154" y="343" on="1"/>
        <pt x="154" y="62" on="1"/>
        <pt x="163" y="60" on="0"/>
        <pt x="193" y="57" on="0"/>
        <pt x="230" y="55" on="0"/>
        <pt x="270" y="53" on="0"/>
      </contour>
      <contour>
        <pt x="280" y="405" on="1"/>
        <pt x="325" y="405" on="0"/>
        <pt x="388" y="420" on="0"/>
        <pt x="427" y="454" on="0"/>
        <pt x="445" y="507" on="0"/>
        <pt x="445" y="546" on="1"/>
        <pt x="445" y="618" on="0"/>
        <pt x="366" y="685" on="0"/>
        <pt x="279" y="685" on="1"/>
        <pt x="244" y="685" on="0"/>
        <pt x="185" y="682" on="0"/>
        <pt x="154" y="677" on="1"/>
        <pt x="154" y="405" on="1"/>
      </contour>
    </TTGlyph>
    <TTGlyph name="B.sc" xMin="74" yMin="-8" xMax="492" yMax="585">
      <contour>
        <pt x="257" y="-8" on="1"/>
        <pt x="214" y="-8" on="0"/>
        <pt x="114" y="-1" on="0"/>
        <pt x="74" y="4" on="1"/>
        <pt x="74" y="574" on="1"/>
        <pt x="133" y="580" on="0"/>
        <pt x="211" y="585" on="0"/>
        <pt x="248" y="585" on="1"/>
        <pt x="366" y="585" on="0"/>
        <pt x="472" y="509" on="0"/>
        <pt x="472" y="427" on="1"/>
        <pt x="472" y="374" on="0"/>
        <pt x="418" y="307" on="0"/>
        <pt x="367" y="297" on="1"/>
        <pt x="367" y="294" on="1"/>
        <pt x="427" y="284" on="0"/>
        <pt x="492" y="212" on="0"/>
        <pt x="492" y="153" on="1"/>
        <pt x="492" y="-8" on="0"/>
      </contour>
      <contour>
        <pt x="263" y="51" on="1"/>
        <pt x="415" y="51" on="0"/>
        <pt x="415" y="158" on="1"/>
        <pt x="415" y="214" on="0"/>
        <pt x="342" y="264" on="0"/>
        <pt x="258" y="264" on="1"/>
        <pt x="147" y="264" on="1"/>
        <pt x="147" y="57" on="1"/>
        <pt x="162" y="55" on="0"/>
        <pt x="227" y="51" on="0"/>
      </contour>
      <contour>
        <pt x="256" y="319" on="1"/>
        <pt x="333" y="319" on="0"/>
        <pt x="395" y="366" on="0"/>
        <pt x="395" y="423" on="1"/>
        <pt x="395" y="477" on="0"/>
        <pt x="329" y="525" on="0"/>
        <pt x="254" y="525" on="1"/>
        <pt x="224" y="525" on="0"/>
        <pt x="173" y="522" on="0"/>
        <pt x="147" y="519" on="1"/>
        <pt x="147" y="319" on="1"/>
      </contour>
    </TTGlyph>
    <TTGlyph name="C" xMin="46" yMin="-10" xMax="488" yMax="749">
      <contour>
        <pt x="360" y="-10" on="1"/>
        <pt x="199" y="-9" on="0"/>
        <pt x="46" y="175" on="0"/>
        <pt x="46" y="369" on="1"/>
        <pt x="46" y="468" on="0"/>
        <pt x="83" y="612" on="0"/>
        <pt x="160" y="705" on="0"/>
        <pt x="278" y="749" on="0"/>
        <pt x="359" y="749" on="1"/>
        <pt x="387" y="749" on="0"/>
        <pt x="453" y="742" on="0"/>
        <pt x="488" y="736" on="1"/>
        <pt x="488" y="668" on="1"/>
        <pt x="459" y="673" on="0"/>
        <pt x="397" y="679" on="0"/>
        <pt x="369" y="679" on="1"/>
        <pt x="305" y="679" on="0"/>
        <pt x="214" y="646" on="0"/>
        <pt x="155" y="572" on="0"/>
        <pt x="128" y="454" on="0"/>
        <pt x="128" y="369" on="1"/>
        <pt x="128" y="287" on="0"/>
        <pt x="156" y="170" on="0"/>
        <pt x="213" y="95" on="0"/>
        <pt x="302" y="60" on="0"/>
        <pt x="364" y="60" on="1"/>
        <pt x="375" y="60" on="0"/>
        <pt x="407" y="62" on="0"/>
        <pt x="441" y="65" on="0"/>
        <pt x="474" y="70" on="0"/>
        <pt x="488" y="73" on="1"/>
        <pt x="488" y="6" on="1"/>
        <pt x="462" y="-2" on="0"/>
        <pt x="396" y="-10" on="0"/>
      </contour>
    </TTGlyph>
    <TTGlyph name="C.sc" xMin="45" yMin="-8" xMax="435" yMax="584">
      <contour>
        <pt x="320" y="-8" on="1"/>
        <pt x="179" y="-7" on="0"/>
        <pt x="45" y="136" on="0"/>
        <pt x="45" y="288" on="1"/>
        <pt x="45" y="442" on="0"/>
        <pt x="178" y="584" on="0"/>
        <pt x="318" y="584" on="1"/>
        <pt x="344" y="584" on="0"/>
        <pt x="403" y="579" on="0"/>
        <pt x="435" y="574" on="1"/>
        <pt x="435" y="510" on="1"/>
        <pt x="409" y="514" on="0"/>
        <pt x="353" y="519" on="0"/>
        <pt x="328" y="519" on="1"/>
        <pt x="274" y="519" on="0"/>
        <pt x="197" y="494" on="0"/>
        <pt x="148" y="439" on="0"/>
        <pt x="125" y="351" on="0"/>
        <pt x="125" y="288" on="1"/>
        <pt x="125" y="226" on="0"/>
        <pt x="148" y="139" on="0"/>
        <pt x="196" y="84" on="0"/>
        <pt x="271" y="59" on="0"/>
        <pt x="324" y="59" on="1"/>
        <pt x="345" y="59" on="0"/>
        <pt x="411" y="64" on="0"/>
        <pt x="435" y="69" on="1"/>
        <pt x="435" y="6" on="1"/>
        <pt x="412" y="0" on="0"/>
        <pt x="352" y="-8" on="0"/>
      </contour>
    </TTGlyph>
    <TTGlyph name="Cacute" xMin="46" yMin="-10" xMax="488" yMax="936">
      <contour>
        <pt x="360" y="-10" on="1"/>
        <pt x="199" y="-9" on="0"/>
        <pt x="46" y="175" on="0"/>
        <pt x="46" y="369" on="1"/>
        <pt x="46" y="468" on="0"/>
        <pt x="83" y="612" on="0"/>
        <pt x="160" y="705" on="0"/>
        <pt x="278" y="749" on="0"/>
        <pt x="359" y="749" on="1"/>
        <pt x="387" y="749" on="0"/>
        <pt x="453" y="742" on="0"/>
        <pt x="488" y="736" on="1"/>
        <pt x="488" y="668" on="1"/>
        <pt x="459" y="673" on="0"/>
        <pt x="397" y="679" on="0"/>
        <pt x="369" y="679" on="1"/>
        <pt x="305" y="679" on="0"/>
        <pt x="214" y="646" on="0"/>
        <pt x="155" y="572" on="0"/>
        <pt x="128" y="454" on="0"/>
        <pt x="128" y="369" on="1"/>
        <pt x="128" y="287" on="0"/>
        <pt x="156" y="170" on="0"/>
        <pt x="213" y="95" on="0"/>
        <pt x="302" y="60" on="0"/>
        <pt x="364" y="60" on="1"/>
        <pt x="375" y="60" on="0"/>
        <pt x="407" y="62" on="0"/>
        <pt x="441" y="65" on="0"/>
        <pt x="474" y="70" on="0"/>
        <pt x="488" y="73" on="1"/>
        <pt x="488" y="6" on="1"/>
        <pt x="462" y="-2" on="0"/>
        <pt x="396" y="-10" on="0"/>
      </contour>
      <contour>
        <pt x="278" y="796" on="1"/>
        <pt x="353" y="936" on="1"/>
        <pt x="436" y="936" on="1"/>
        <pt x="340" y="791" on="1"/>
      </contour>
    </TTGlyph>
    <TTGlyph name="Cacute.sc" xMin="45" yMin="-8" xMax="435" yMax="738">
      <contour>
        <pt x="320" y="-8" on="1"/>
        <pt x="179" y="-7" on="0"/>
        <pt x="45" y="136" on="0"/>
        <pt x="45" y="288" on="1"/>
        <pt x="45" y="442" on="0"/>
        <pt x="178" y="584" on="0"/>
        <pt x="318" y="584" on="1"/>
        <pt x="343" y="584" on="0"/>
        <pt x="403" y="579" on="0"/>
        <pt x="435" y="574" on="1"/>
        <pt x="435" y="510" on="1"/>
        <pt x="407" y="514" on="0"/>
        <pt x="352" y="519" on="0"/>
        <pt x="327" y="519" on="1"/>
        <pt x="273" y="519" on="0"/>
        <pt x="196" y="495" on="0"/>
        <pt x="148" y="440" on="0"/>
        <pt x="125" y="352" on="0"/>
        <pt x="125" y="288" on="1"/>
        <pt x="125" y="226" on="0"/>
        <pt x="148" y="139" on="0"/>
        <pt x="197" y="84" on="0"/>
        <pt x="272" y="59" on="0"/>
        <pt x="324" y="59" on="1"/>
        <pt x="345" y="59" on="0"/>
        <pt x="411" y="64" on="0"/>
        <pt x="435" y="69" on="1"/>
        <pt x="435" y="6" on="1"/>
        <pt x="412" y="0" on="0"/>
        <pt x="351" y="-8" on="0"/>
      </contour>
      <contour>
        <pt x="245" y="623" on="1"/>
        <pt x="309" y="738" on="1"/>
        <pt x="389" y="738" on="1"/>
        <pt x="304" y="618" on="1"/>
      </contour>
    </TTGlyph>
    <TTGlyph name="Ccaron" xMin="46" yMin="-10" xMax="488" yMax="938">
      <contour>
        <pt x="360" y="-10" on="1"/>
        <pt x="199" y="-9" on="0"/>
        <pt x="46" y="175" on="0"/>
        <pt x="46" y="369" on="1"/>
        <pt x="46" y="468" on="0"/>
        <pt x="83" y="612" on="0"/>
        <pt x="160" y="705" on="0"/>
        <pt x="278" y="749" on="0"/>
        <pt x="359" y="749" on="1"/>
        <pt x="387" y="749" on="0"/>
        <pt x="453" y="742" on="0"/>
        <pt x="488" y="736" on="1"/>
        <pt x="488" y="668" on="1"/>
        <pt x="459" y="673" on="0"/>
        <pt x="397" y="679" on="0"/>
        <pt x="369" y="679" on="1"/>
        <pt x="305" y="679" on="0"/>
        <pt x="214" y="646" on="0"/>
        <pt x="155" y="572" on="0"/>
        <pt x="128" y="454" on="0"/>
        <pt x="128" y="369" on="1"/>
        <pt x="128" y="287" on="0"/>
        <pt x="156" y="170" on="0"/>
        <pt x="213" y="95" on="0"/>
        <pt x="302" y="60" on="0"/>
        <pt x="364" y="60" on="1"/>
        <pt x="375" y="60" on="0"/>
        <pt x="407" y="62" on="0"/>
        <pt x="441" y="65" on="0"/>
        <pt x="474" y="70" on="0"/>
        <pt x="488" y="73" on="1"/>
        <pt x="488" y="6" on="1"/>
        <pt x="462" y="-2" on="0"/>
        <pt x="396" y="-10" on="0"/>
      </contour>
      <contour>
        <pt x="173" y="938" on="1"/>
        <pt x="317" y="865" on="1"/>
        <pt x="461" y="938" on="1"/>
        <pt x="461" y="872" on="1"/>
        <pt x="317" y="800" on="1"/>
        <pt x="173" y="872" on="1"/>
      </contour>
    </TTGlyph>
    <TTGlyph name="Ccaron.sc" xMin="45" yMin="-8" xMax="435" yMax="739">
      <contour>
        <pt x="320" y="-8" on="1"/>
        <pt x="179" y="-7" on="0"/>
        <pt x="45" y="136" on="0"/>
        <pt x="45" y="288" on="1"/>
        <pt x="45" y="442" on="0"/>
        <pt x="178" y="584" on="0"/>
        <pt x="318" y="584" on="1"/>
        <pt x="343" y="584" on="0"/>
        <pt x="403" y="579" on="0"/>
        <pt x="435" y="574" on="1"/>
        <pt x="435" y="510" on="1"/>
        <pt x="407" y="514" on="0"/>
        <pt x="352" y="519" on="0"/>
        <pt x="327" y="519" on="1"/>
        <pt x="273" y="519" on="0"/>
        <pt x="196" y="495" on="0"/>
        <pt x="148" y="440" on="0"/>
        <pt x="125" y="352" on="0"/>
        <pt x="125" y="288" on="1"/>
        <pt x="125" y="226" on="0"/>
        <pt x="148" y="139" on="0"/>
        <pt x="197" y="84" on="0"/>
        <pt x="272" y="59" on="0"/>
        <pt x="324" y="59" on="1"/>
        <pt x="345" y="59" on="0"/>
        <pt x="411" y="64" on="0"/>
        <pt x="435" y="69" on="1"/>
        <pt x="435" y="6" on="1"/>
        <pt x="412" y="0" on="0"/>
        <pt x="351" y="-8" on="0"/>
      </contour>
      <contour>
        <pt x="154" y="739" on="1"/>
        <pt x="283" y="682" on="1"/>
        <pt x="412" y="739" on="1"/>
        <pt x="412" y="680" on="1"/>
        <pt x="283" y="623" on="1"/>
        <pt x="154" y="680" on="1"/>
      </contour>
    </TTGlyph>
    <TTGlyph name="Ccedilla" xMin="46" yMin="-220" xMax="488" yMax="749">
      <contour>
        <pt x="280" y="-220" on="1"/>
        <pt x="244" y="-220" on="0"/>
        <pt x="206" y="-209" on="1"/>
        <pt x="206" y="-153" on="1"/>
        <pt x="220" y="-158" on="0"/>
        <pt x="253" y="-163" on="0"/>
        <pt x="267" y="-163" on="1"/>
        <pt x="332" y="-163" on="0"/>
        <pt x="332" y="-103" on="1"/>
        <pt x="332" y="-60" on="0"/>
        <pt x="300" y="-6" on="1"/>
        <pt x="169" y="10" on="0"/>
        <pt x="46" y="193" on="0"/>
        <pt x="46" y="369" on="1"/>
        <pt x="46" y="468" on="0"/>
        <pt x="83" y="612" on="0"/>
        <pt x="160" y="705" on="0"/>
        <pt x="278" y="749" on="0"/>
        <pt x="359" y="749" on="1"/>
        <pt x="387" y="749" on="0"/>
        <pt x="453" y="742" on="0"/>
        <pt x="488" y="736" on="1"/>
        <pt x="488" y="668" on="1"/>
        <pt x="459" y="673" on="0"/>
        <pt x="397" y="679" on="0"/>
        <pt x="369" y="679" on="1"/>
        <pt x="305" y="679" on="0"/>
        <pt x="214" y="646" on="0"/>
        <pt x="155" y="572" on="0"/>
        <pt x="128" y="454" on="0"/>
        <pt x="128" y="369" on="1"/>
        <pt x="128" y="287" on="0"/>
        <pt x="156" y="170" on="0"/>
        <pt x="213" y="95" on="0"/>
        <pt x="302" y="60" on="0"/>
        <pt x="364" y="60" on="1"/>
        <pt x="375" y="60" on="0"/>
        <pt x="407" y="62" on="0"/>
        <pt x="441" y="65" on="0"/>
        <pt x="474" y="70" on="0"/>
        <pt x="488" y="73" on="1"/>
        <pt x="488" y="6" on="1"/>
        <pt x="462" y="-2" on="0"/>
        <pt x="397" y="-10" on="0"/>
        <pt x="361" y="-10" on="1"/>
        <pt x="378" y="-39" on="0"/>
        <pt x="391" y="-87" on="0"/>
        <pt x="391" y="-111" on="1"/>
        <pt x="391" y="-163" on="0"/>
        <pt x="334" y="-220" on="0"/>
      </contour>
    </TTGlyph>
    <TTGlyph name="Ccedilla.sc" xMin="45" yMin="-172" xMax="435" yMax="584">
      <contour>
        <pt x="251" y="-172" on="1"/>
        <pt x="237" y="-172" on="0"/>
        <pt x="202" y="-168" on="0"/>
        <pt x="185" y="-163" on="1"/>
        <pt x="185" y="-113" on="1"/>
        <pt x="199" y="-117" on="0"/>
        <pt x="229" y="-120" on="0"/>
        <pt x="241" y="-120" on="1"/>
        <pt x="294" y="-120" on="0"/>
        <pt x="294" y="-76" on="1"/>
        <pt x="294" y="-48" on="0"/>
        <pt x="269" y="-4" on="1"/>
        <pt x="154" y="7" on="0"/>
        <pt x="45" y="150" on="0"/>
        <pt x="45" y="288" on="1"/>
        <pt x="45" y="442" on="0"/>
        <pt x="178" y="584" on="0"/>
        <pt x="318" y="584" on="1"/>
        <pt x="343" y="584" on="0"/>
        <pt x="403" y="579" on="0"/>
        <pt x="435" y="574" on="1"/>
        <pt x="435" y="510" on="1"/>
        <pt x="407" y="514" on="0"/>
        <pt x="352" y="519" on="0"/>
        <pt x="328" y="519" on="1"/>
        <pt x="274" y="519" on="0"/>
        <pt x="197" y="495" on="0"/>
        <pt x="148" y="440" on="0"/>
        <pt x="125" y="352" on="0"/>
        <pt x="125" y="288" on="1"/>
        <pt x="125" y="226" on="0"/>
        <pt x="148" y="139" on="0"/>
        <pt x="197" y="84" on="0"/>
        <pt x="272" y="59" on="0"/>
        <pt x="324" y="59" on="1"/>
        <pt x="345" y="59" on="0"/>
        <pt x="411" y="64" on="0"/>
        <pt x="435" y="69" on="1"/>
        <pt x="435" y="6" on="1"/>
        <pt x="412" y="0" on="0"/>
        <pt x="353" y="-8" on="0"/>
        <pt x="326" y="-7" on="1"/>
        <pt x="350" y="-52" on="0"/>
        <pt x="350" y="-85" on="1"/>
        <pt x="350" y="-127" on="0"/>
        <pt x="300" y="-172" on="0"/>
      </contour>
    </TTGlyph>
    <TTGlyph name="Ccircumflex" xMin="46" yMin="-10" xMax="488" yMax="949">
      <contour>
        <pt x="360" y="-10" on="1"/>
        <pt x="199" y="-9" on="0"/>
        <pt x="46" y="175" on="0"/>
        <pt x="46" y="369" on="1"/>
        <pt x="46" y="468" on="0"/>
        <pt x="83" y="612" on="0"/>
        <pt x="160" y="705" on="0"/>
        <pt x="278" y="749" on="0"/>
        <pt x="359" y="749" on="1"/>
        <pt x="387" y="749" on="0"/>
        <pt x="453" y="742" on="0"/>
        <pt x="488" y="736" on="1"/>
        <pt x="488" y="668" on="1"/>
        <pt x="459" y="673" on="0"/>
        <pt x="397" y="679" on="0"/>
        <pt x="369" y="679" on="1"/>
        <pt x="305" y="679" on="0"/>
        <pt x="214" y="646" on="0"/>
        <pt x="155" y="572" on="0"/>
        <pt x="128" y="454" on="0"/>
        <pt x="128" y="369" on="1"/>
        <pt x="128" y="287" on="0"/>
        <pt x="156" y="170" on="0"/>
        <pt x="213" y="95" on="0"/>
        <pt x="302" y="60" on="0"/>
        <pt x="364" y="60" on="1"/>
        <pt x="375" y="60" on="0"/>
        <pt x="407" y="62" on="0"/>
        <pt x="441" y="65" on="0"/>
        <pt x="474" y="70" on="0"/>
        <pt x="488" y="73" on="1"/>
        <pt x="488" y="6" on="1"/>
        <pt x="462" y="-2" on="0"/>
        <pt x="396" y="-10" on="0"/>
      </contour>
      <contour>
        <pt x="169" y="876" on="1"/>
        <pt x="313" y="949" on="1"/>
        <pt x="458" y="876" on="1"/>
        <pt x="458" y="811" on="1"/>
        <pt x="313" y="883" on="1"/>
        <pt x="169" y="811" on="1"/>
      </contour>
    </TTGlyph>
    <TTGlyph name="Ccircumflex.sc" xMin="45" yMin="-8" xMax="435" yMax="745">
      <contour>
        <pt x="320" y="-8" on="1"/>
        <pt x="179" y="-7" on="0"/>
        <pt x="45" y="136" on="0"/>
        <pt x="45" y="288" on="1"/>
        <pt x="45" y="442" on="0"/>
        <pt x="178" y="584" on="0"/>
        <pt x="318" y="584" on="1"/>
        <pt x="343" y="584" on="0"/>
        <pt x="403" y="579" on="0"/>
        <pt x="435" y="574" on="1"/>
        <pt x="435" y="510" on="1"/>
        <pt x="407" y="514" on="0"/>
        <pt x="352" y="519" on="0"/>
        <pt x="327" y="519" on="1"/>
        <pt x="273" y="519" on="0"/>
        <pt x="196" y="495" on="0"/>
        <pt x="148" y="440" on="0"/>
        <pt x="125" y="352" on="0"/>
        <pt x="125" y="288" on="1"/>
        <pt x="125" y="226" on="0"/>
        <pt x="148" y="139" on="0"/>
        <pt x="197" y="84" on="0"/>
        <pt x="272" y="59" on="0"/>
        <pt x="324" y="59" on="1"/>
        <pt x="345" y="59" on="0"/>
        <pt x="411" y="64" on="0"/>
        <pt x="435" y="69" on="1"/>
        <pt x="435" y="6" on="1"/>
        <pt x="412" y="0" on="0"/>
        <pt x="351" y="-8" on="0"/>
      </contour>
      <contour>
        <pt x="150" y="688" on="1"/>
        <pt x="279" y="745" on="1"/>
        <pt x="408" y="688" on="1"/>
        <pt x="408" y="630" on="1"/>
        <pt x="279" y="687" on="1"/>
        <pt x="150" y="630" on="1"/>
      </contour>
    </TTGlyph>
    <TTGlyph name="Cdotaccent" xMin="46" yMin="-10" xMax="488" yMax="905">
      <contour>
        <pt x="315" y="804" on="1"/>
        <pt x="264" y="804" on="0"/>
        <pt x="264" y="854" on="1"/>
        <pt x="264" y="905" on="0"/>
        <pt x="315" y="905" on="1"/>
        <pt x="367" y="905" on="0"/>
        <pt x="367" y="854" on="1"/>
        <pt x="367" y="804" on="0"/>
      </contour>
      <contour>
        <pt x="360" y="-10" on="1"/>
        <pt x="199" y="-9" on="0"/>
        <pt x="46" y="175" on="0"/>
        <pt x="46" y="369" on="1"/>
        <pt x="46" y="468" on="0"/>
        <pt x="83" y="612" on="0"/>
        <pt x="160" y="705" on="0"/>
        <pt x="278" y="749" on="0"/>
        <pt x="359" y="749" on="1"/>
        <pt x="387" y="749" on="0"/>
        <pt x="453" y="742" on="0"/>
        <pt x="488" y="736" on="1"/>
        <pt x="488" y="668" on="1"/>
        <pt x="459" y="673" on="0"/>
        <pt x="397" y="679" on="0"/>
        <pt x="369" y="679" on="1"/>
        <pt x="305" y="679" on="0"/>
        <pt x="214" y="646" on="0"/>
        <pt x="155" y="572" on="0"/>
        <pt x="128" y="454" on="0"/>
        <pt x="128" y="369" on="1"/>
        <pt x="128" y="287" on="0"/>
        <pt x="156" y="170" on="0"/>
        <pt x="213" y="95" on="0"/>
        <pt x="302" y="60" on="0"/>
        <pt x="364" y="60" on="1"/>
        <pt x="375" y="60" on="0"/>
        <pt x="407" y="62" on="0"/>
        <pt x="441" y="65" on="0"/>
        <pt x="474" y="70" on="0"/>
        <pt x="488" y="73" on="1"/>
        <pt x="488" y="6" on="1"/>
        <pt x="462" y="-2" on="0"/>
        <pt x="396" y="-10" on="0"/>
      </contour>
    </TTGlyph>
    <TTGlyph name="Cdotaccent.sc" xMin="45" yMin="-8" xMax="435" yMax="718">
      <contour>
        <pt x="320" y="-8" on="1"/>
        <pt x="179" y="-7" on="0"/>
        <pt x="45" y="136" on="0"/>
        <pt x="45" y="288" on="1"/>
        <pt x="45" y="442" on="0"/>
        <pt x="178" y="584" on="0"/>
        <pt x="318" y="584" on="1"/>
        <pt x="343" y="584" on="0"/>
        <pt x="403" y="579" on="0"/>
        <pt x="435" y="574" on="1"/>
        <pt x="435" y="510" on="1"/>
        <pt x="407" y="514" on="0"/>
        <pt x="352" y="519" on="0"/>
        <pt x="327" y="519" on="1"/>
        <pt x="273" y="519" on="0"/>
        <pt x="196" y="495" on="0"/>
        <pt x="148" y="440" on="0"/>
        <pt x="125" y="352" on="0"/>
        <pt x="125" y="288" on="1"/>
        <pt x="125" y="226" on="0"/>
        <pt x="148" y="139" on="0"/>
        <pt x="197" y="84" on="0"/>
        <pt x="272" y="59" on="0"/>
        <pt x="324" y="59" on="1"/>
        <pt x="345" y="59" on="0"/>
        <pt x="411" y="64" on="0"/>
        <pt x="435" y="69" on="1"/>
        <pt x="435" y="6" on="1"/>
        <pt x="412" y="0" on="0"/>
        <pt x="351" y="-8" on="0"/>
      </contour>
      <contour>
        <pt x="281" y="627" on="1"/>
        <pt x="258" y="627" on="0"/>
        <pt x="234" y="648" on="0"/>
        <pt x="234" y="673" on="1"/>
        <pt x="234" y="697" on="0"/>
        <pt x="258" y="718" on="0"/>
        <pt x="281" y="718" on="1"/>
        <pt x="304" y="718" on="0"/>
        <pt x="330" y="697" on="0"/>
        <pt x="330" y="673" on="1"/>
        <pt x="330" y="627" on="0"/>
      </contour>
    </TTGlyph>
    <TTGlyph name="D" xMin="78" yMin="-14" xMax="588" yMax="750">
      <contour>
        <pt x="225" y="-14" on="1"/>
        <pt x="186" y="-14" on="0"/>
        <pt x="112" y="-9" on="0"/>
        <pt x="78" y="-4" on="1"/>
        <pt x="78" y="735" on="1"/>
        <pt x="129" y="743" on="0"/>
        <pt x="218" y="750" on="0"/>
        <pt x="253" y="750" on="1"/>
        <pt x="427" y="750" on="0"/>
        <pt x="588" y="566" on="0"/>
        <pt x="588" y="369" on="1"/>
        <pt x="588" y="268" on="0"/>
        <pt x="546" y="124" on="0"/>
        <pt x="457" y="30" on="0"/>
        <pt x="320" y="-14" on="0"/>
      </contour>
      <contour>
        <pt x="247" y="55" on="1"/>
        <pt x="380" y="55" on="0"/>
        <pt x="505" y="205" on="0"/>
        <pt x="505" y="369" on="1"/>
        <pt x="505" y="452" on="0"/>
        <pt x="477" y="570" on="0"/>
        <pt x="418" y="646" on="0"/>
        <pt x="325" y="681" on="0"/>
        <pt x="260" y="681" on="1"/>
        <pt x="235" y="681" on="0"/>
        <pt x="182" y="677" on="0"/>
        <pt x="158" y="673" on="1"/>
        <pt x="158" y="61" on="1"/>
        <pt x="185" y="58" on="0"/>
        <pt x="226" y="55" on="0"/>
      </contour>
    </TTGlyph>
    <TTGlyph name="D.sc" xMin="74" yMin="-11" xMax="527" yMax="585">
      <contour>
        <pt x="211" y="-11" on="1"/>
        <pt x="175" y="-11" on="0"/>
        <pt x="104" y="-7" on="0"/>
        <pt x="74" y="-2" on="1"/>
        <pt x="74" y="574" on="1"/>
        <pt x="119" y="579" on="0"/>
        <pt x="199" y="585" on="0"/>
        <pt x="230" y="585" on="1"/>
        <pt x="385" y="585" on="0"/>
        <pt x="527" y="443" on="0"/>
        <pt x="527" y="288" on="1"/>
        <pt x="527" y="210" on="0"/>
        <pt x="490" y="97" on="0"/>
        <pt x="413" y="24" on="0"/>
        <pt x="294" y="-11" on="0"/>
      </contour>
      <contour>
        <pt x="230" y="54" on="1"/>
        <pt x="343" y="54" on="0"/>
        <pt x="448" y="164" on="0"/>
        <pt x="448" y="288" on="1"/>
        <pt x="448" y="351" on="0"/>
        <pt x="424" y="439" on="0"/>
        <pt x="373" y="494" on="0"/>
        <pt x="294" y="520" on="0"/>
        <pt x="238" y="520" on="1"/>
        <pt x="217" y="520" on="0"/>
        <pt x="171" y="517" on="0"/>
        <pt x="150" y="514" on="1"/>
        <pt x="150" y="59" on="1"/>
        <pt x="174" y="57" on="0"/>
        <pt x="211" y="54" on="0"/>
      </contour>
    </TTGlyph>
    <TTGlyph name="Dcaron" xMin="78" yMin="-14" xMax="588" yMax="938">
      <contour>
        <pt x="149" y="938" on="1"/>
        <pt x="293" y="865" on="1"/>
        <pt x="437" y="938" on="1"/>
        <pt x="437" y="872" on="1"/>
        <pt x="293" y="800" on="1"/>
        <pt x="149" y="872" on="1"/>
      </contour>
      <contour>
        <pt x="225" y="-14" on="1"/>
        <pt x="186" y="-14" on="0"/>
        <pt x="112" y="-9" on="0"/>
        <pt x="78" y="-4" on="1"/>
        <pt x="78" y="735" on="1"/>
        <pt x="129" y="743" on="0"/>
        <pt x="218" y="750" on="0"/>
        <pt x="253" y="750" on="1"/>
        <pt x="427" y="750" on="0"/>
        <pt x="588" y="566" on="0"/>
        <pt x="588" y="369" on="1"/>
        <pt x="588" y="268" on="0"/>
        <pt x="546" y="124" on="0"/>
        <pt x="457" y="30" on="0"/>
        <pt x="320" y="-14" on="0"/>
      </contour>
      <contour>
        <pt x="247" y="55" on="1"/>
        <pt x="380" y="55" on="0"/>
        <pt x="505" y="205" on="0"/>
        <pt x="505" y="369" on="1"/>
        <pt x="505" y="452" on="0"/>
        <pt x="477" y="570" on="0"/>
        <pt x="418" y="646" on="0"/>
        <pt x="325" y="681" on="0"/>
        <pt x="260" y="681" on="1"/>
        <pt x="235" y="681" on="0"/>
        <pt x="182" y="677" on="0"/>
        <pt x="158" y="673" on="1"/>
        <pt x="158" y="61" on="1"/>
        <pt x="185" y="58" on="0"/>
        <pt x="226" y="55" on="0"/>
      </contour>
    </TTGlyph>
    <TTGlyph name="Dcaron.sc" xMin="74" yMin="-11" xMax="527" yMax="739">
      <contour>
        <pt x="211" y="-11" on="1"/>
        <pt x="175" y="-11" on="0"/>
        <pt x="104" y="-7" on="0"/>
        <pt x="74" y="-2" on="1"/>
        <pt x="74" y="574" on="1"/>
        <pt x="119" y="579" on="0"/>
        <pt x="199" y="585" on="0"/>
        <pt x="230" y="585" on="1"/>
        <pt x="385" y="585" on="0"/>
        <pt x="527" y="443" on="0"/>
        <pt x="527" y="288" on="1"/>
        <pt x="527" y="210" on="0"/>
        <pt x="490" y="97" on="0"/>
        <pt x="413" y="24" on="0"/>
        <pt x="294" y="-11" on="0"/>
      </contour>
      <contour>
        <pt x="230" y="54" on="1"/>
        <pt x="343" y="54" on="0"/>
        <pt x="448" y="164" on="0"/>
        <pt x="448" y="288" on="1"/>
        <pt x="448" y="351" on="0"/>
        <pt x="424" y="439" on="0"/>
        <pt x="373" y="494" on="0"/>
        <pt x="294" y="520" on="0"/>
        <pt x="238" y="520" on="1"/>
        <pt x="217" y="520" on="0"/>
        <pt x="171" y="517" on="0"/>
        <pt x="150" y="514" on="1"/>
        <pt x="150" y="59" on="1"/>
        <pt x="174" y="57" on="0"/>
        <pt x="211" y="54" on="0"/>
      </contour>
      <contour>
        <pt x="138" y="680" on="1"/>
        <pt x="138" y="739" on="1"/>
        <pt x="268" y="682" on="1"/>
        <pt x="396" y="739" on="1"/>
        <pt x="396" y="680" on="1"/>
        <pt x="267" y="623" on="1"/>
      </contour>
    </TTGlyph>
    <TTGlyph name="Dcroat" xMin="1" yMin="-14" xMax="601" yMax="750">
      <contour>
        <pt x="1" y="402" on="1"/>
        <pt x="91" y="402" on="1"/>
        <pt x="91" y="735" on="1"/>
        <pt x="142" y="743" on="0"/>
        <pt x="231" y="750" on="0"/>
        <pt x="266" y="750" on="1"/>
        <pt x="440" y="750" on="0"/>
        <pt x="601" y="566" on="0"/>
        <pt x="601" y="369" on="1"/>
        <pt x="601" y="268" on="0"/>
        <pt x="559" y="124" on="0"/>
        <pt x="470" y="30" on="0"/>
        <pt x="333" y="-14" on="0"/>
        <pt x="238" y="-14" on="1"/>
        <pt x="199" y="-14" on="0"/>
        <pt x="125" y="-9" on="0"/>
        <pt x="91" y="-4" on="1"/>
        <pt x="91" y="337" on="1"/>
        <pt x="1" y="337" on="1"/>
      </contour>
      <contour>
        <pt x="260" y="55" on="1"/>
        <pt x="393" y="55" on="0"/>
        <pt x="518" y="205" on="0"/>
        <pt x="518" y="369" on="1"/>
        <pt x="518" y="452" on="0"/>
        <pt x="490" y="570" on="0"/>
        <pt x="431" y="646" on="0"/>
        <pt x="338" y="681" on="0"/>
        <pt x="273" y="681" on="1"/>
        <pt x="248" y="681" on="0"/>
        <pt x="195" y="677" on="0"/>
        <pt x="171" y="673" on="1"/>
        <pt x="171" y="402" on="1"/>
        <pt x="324" y="402" on="1"/>
        <pt x="324" y="337" on="1"/>
        <pt x="171" y="337" on="1"/>
        <pt x="171" y="61" on="1"/>
        <pt x="198" y="58" on="0"/>
        <pt x="239" y="55" on="0"/>
      </contour>
    </TTGlyph>
    <TTGlyph name="Dcroat.sc" xMin="8" yMin="-11" xMax="539" yMax="585">
      <contour>
        <pt x="8" y="319" on="1"/>
        <pt x="86" y="319" on="1"/>
        <pt x="86" y="574" on="1"/>
        <pt x="131" y="579" on="0"/>
        <pt x="211" y="585" on="0"/>
        <pt x="242" y="585" on="1"/>
        <pt x="397" y="585" on="0"/>
        <pt x="539" y="442" on="0"/>
        <pt x="539" y="288" on="1"/>
        <pt x="539" y="209" on="0"/>
        <pt x="502" y="96" on="0"/>
        <pt x="424" y="23" on="0"/>
        <pt x="303" y="-11" on="0"/>
        <pt x="219" y="-11" on="1"/>
        <pt x="184" y="-11" on="0"/>
        <pt x="115" y="-7" on="0"/>
        <pt x="86" y="-2" on="1"/>
        <pt x="86" y="258" on="1"/>
        <pt x="8" y="258" on="1"/>
      </contour>
      <contour>
        <pt x="242" y="54" on="1"/>
        <pt x="354" y="54" on="0"/>
        <pt x="460" y="164" on="0"/>
        <pt x="460" y="288" on="1"/>
        <pt x="460" y="351" on="0"/>
        <pt x="436" y="439" on="0"/>
        <pt x="385" y="494" on="0"/>
        <pt x="305" y="520" on="0"/>
        <pt x="250" y="520" on="1"/>
        <pt x="229" y="520" on="0"/>
        <pt x="183" y="517" on="0"/>
        <pt x="162" y="514" on="1"/>
        <pt x="162" y="319" on="1"/>
        <pt x="292" y="319" on="1"/>
        <pt x="292" y="258" on="1"/>
        <pt x="162" y="258" on="1"/>
        <pt x="162" y="59" on="1"/>
        <pt x="185" y="57" on="0"/>
        <pt x="222" y="54" on="0"/>
      </contour>
    </TTGlyph>
    <TTGlyph name="Ddotbelow" xMin="78" yMin="-178" xMax="588" yMax="750">
      <contour>
        <pt x="297" y="-178" on="1"/>
        <pt x="273" y="-178" on="0"/>
        <pt x="249" y="-156" on="0"/>
        <pt x="249" y="-130" on="1"/>
        <pt x="249" y="-104" on="0"/>
        <pt x="273" y="-83" on="0"/>
        <pt x="297" y="-83" on="1"/>
        <pt x="345" y="-83" on="0"/>
        <pt x="345" y="-130" on="1"/>
        <pt x="345" y="-156" on="0"/>
        <pt x="320" y="-178" on="0"/>
      </contour>
      <contour>
        <pt x="225" y="-14" on="1"/>
        <pt x="186" y="-14" on="0"/>
        <pt x="112" y="-9" on="0"/>
        <pt x="78" y="-4" on="1"/>
        <pt x="78" y="735" on="1"/>
        <pt x="129" y="743" on="0"/>
        <pt x="218" y="750" on="0"/>
        <pt x="253" y="750" on="1"/>
        <pt x="427" y="750" on="0"/>
        <pt x="588" y="566" on="0"/>
        <pt x="588" y="369" on="1"/>
        <pt x="588" y="268" on="0"/>
        <pt x="546" y="124" on="0"/>
        <pt x="457" y="30" on="0"/>
        <pt x="320" y="-14" on="0"/>
      </contour>
      <contour>
        <pt x="247" y="55" on="1"/>
        <pt x="380" y="55" on="0"/>
        <pt x="505" y="205" on="0"/>
        <pt x="505" y="369" on="1"/>
        <pt x="505" y="452" on="0"/>
        <pt x="477" y="570" on="0"/>
        <pt x="418" y="646" on="0"/>
        <pt x="325" y="681" on="0"/>
        <pt x="260" y="681" on="1"/>
        <pt x="235" y="681" on="0"/>
        <pt x="182" y="677" on="0"/>
        <pt x="158" y="673" on="1"/>
        <pt x="158" y="61" on="1"/>
        <pt x="185" y="58" on="0"/>
        <pt x="226" y="55" on="0"/>
      </contour>
    </TTGlyph>
    <TTGlyph name="Ddotbelow.sc" xMin="74" yMin="-144" xMax="527" yMax="585">
      <contour>
        <pt x="211" y="-11" on="1"/>
        <pt x="175" y="-11" on="0"/>
        <pt x="104" y="-7" on="0"/>
        <pt x="74" y="-2" on="1"/>
        <pt x="74" y="574" on="1"/>
        <pt x="119" y="579" on="0"/>
        <pt x="199" y="585" on="0"/>
        <pt x="230" y="585" on="1"/>
        <pt x="385" y="585" on="0"/>
        <pt x="527" y="443" on="0"/>
        <pt x="527" y="288" on="1"/>
        <pt x="527" y="210" on="0"/>
        <pt x="490" y="97" on="0"/>
        <pt x="413" y="24" on="0"/>
        <pt x="294" y="-11" on="0"/>
      </contour>
      <contour>
        <pt x="230" y="54" on="1"/>
        <pt x="343" y="54" on="0"/>
        <pt x="448" y="164" on="0"/>
        <pt x="448" y="288" on="1"/>
        <pt x="448" y="351" on="0"/>
        <pt x="424" y="439" on="0"/>
        <pt x="373" y="494" on="0"/>
        <pt x="294" y="520" on="0"/>
        <pt x="238" y="520" on="1"/>
        <pt x="217" y="520" on="0"/>
        <pt x="171" y="517" on="0"/>
        <pt x="150" y="514" on="1"/>
        <pt x="150" y="59" on="1"/>
        <pt x="174" y="57" on="0"/>
        <pt x="211" y="54" on="0"/>
      </contour>
      <contour>
        <pt x="270" y="-144" on="1"/>
        <pt x="226" y="-144" on="0"/>
        <pt x="226" y="-104" on="1"/>
        <pt x="226" y="-81" on="0"/>
        <pt x="248" y="-62" on="0"/>
        <pt x="270" y="-62" on="1"/>
        <pt x="291" y="-62" on="0"/>
        <pt x="314" y="-81" on="0"/>
        <pt x="314" y="-104" on="1"/>
        <pt x="314" y="-144" on="0"/>
      </contour>
    </TTGlyph>
    <TTGlyph name="Delta" xMin="22" yMin="0" xMax="625" yMax="740">
      <contour>
        <pt x="272" y="740" on="1"/>
        <pt x="374" y="740" on="1"/>
        <pt x="625" y="0" on="1"/>
        <pt x="22" y="0" on="1"/>
      </contour>
      <contour>
        <pt x="525" y="69" on="1"/>
        <pt x="322" y="665" on="1"/>
        <pt x="120" y="69" on="1"/>
      </contour>
    </TTGlyph>
    <TTGlyph name="E" xMin="78" yMin="0" xMax="502" yMax="740">
      <contour>
        <pt x="78" y="740" on="1"/>
        <pt x="493" y="740" on="1"/>
        <pt x="493" y="671" on="1"/>
        <pt x="158" y="671" on="1"/>
        <pt x="158" y="409" on="1"/>
        <pt x="463" y="409" on="1"/>
        <pt x="463" y="340" on="1"/>
        <pt x="158" y="340" on="1"/>
        <pt x="158" y="69" on="1"/>
        <pt x="502" y="69" on="1"/>
        <pt x="502" y="0" on="1"/>
        <pt x="78" y="0" on="1"/>
      </contour>
    </TTGlyph>
    <TTGlyph name="E.sc" xMin="74" yMin="0" xMax="450" yMax="577">
      <contour>
        <pt x="74" y="577" on="1"/>
        <pt x="443" y="577" on="1"/>
        <pt x="443" y="514" on="1"/>
        <pt x="151" y="514" on="1"/>
        <pt x="151" y="323" on="1"/>
        <pt x="417" y="323" on="1"/>
        <pt x="417" y="262" on="1"/>
        <pt x="151" y="262" on="1"/>
        <pt x="151" y="64" on="1"/>
        <pt x="450" y="64" on="1"/>
        <pt x="450" y="0" on="1"/>
        <pt x="74" y="0" on="1"/>
      </contour>
    </TTGlyph>
    <TTGlyph name="Eacute" xMin="78" yMin="0" xMax="502" yMax="936">
      <contour>
        <pt x="250" y="796" on="1"/>
        <pt x="325" y="936" on="1"/>
        <pt x="408" y="936" on="1"/>
        <pt x="312" y="791" on="1"/>
      </contour>
      <contour>
        <pt x="78" y="740" on="1"/>
        <pt x="493" y="740" on="1"/>
        <pt x="493" y="671" on="1"/>
        <pt x="158" y="671" on="1"/>
        <pt x="158" y="409" on="1"/>
        <pt x="463" y="409" on="1"/>
        <pt x="463" y="340" on="1"/>
        <pt x="158" y="340" on="1"/>
        <pt x="158" y="69" on="1"/>
        <pt x="502" y="69" on="1"/>
        <pt x="502" y="0" on="1"/>
        <pt x="78" y="0" on="1"/>
      </contour>
    </TTGlyph>
    <TTGlyph name="Eacute.sc" xMin="74" yMin="0" xMax="450" yMax="738">
      <contour>
        <pt x="74" y="577" on="1"/>
        <pt x="443" y="577" on="1"/>
        <pt x="443" y="514" on="1"/>
        <pt x="151" y="514" on="1"/>
        <pt x="151" y="323" on="1"/>
        <pt x="417" y="323" on="1"/>
        <pt x="417" y="262" on="1"/>
        <pt x="151" y="262" on="1"/>
        <pt x="151" y="64" on="1"/>
        <pt x="450" y="64" on="1"/>
        <pt x="450" y="0" on="1"/>
        <pt x="74" y="0" on="1"/>
      </contour>
      <contour>
        <pt x="225" y="623" on="1"/>
        <pt x="289" y="738" on="1"/>
        <pt x="368" y="738" on="1"/>
        <pt x="284" y="618" on="1"/>
      </contour>
    </TTGlyph>
    <TTGlyph name="Ebreve" xMin="78" yMin="0" xMax="502" yMax="957">
      <contour>
        <pt x="286" y="810" on="1"/>
        <pt x="208" y="810" on="0"/>
        <pt x="126" y="889" on="0"/>
        <pt x="126" y="957" on="1"/>
        <pt x="187" y="957" on="1"/>
        <pt x="187" y="860" on="0"/>
        <pt x="286" y="860" on="1"/>
        <pt x="385" y="860" on="0"/>
        <pt x="385" y="957" on="1"/>
        <pt x="446" y="957" on="1"/>
        <pt x="446" y="889" on="0"/>
        <pt x="364" y="810" on="0"/>
      </contour>
      <contour>
        <pt x="78" y="740" on="1"/>
        <pt x="493" y="740" on="1"/>
        <pt x="493" y="671" on="1"/>
        <pt x="158" y="671" on="1"/>
        <pt x="158" y="409" on="1"/>
        <pt x="463" y="409" on="1"/>
        <pt x="463" y="340" on="1"/>
        <pt x="158" y="340" on="1"/>
        <pt x="158" y="69" on="1"/>
        <pt x="502" y="69" on="1"/>
        <pt x="502" y="0" on="1"/>
        <pt x="78" y="0" on="1"/>
      </contour>
    </TTGlyph>
    <TTGlyph name="Ebreve.sc" xMin="74" yMin="0" xMax="450" yMax="750">
      <contour>
        <pt x="259" y="630" on="1"/>
        <pt x="190" y="630" on="0"/>
        <pt x="117" y="695" on="0"/>
        <pt x="117" y="750" on="1"/>
        <pt x="174" y="750" on="1"/>
        <pt x="174" y="674" on="0"/>
        <pt x="259" y="674" on="1"/>
        <pt x="345" y="674" on="0"/>
        <pt x="345" y="750" on="1"/>
        <pt x="401" y="750" on="1"/>
        <pt x="401" y="695" on="0"/>
        <pt x="329" y="630" on="0"/>
      </contour>
      <contour>
        <pt x="74" y="577" on="1"/>
        <pt x="443" y="577" on="1"/>
        <pt x="443" y="514" on="1"/>
        <pt x="151" y="514" on="1"/>
        <pt x="151" y="323" on="1"/>
        <pt x="417" y="323" on="1"/>
        <pt x="417" y="262" on="1"/>
        <pt x="151" y="262" on="1"/>
        <pt x="151" y="64" on="1"/>
        <pt x="450" y="64" on="1"/>
        <pt x="450" y="0" on="1"/>
        <pt x="74" y="0" on="1"/>
      </contour>
    </TTGlyph>
    <TTGlyph name="Ecaron" xMin="78" yMin="0" xMax="502" yMax="938">
      <contour>
        <pt x="146" y="938" on="1"/>
        <pt x="290" y="865" on="1"/>
        <pt x="434" y="938" on="1"/>
        <pt x="434" y="872" on="1"/>
        <pt x="290" y="800" on="1"/>
        <pt x="146" y="872" on="1"/>
      </contour>
      <contour>
        <pt x="78" y="740" on="1"/>
        <pt x="493" y="740" on="1"/>
        <pt x="493" y="671" on="1"/>
        <pt x="158" y="671" on="1"/>
        <pt x="158" y="409" on="1"/>
        <pt x="463" y="409" on="1"/>
        <pt x="463" y="340" on="1"/>
        <pt x="158" y="340" on="1"/>
        <pt x="158" y="69" on="1"/>
        <pt x="502" y="69" on="1"/>
        <pt x="502" y="0" on="1"/>
        <pt x="78" y="0" on="1"/>
      </contour>
    </TTGlyph>
    <TTGlyph name="Ecaron.sc" xMin="74" yMin="0" xMax="450" yMax="739">
      <contour>
        <pt x="74" y="577" on="1"/>
        <pt x="443" y="577" on="1"/>
        <pt x="443" y="514" on="1"/>
        <pt x="151" y="514" on="1"/>
        <pt x="151" y="323" on="1"/>
        <pt x="417" y="323" on="1"/>
        <pt x="417" y="262" on="1"/>
        <pt x="151" y="262" on="1"/>
        <pt x="151" y="64" on="1"/>
        <pt x="450" y="64" on="1"/>
        <pt x="450" y="0" on="1"/>
        <pt x="74" y="0" on="1"/>
      </contour>
      <contour>
        <pt x="134" y="680" on="1"/>
        <pt x="134" y="739" on="1"/>
        <pt x="263" y="682" on="1"/>
        <pt x="392" y="739" on="1"/>
        <pt x="392" y="680" on="1"/>
        <pt x="262" y="623" on="1"/>
      </contour>
    </TTGlyph>
    <TTGlyph name="Ecircumflex" xMin="78" yMin="0" xMax="502" yMax="949">
      <contour>
        <pt x="78" y="740" on="1"/>
        <pt x="493" y="740" on="1"/>
        <pt x="493" y="671" on="1"/>
        <pt x="158" y="671" on="1"/>
        <pt x="158" y="409" on="1"/>
        <pt x="463" y="409" on="1"/>
        <pt x="463" y="340" on="1"/>
        <pt x="158" y="340" on="1"/>
        <pt x="158" y="69" on="1"/>
        <pt x="502" y="69" on="1"/>
        <pt x="502" y="0" on="1"/>
        <pt x="78" y="0" on="1"/>
      </contour>
      <contour>
        <pt x="143" y="876" on="1"/>
        <pt x="287" y="949" on="1"/>
        <pt x="432" y="876" on="1"/>
        <pt x="432" y="811" on="1"/>
        <pt x="287" y="883" on="1"/>
        <pt x="143" y="811" on="1"/>
      </contour>
    </TTGlyph>
    <TTGlyph name="Ecircumflex.sc" xMin="74" yMin="0" xMax="450" yMax="745">
      <contour>
        <pt x="74" y="577" on="1"/>
        <pt x="443" y="577" on="1"/>
        <pt x="443" y="514" on="1"/>
        <pt x="151" y="514" on="1"/>
        <pt x="151" y="323" on="1"/>
        <pt x="417" y="323" on="1"/>
        <pt x="417" y="262" on="1"/>
        <pt x="151" y="262" on="1"/>
        <pt x="151" y="64" on="1"/>
        <pt x="450" y="64" on="1"/>
        <pt x="450" y="0" on="1"/>
        <pt x="74" y="0" on="1"/>
      </contour>
      <contour>
        <pt x="132" y="688" on="1"/>
        <pt x="261" y="745" on="1"/>
        <pt x="390" y="688" on="1"/>
        <pt x="390" y="630" on="1"/>
        <pt x="261" y="687" on="1"/>
        <pt x="132" y="630" on="1"/>
      </contour>
    </TTGlyph>
    <TTGlyph name="Edblgrave" xMin="78" yMin="0" xMax="502" yMax="934">
      <contour>
        <pt x="78" y="740" on="1"/>
        <pt x="493" y="740" on="1"/>
        <pt x="493" y="671" on="1"/>
        <pt x="158" y="671" on="1"/>
        <pt x="158" y="409" on="1"/>
        <pt x="463" y="409" on="1"/>
        <pt x="463" y="340" on="1"/>
        <pt x="158" y="340" on="1"/>
        <pt x="158" y="69" on="1"/>
        <pt x="502" y="69" on="1"/>
        <pt x="502" y="0" on="1"/>
        <pt x="78" y="0" on="1"/>
      </contour>
      <contour>
        <pt x="186" y="789" on="1"/>
        <pt x="91" y="934" on="1"/>
        <pt x="165" y="934" on="1"/>
        <pt x="240" y="802" on="1"/>
      </contour>
      <contour>
        <pt x="337" y="789" on="1"/>
        <pt x="240" y="934" on="1"/>
        <pt x="316" y="934" on="1"/>
        <pt x="390" y="802" on="1"/>
      </contour>
    </TTGlyph>
    <TTGlyph name="Edblgrave.sc" xMin="74" yMin="0" xMax="450" yMax="736">
      <contour>
        <pt x="74" y="577" on="1"/>
        <pt x="443" y="577" on="1"/>
        <pt x="443" y="514" on="1"/>
        <pt x="151" y="514" on="1"/>
        <pt x="151" y="323" on="1"/>
        <pt x="417" y="323" on="1"/>
        <pt x="417" y="262" on="1"/>
        <pt x="151" y="262" on="1"/>
        <pt x="151" y="64" on="1"/>
        <pt x="450" y="64" on="1"/>
        <pt x="450" y="0" on="1"/>
        <pt x="74" y="0" on="1"/>
      </contour>
      <contour>
        <pt x="84" y="736" on="1"/>
        <pt x="157" y="736" on="1"/>
        <pt x="220" y="626" on="1"/>
        <pt x="169" y="616" on="1"/>
      </contour>
      <contour>
        <pt x="218" y="736" on="1"/>
        <pt x="290" y="736" on="1"/>
        <pt x="354" y="626" on="1"/>
        <pt x="303" y="616" on="1"/>
      </contour>
    </TTGlyph>
    <TTGlyph name="Edieresis" xMin="78" yMin="0" xMax="502" yMax="914">
      <contour>
        <pt x="179" y="813" on="1"/>
        <pt x="128" y="813" on="0"/>
        <pt x="128" y="864" on="1"/>
        <pt x="128" y="914" on="0"/>
        <pt x="179" y="914" on="1"/>
        <pt x="231" y="914" on="0"/>
        <pt x="231" y="864" on="1"/>
        <pt x="231" y="837" on="0"/>
        <pt x="204" y="813" on="0"/>
      </contour>
      <contour>
        <pt x="394" y="813" on="1"/>
        <pt x="343" y="813" on="0"/>
        <pt x="343" y="864" on="1"/>
        <pt x="343" y="914" on="0"/>
        <pt x="394" y="914" on="1"/>
        <pt x="418" y="914" on="0"/>
        <pt x="446" y="890" on="0"/>
        <pt x="446" y="864" on="1"/>
        <pt x="446" y="837" on="0"/>
        <pt x="418" y="813" on="0"/>
      </contour>
      <contour>
        <pt x="78" y="740" on="1"/>
        <pt x="493" y="740" on="1"/>
        <pt x="493" y="671" on="1"/>
        <pt x="158" y="671" on="1"/>
        <pt x="158" y="409" on="1"/>
        <pt x="463" y="409" on="1"/>
        <pt x="463" y="340" on="1"/>
        <pt x="158" y="340" on="1"/>
        <pt x="158" y="69" on="1"/>
        <pt x="502" y="69" on="1"/>
        <pt x="502" y="0" on="1"/>
        <pt x="78" y="0" on="1"/>
      </contour>
    </TTGlyph>
    <TTGlyph name="Edieresis.sc" xMin="74" yMin="0" xMax="450" yMax="724">
      <contour>
        <pt x="164" y="633" on="1"/>
        <pt x="116" y="633" on="0"/>
        <pt x="116" y="679" on="1"/>
        <pt x="116" y="703" on="0"/>
        <pt x="140" y="724" on="0"/>
        <pt x="164" y="724" on="1"/>
        <pt x="187" y="724" on="0"/>
        <pt x="212" y="702" on="0"/>
        <pt x="212" y="679" on="1"/>
        <pt x="212" y="655" on="0"/>
        <pt x="187" y="633" on="0"/>
      </contour>
      <contour>
        <pt x="357" y="633" on="1"/>
        <pt x="309" y="633" on="0"/>
        <pt x="309" y="679" on="1"/>
        <pt x="309" y="703" on="0"/>
        <pt x="334" y="724" on="0"/>
        <pt x="357" y="724" on="1"/>
        <pt x="380" y="724" on="0"/>
        <pt x="405" y="702" on="0"/>
        <pt x="405" y="679" on="1"/>
        <pt x="405" y="655" on="0"/>
        <pt x="380" y="633" on="0"/>
      </contour>
      <contour>
        <pt x="74" y="577" on="1"/>
        <pt x="443" y="577" on="1"/>
        <pt x="443" y="514" on="1"/>
        <pt x="151" y="514" on="1"/>
        <pt x="151" y="323" on="1"/>
        <pt x="417" y="323" on="1"/>
        <pt x="417" y="262" on="1"/>
        <pt x="151" y="262" on="1"/>
        <pt x="151" y="64" on="1"/>
        <pt x="450" y="64" on="1"/>
        <pt x="450" y="0" on="1"/>
        <pt x="74" y="0" on="1"/>
      </contour>
    </TTGlyph>
    <TTGlyph name="Edotaccent" xMin="78" yMin="0" xMax="502" yMax="905">
      <contour>
        <pt x="285" y="804" on="1"/>
        <pt x="234" y="804" on="0"/>
        <pt x="234" y="854" on="1"/>
        <pt x="234" y="905" on="0"/>
        <pt x="285" y="905" on="1"/>
        <pt x="337" y="905" on="0"/>
        <pt x="337" y="854" on="1"/>
        <pt x="337" y="804" on="0"/>
      </contour>
      <contour>
        <pt x="78" y="740" on="1"/>
        <pt x="493" y="740" on="1"/>
        <pt x="493" y="671" on="1"/>
        <pt x="158" y="671" on="1"/>
        <pt x="158" y="409" on="1"/>
        <pt x="463" y="409" on="1"/>
        <pt x="463" y="340" on="1"/>
        <pt x="158" y="340" on="1"/>
        <pt x="158" y="69" on="1"/>
        <pt x="502" y="69" on="1"/>
        <pt x="502" y="0" on="1"/>
        <pt x="78" y="0" on="1"/>
      </contour>
    </TTGlyph>
    <TTGlyph name="Edotaccent.sc" xMin="74" yMin="0" xMax="450" yMax="718">
      <contour>
        <pt x="259" y="627" on="1"/>
        <pt x="235" y="627" on="0"/>
        <pt x="211" y="648" on="0"/>
        <pt x="211" y="673" on="1"/>
        <pt x="211" y="697" on="0"/>
        <pt x="235" y="718" on="0"/>
        <pt x="259" y="718" on="1"/>
        <pt x="282" y="718" on="0"/>
        <pt x="306" y="697" on="0"/>
        <pt x="306" y="673" on="1"/>
        <pt x="306" y="627" on="0"/>
      </contour>
      <contour>
        <pt x="74" y="577" on="1"/>
        <pt x="443" y="577" on="1"/>
        <pt x="443" y="514" on="1"/>
        <pt x="151" y="514" on="1"/>
        <pt x="151" y="323" on="1"/>
        <pt x="417" y="323" on="1"/>
        <pt x="417" y="262" on="1"/>
        <pt x="151" y="262" on="1"/>
        <pt x="151" y="64" on="1"/>
        <pt x="450" y="64" on="1"/>
        <pt x="450" y="0" on="1"/>
        <pt x="74" y="0" on="1"/>
      </contour>
    </TTGlyph>
    <TTGlyph name="Edotbelow" xMin="78" yMin="-178" xMax="502" yMax="740">
      <contour>
        <pt x="78" y="740" on="1"/>
        <pt x="493" y="740" on="1"/>
        <pt x="493" y="671" on="1"/>
        <pt x="158" y="671" on="1"/>
        <pt x="158" y="409" on="1"/>
        <pt x="463" y="409" on="1"/>
        <pt x="463" y="340" on="1"/>
        <pt x="158" y="340" on="1"/>
        <pt x="158" y="69" on="1"/>
        <pt x="502" y="69" on="1"/>
        <pt x="502" y="0" on="1"/>
        <pt x="78" y="0" on="1"/>
      </contour>
      <contour>
        <pt x="302" y="-178" on="1"/>
        <pt x="278" y="-178" on="0"/>
        <pt x="254" y="-156" on="0"/>
        <pt x="254" y="-130" on="1"/>
        <pt x="254" y="-104" on="0"/>
        <pt x="278" y="-83" on="0"/>
        <pt x="302" y="-83" on="1"/>
        <pt x="350" y="-83" on="0"/>
        <pt x="350" y="-130" on="1"/>
        <pt x="350" y="-156" on="0"/>
        <pt x="325" y="-178" on="0"/>
      </contour>
    </TTGlyph>
    <TTGlyph name="Edotbelow.sc" xMin="74" yMin="-144" xMax="450" yMax="577">
      <contour>
        <pt x="273" y="-144" on="1"/>
        <pt x="229" y="-144" on="0"/>
        <pt x="229" y="-104" on="1"/>
        <pt x="229" y="-81" on="0"/>
        <pt x="251" y="-62" on="0"/>
        <pt x="273" y="-62" on="1"/>
        <pt x="294" y="-62" on="0"/>
        <pt x="317" y="-81" on="0"/>
        <pt x="317" y="-104" on="1"/>
        <pt x="317" y="-144" on="0"/>
      </contour>
      <contour>
        <pt x="74" y="577" on="1"/>
        <pt x="443" y="577" on="1"/>
        <pt x="443" y="514" on="1"/>
        <pt x="151" y="514" on="1"/>
        <pt x="151" y="323" on="1"/>
        <pt x="417" y="323" on="1"/>
        <pt x="417" y="262" on="1"/>
        <pt x="151" y="262" on="1"/>
        <pt x="151" y="64" on="1"/>
        <pt x="450" y="64" on="1"/>
        <pt x="450" y="0" on="1"/>
        <pt x="74" y="0" on="1"/>
      </contour>
    </TTGlyph>
    <TTGlyph name="Egrave" xMin="78" yMin="0" xMax="502" yMax="936">
      <contour>
        <pt x="255" y="791" on="1"/>
        <pt x="159" y="936" on="1"/>
        <pt x="242" y="936" on="1"/>
        <pt x="317" y="804" on="1"/>
      </contour>
      <contour>
        <pt x="78" y="740" on="1"/>
        <pt x="493" y="740" on="1"/>
        <pt x="493" y="671" on="1"/>
        <pt x="158" y="671" on="1"/>
        <pt x="158" y="409" on="1"/>
        <pt x="463" y="409" on="1"/>
        <pt x="463" y="340" on="1"/>
        <pt x="158" y="340" on="1"/>
        <pt x="158" y="69" on="1"/>
        <pt x="502" y="69" on="1"/>
        <pt x="502" y="0" on="1"/>
        <pt x="78" y="0" on="1"/>
      </contour>
    </TTGlyph>
    <TTGlyph name="Egrave.sc" xMin="74" yMin="0" xMax="450" yMax="738">
      <contour>
        <pt x="74" y="577" on="1"/>
        <pt x="443" y="577" on="1"/>
        <pt x="443" y="514" on="1"/>
        <pt x="151" y="514" on="1"/>
        <pt x="151" y="323" on="1"/>
        <pt x="417" y="323" on="1"/>
        <pt x="417" y="262" on="1"/>
        <pt x="151" y="262" on="1"/>
        <pt x="151" y="64" on="1"/>
        <pt x="450" y="64" on="1"/>
        <pt x="450" y="0" on="1"/>
        <pt x="74" y="0" on="1"/>
      </contour>
      <contour>
        <pt x="147" y="738" on="1"/>
        <pt x="225" y="738" on="1"/>
        <pt x="289" y="628" on="1"/>
        <pt x="231" y="618" on="1"/>
      </contour>
    </TTGlyph>
    <TTGlyph name="Einvertedbreve" xMin="78" yMin="0" xMax="502" yMax="965">
      <contour>
        <pt x="78" y="740" on="1"/>
        <pt x="493" y="740" on="1"/>
        <pt x="493" y="671" on="1"/>
        <pt x="158" y="671" on="1"/>
        <pt x="158" y="409" on="1"/>
        <pt x="463" y="409" on="1"/>
        <pt x="463" y="340" on="1"/>
        <pt x="158" y="340" on="1"/>
        <pt x="158" y="69" on="1"/>
        <pt x="502" y="69" on="1"/>
        <pt x="502" y="0" on="1"/>
        <pt x="78" y="0" on="1"/>
      </contour>
      <contour>
        <pt x="385" y="819" on="1"/>
        <pt x="385" y="867" on="0"/>
        <pt x="335" y="917" on="0"/>
        <pt x="286" y="917" on="1"/>
        <pt x="236" y="917" on="0"/>
        <pt x="187" y="867" on="0"/>
        <pt x="187" y="819" on="1"/>
        <pt x="126" y="819" on="1"/>
        <pt x="126" y="887" on="0"/>
        <pt x="208" y="965" on="0"/>
        <pt x="286" y="965" on="1"/>
        <pt x="363" y="965" on="0"/>
        <pt x="446" y="887" on="0"/>
        <pt x="446" y="819" on="1"/>
      </contour>
    </TTGlyph>
    <TTGlyph name="Einvertedbreve.sc" xMin="74" yMin="0" xMax="450" yMax="756">
      <contour>
        <pt x="117" y="637" on="1"/>
        <pt x="117" y="692" on="0"/>
        <pt x="189" y="756" on="0"/>
        <pt x="260" y="756" on="1"/>
        <pt x="329" y="756" on="0"/>
        <pt x="402" y="693" on="0"/>
        <pt x="402" y="637" on="1"/>
        <pt x="345" y="637" on="1"/>
        <pt x="345" y="713" on="0"/>
        <pt x="260" y="713" on="1"/>
        <pt x="174" y="713" on="0"/>
        <pt x="174" y="637" on="1"/>
      </contour>
      <contour>
        <pt x="74" y="577" on="1"/>
        <pt x="443" y="577" on="1"/>
        <pt x="443" y="514" on="1"/>
        <pt x="151" y="514" on="1"/>
        <pt x="151" y="323" on="1"/>
        <pt x="417" y="323" on="1"/>
        <pt x="417" y="262" on="1"/>
        <pt x="151" y="262" on="1"/>
        <pt x="151" y="64" on="1"/>
        <pt x="450" y="64" on="1"/>
        <pt x="450" y="0" on="1"/>
        <pt x="74" y="0" on="1"/>
      </contour>
    </TTGlyph>
    <TTGlyph name="Emacron" xMin="78" yMin="0" xMax="502" yMax="901">
      <contour>
        <pt x="146" y="901" on="1"/>
        <pt x="416" y="901" on="1"/>
        <pt x="416" y="841" on="1"/>
        <pt x="146" y="841" on="1"/>
      </contour>
      <contour>
        <pt x="78" y="740" on="1"/>
        <pt x="493" y="740" on="1"/>
        <pt x="493" y="671" on="1"/>
        <pt x="158" y="671" on="1"/>
        <pt x="158" y="409" on="1"/>
        <pt x="463" y="409" on="1"/>
        <pt x="463" y="340" on="1"/>
        <pt x="158" y="340" on="1"/>
        <pt x="158" y="69" on="1"/>
        <pt x="502" y="69" on="1"/>
        <pt x="502" y="0" on="1"/>
        <pt x="78" y="0" on="1"/>
      </contour>
    </TTGlyph>
    <TTGlyph name="Emacron.sc" xMin="74" yMin="0" xMax="450" yMax="711">
      <contour>
        <pt x="74" y="577" on="1"/>
        <pt x="443" y="577" on="1"/>
        <pt x="443" y="514" on="1"/>
        <pt x="151" y="514" on="1"/>
        <pt x="151" y="323" on="1"/>
        <pt x="417" y="323" on="1"/>
        <pt x="417" y="262" on="1"/>
        <pt x="151" y="262" on="1"/>
        <pt x="151" y="64" on="1"/>
        <pt x="450" y="64" on="1"/>
        <pt x="450" y="0" on="1"/>
        <pt x="74" y="0" on="1"/>
      </contour>
      <contour>
        <pt x="134" y="711" on="1"/>
        <pt x="377" y="711" on="1"/>
        <pt x="377" y="656" on="1"/>
        <pt x="134" y="656" on="1"/>
      </contour>
    </TTGlyph>
    <TTGlyph name="Eng" xMin="78" yMin="-187" xMax="617" yMax="740">
      <contour>
        <pt x="463" y="-170" on="1"/>
        <pt x="486" y="-121" on="0"/>
        <pt x="522" y="-22" on="0"/>
        <pt x="530" y="21" on="1"/>
        <pt x="208" y="520" on="1"/>
        <pt x="158" y="607" on="1"/>
        <pt x="152" y="606" on="1"/>
        <pt x="152" y="0" on="1"/>
        <pt x="78" y="0" on="1"/>
        <pt x="78" y="740" on="1"/>
        <pt x="150" y="740" on="1"/>
        <pt x="488" y="218" on="1"/>
        <pt x="537" y="133" on="1"/>
        <pt x="543" y="133" on="1"/>
        <pt x="543" y="740" on="1"/>
        <pt x="617" y="740" on="1"/>
        <pt x="617" y="75" on="1"/>
        <pt x="617" y="50" on="0"/>
        <pt x="602" y="-15" on="0"/>
        <pt x="576" y="-86" on="0"/>
        <pt x="541" y="-157" on="0"/>
        <pt x="521" y="-187" on="1"/>
      </contour>
    </TTGlyph>
    <TTGlyph name="Eng.sc" xMin="75" yMin="-149" xMax="548" yMax="577">
      <contour>
        <pt x="411" y="-133" on="1"/>
        <pt x="431" y="-93" on="0"/>
        <pt x="461" y="-14" on="0"/>
        <pt x="468" y="20" on="1"/>
        <pt x="194" y="384" on="1"/>
        <pt x="150" y="451" on="1"/>
        <pt x="145" y="451" on="1"/>
        <pt x="145" y="0" on="1"/>
        <pt x="75" y="0" on="1"/>
        <pt x="75" y="577" on="1"/>
        <pt x="142" y="577" on="1"/>
        <pt x="430" y="192" on="1"/>
        <pt x="473" y="125" on="1"/>
        <pt x="478" y="126" on="1"/>
        <pt x="478" y="577" on="1"/>
        <pt x="548" y="577" on="1"/>
        <pt x="548" y="65" on="1"/>
        <pt x="548" y="45" on="0"/>
        <pt x="535" y="-8" on="0"/>
        <pt x="513" y="-66" on="0"/>
        <pt x="482" y="-124" on="0"/>
        <pt x="464" y="-149" on="1"/>
      </contour>
    </TTGlyph>
    <TTGlyph name="Eogonek" xMin="78" yMin="-220" xMax="502" yMax="740">
      <contour>
        <pt x="78" y="740" on="1"/>
        <pt x="493" y="740" on="1"/>
        <pt x="493" y="671" on="1"/>
        <pt x="158" y="671" on="1"/>
        <pt x="158" y="409" on="1"/>
        <pt x="463" y="409" on="1"/>
        <pt x="463" y="340" on="1"/>
        <pt x="158" y="340" on="1"/>
        <pt x="158" y="69" on="1"/>
        <pt x="502" y="69" on="1"/>
        <pt x="502" y="-16" on="1"/>
        <pt x="450" y="-39" on="0"/>
        <pt x="400" y="-97" on="0"/>
        <pt x="400" y="-128" on="1"/>
        <pt x="400" y="-166" on="0"/>
        <pt x="445" y="-166" on="1"/>
        <pt x="474" y="-166" on="0"/>
        <pt x="501" y="-155" on="1"/>
        <pt x="501" y="-208" on="1"/>
        <pt x="472" y="-220" on="0"/>
        <pt x="439" y="-220" on="1"/>
        <pt x="341" y="-220" on="0"/>
        <pt x="341" y="-133" on="1"/>
        <pt x="341" y="-95" on="0"/>
        <pt x="387" y="-31" on="0"/>
        <pt x="436" y="0" on="1"/>
        <pt x="78" y="0" on="1"/>
      </contour>
    </TTGlyph>
    <TTGlyph name="Eogonek.sc" xMin="75" yMin="-172" xMax="450" yMax="577">
      <contour>
        <pt x="394" y="-172" on="1"/>
        <pt x="306" y="-172" on="0"/>
        <pt x="306" y="-103" on="1"/>
        <pt x="306" y="-73" on="0"/>
        <pt x="344" y="-25" on="0"/>
        <pt x="386" y="0" on="1"/>
        <pt x="75" y="0" on="1"/>
        <pt x="75" y="577" on="1"/>
        <pt x="443" y="577" on="1"/>
        <pt x="443" y="514" on="1"/>
        <pt x="151" y="514" on="1"/>
        <pt x="151" y="323" on="1"/>
        <pt x="417" y="323" on="1"/>
        <pt x="417" y="262" on="1"/>
        <pt x="151" y="262" on="1"/>
        <pt x="151" y="64" on="1"/>
        <pt x="450" y="64" on="1"/>
        <pt x="450" y="-11" on="1"/>
        <pt x="405" y="-28" on="0"/>
        <pt x="362" y="-73" on="0"/>
        <pt x="362" y="-96" on="1"/>
        <pt x="362" y="-124" on="0"/>
        <pt x="399" y="-124" on="1"/>
        <pt x="412" y="-124" on="0"/>
        <pt x="439" y="-119" on="0"/>
        <pt x="450" y="-115" on="1"/>
        <pt x="450" y="-162" on="1"/>
        <pt x="436" y="-167" on="0"/>
        <pt x="409" y="-172" on="0"/>
      </contour>
    </TTGlyph>
    <TTGlyph name="Eth" xMin="1" yMin="-14" xMax="601" yMax="750">
      <contour>
        <pt x="1" y="402" on="1"/>
        <pt x="91" y="402" on="1"/>
        <pt x="91" y="735" on="1"/>
        <pt x="142" y="743" on="0"/>
        <pt x="231" y="750" on="0"/>
        <pt x="266" y="750" on="1"/>
        <pt x="440" y="750" on="0"/>
        <pt x="601" y="566" on="0"/>
        <pt x="601" y="369" on="1"/>
        <pt x="601" y="268" on="0"/>
        <pt x="559" y="124" on="0"/>
        <pt x="470" y="30" on="0"/>
        <pt x="333" y="-14" on="0"/>
        <pt x="238" y="-14" on="1"/>
        <pt x="199" y="-14" on="0"/>
        <pt x="125" y="-9" on="0"/>
        <pt x="91" y="-4" on="1"/>
        <pt x="91" y="337" on="1"/>
        <pt x="1" y="337" on="1"/>
      </contour>
      <contour>
        <pt x="260" y="55" on="1"/>
        <pt x="393" y="55" on="0"/>
        <pt x="518" y="205" on="0"/>
        <pt x="518" y="369" on="1"/>
        <pt x="518" y="452" on="0"/>
        <pt x="490" y="570" on="0"/>
        <pt x="431" y="646" on="0"/>
        <pt x="338" y="681" on="0"/>
        <pt x="273" y="681" on="1"/>
        <pt x="248" y="681" on="0"/>
        <pt x="195" y="677" on="0"/>
        <pt x="171" y="673" on="1"/>
        <pt x="171" y="402" on="1"/>
        <pt x="324" y="402" on="1"/>
        <pt x="324" y="337" on="1"/>
        <pt x="171" y="337" on="1"/>
        <pt x="171" y="61" on="1"/>
        <pt x="198" y="58" on="0"/>
        <pt x="239" y="55" on="0"/>
      </contour>
    </TTGlyph>
    <TTGlyph name="Eth.sc" xMin="8" yMin="-11" xMax="539" yMax="585">
      <contour>
        <pt x="8" y="319" on="1"/>
        <pt x="85" y="319" on="1"/>
        <pt x="85" y="574" on="1"/>
        <pt x="130" y="579" on="0"/>
        <pt x="211" y="585" on="0"/>
        <pt x="242" y="585" on="1"/>
        <pt x="397" y="585" on="0"/>
        <pt x="539" y="443" on="0"/>
        <pt x="539" y="288" on="1"/>
        <pt x="539" y="209" on="0"/>
        <pt x="502" y="96" on="0"/>
        <pt x="424" y="23" on="0"/>
        <pt x="303" y="-11" on="0"/>
        <pt x="218" y="-11" on="1"/>
        <pt x="183" y="-11" on="0"/>
        <pt x="115" y="-7" on="0"/>
        <pt x="85" y="-2" on="1"/>
        <pt x="85" y="258" on="1"/>
        <pt x="8" y="258" on="1"/>
      </contour>
      <contour>
        <pt x="241" y="54" on="1"/>
        <pt x="354" y="54" on="0"/>
        <pt x="460" y="164" on="0"/>
        <pt x="460" y="288" on="1"/>
        <pt x="460" y="351" on="0"/>
        <pt x="436" y="439" on="0"/>
        <pt x="385" y="494" on="0"/>
        <pt x="305" y="520" on="0"/>
        <pt x="249" y="520" on="1"/>
        <pt x="229" y="520" on="0"/>
        <pt x="183" y="517" on="0"/>
        <pt x="162" y="514" on="1"/>
        <pt x="162" y="319" on="1"/>
        <pt x="292" y="319" on="1"/>
        <pt x="292" y="258" on="1"/>
        <pt x="162" y="258" on="1"/>
        <pt x="162" y="59" on="1"/>
        <pt x="185" y="57" on="0"/>
        <pt x="222" y="54" on="0"/>
      </contour>
    </TTGlyph>
    <TTGlyph name="Etilde" xMin="78" yMin="0" xMax="502" yMax="923">
      <contour>
        <pt x="118" y="851" on="1"/>
        <pt x="140" y="883" on="0"/>
        <pt x="198" y="923" on="0"/>
        <pt x="227" y="923" on="1"/>
        <pt x="248" y="923" on="0"/>
        <pt x="283" y="910" on="0"/>
        <pt x="317" y="894" on="0"/>
        <pt x="351" y="881" on="0"/>
        <pt x="370" y="881" on="1"/>
        <pt x="406" y="881" on="0"/>
        <pt x="438" y="920" on="1"/>
        <pt x="464" y="898" on="1"/>
        <pt x="445" y="863" on="0"/>
        <pt x="385" y="823" on="0"/>
        <pt x="355" y="823" on="1"/>
        <pt x="335" y="823" on="0"/>
        <pt x="300" y="836" on="0"/>
        <pt x="266" y="851" on="0"/>
        <pt x="232" y="864" on="0"/>
        <pt x="214" y="864" on="1"/>
        <pt x="177" y="864" on="0"/>
        <pt x="141" y="826" on="1"/>
      </contour>
      <contour>
        <pt x="78" y="740" on="1"/>
        <pt x="493" y="740" on="1"/>
        <pt x="493" y="671" on="1"/>
        <pt x="158" y="671" on="1"/>
        <pt x="158" y="409" on="1"/>
        <pt x="463" y="409" on="1"/>
        <pt x="463" y="340" on="1"/>
        <pt x="158" y="340" on="1"/>
        <pt x="158" y="69" on="1"/>
        <pt x="502" y="69" on="1"/>
        <pt x="502" y="0" on="1"/>
        <pt x="78" y="0" on="1"/>
      </contour>
    </TTGlyph>
    <TTGlyph name="Etilde.sc" xMin="74" yMin="0" xMax="450" yMax="727">
      <contour>
        <pt x="110" y="664" on="1"/>
        <pt x="130" y="693" on="0"/>
        <pt x="183" y="727" on="0"/>
        <pt x="209" y="727" on="1"/>
        <pt x="227" y="727" on="0"/>
        <pt x="258" y="717" on="0"/>
        <pt x="288" y="705" on="0"/>
        <pt x="318" y="695" on="0"/>
        <pt x="335" y="695" on="1"/>
        <pt x="369" y="695" on="0"/>
        <pt x="397" y="726" on="1"/>
        <pt x="419" y="707" on="1"/>
        <pt x="402" y="675" on="0"/>
        <pt x="347" y="641" on="0"/>
        <pt x="321" y="641" on="1"/>
        <pt x="304" y="641" on="0"/>
        <pt x="272" y="651" on="0"/>
        <pt x="242" y="664" on="0"/>
        <pt x="211" y="674" on="0"/>
        <pt x="195" y="674" on="1"/>
        <pt x="160" y="674" on="0"/>
        <pt x="130" y="643" on="1"/>
      </contour>
      <contour>
        <pt x="74" y="577" on="1"/>
        <pt x="443" y="577" on="1"/>
        <pt x="443" y="514" on="1"/>
        <pt x="151" y="514" on="1"/>
        <pt x="151" y="323" on="1"/>
        <pt x="417" y="323" on="1"/>
        <pt x="417" y="262" on="1"/>
        <pt x="151" y="262" on="1"/>
        <pt x="151" y="64" on="1"/>
        <pt x="450" y="64" on="1"/>
        <pt x="450" y="0" on="1"/>
        <pt x="74" y="0" on="1"/>
      </contour>
    </TTGlyph>
    <TTGlyph name="Euro" xMin="39" yMin="-10" xMax="515" yMax="749">
      <contour>
        <pt x="39" y="481" on="1"/>
        <pt x="121" y="481" on="1"/>
        <pt x="140" y="621" on="0"/>
        <pt x="290" y="749" on="0"/>
        <pt x="432" y="749" on="1"/>
        <pt x="459" y="749" on="0"/>
        <pt x="497" y="745" on="0"/>
        <pt x="515" y="742" on="1"/>
        <pt x="493" y="674" on="1"/>
        <pt x="482" y="676" on="0"/>
        <pt x="458" y="678" on="0"/>
        <pt x="442" y="678" on="1"/>
        <pt x="386" y="678" on="0"/>
        <pt x="303" y="657" on="0"/>
        <pt x="246" y="610" on="0"/>
        <pt x="211" y="535" on="0"/>
        <pt x="203" y="481" on="1"/>
        <pt x="440" y="481" on="1"/>
        <pt x="421" y="427" on="1"/>
        <pt x="197" y="427" on="1"/>
        <pt x="196" y="413" on="0"/>
        <pt x="196" y="384" on="0"/>
        <pt x="196" y="369" on="1"/>
        <pt x="196" y="354" on="0"/>
        <pt x="196" y="326" on="0"/>
        <pt x="197" y="313" on="1"/>
        <pt x="407" y="313" on="1"/>
        <pt x="387" y="259" on="1"/>
        <pt x="203" y="259" on="1"/>
        <pt x="219" y="154" on="0"/>
        <pt x="330" y="60" on="0"/>
        <pt x="439" y="60" on="1"/>
        <pt x="453" y="60" on="0"/>
        <pt x="486" y="64" on="0"/>
        <pt x="504" y="67" on="1"/>
        <pt x="504" y="-4" on="1"/>
        <pt x="477" y="-10" on="0"/>
        <pt x="433" y="-10" on="1"/>
        <pt x="293" y="-8" on="0"/>
        <pt x="141" y="121" on="0"/>
        <pt x="121" y="259" on="1"/>
        <pt x="39" y="259" on="1"/>
        <pt x="39" y="313" on="1"/>
        <pt x="115" y="313" on="1"/>
        <pt x="114" y="327" on="0"/>
        <pt x="114" y="354" on="0"/>
        <pt x="114" y="369" on="1"/>
        <pt x="114" y="384" on="0"/>
        <pt x="114" y="413" on="0"/>
        <pt x="115" y="427" on="1"/>
        <pt x="39" y="427" on="1"/>
      </contour>
    </TTGlyph>
    <TTGlyph name="Euro.tab" xMin="29" yMin="-10" xMax="502" yMax="749">
      <contour>
        <pt x="29" y="481" on="1"/>
        <pt x="110" y="481" on="1"/>
        <pt x="120" y="551" on="0"/>
        <pt x="166" y="653" on="0"/>
        <pt x="242" y="718" on="0"/>
        <pt x="348" y="749" on="0"/>
        <pt x="418" y="749" on="1"/>
        <pt x="446" y="749" on="0"/>
        <pt x="484" y="745" on="0"/>
        <pt x="502" y="742" on="1"/>
        <pt x="480" y="674" on="1"/>
        <pt x="469" y="676" on="0"/>
        <pt x="445" y="678" on="0"/>
        <pt x="429" y="678" on="1"/>
        <pt x="375" y="678" on="0"/>
        <pt x="293" y="656" on="0"/>
        <pt x="235" y="609" on="0"/>
        <pt x="200" y="534" on="0"/>
        <pt x="193" y="481" on="1"/>
        <pt x="427" y="481" on="1"/>
        <pt x="409" y="427" on="1"/>
        <pt x="186" y="427" on="1"/>
        <pt x="184" y="415" on="0"/>
        <pt x="184" y="383" on="0"/>
        <pt x="184" y="369" on="1"/>
        <pt x="184" y="356" on="0"/>
        <pt x="184" y="324" on="0"/>
        <pt x="186" y="313" on="1"/>
        <pt x="394" y="313" on="1"/>
        <pt x="375" y="259" on="1"/>
        <pt x="193" y="259" on="1"/>
        <pt x="209" y="154" on="0"/>
        <pt x="320" y="60" on="0"/>
        <pt x="426" y="60" on="1"/>
        <pt x="439" y="60" on="0"/>
        <pt x="473" y="64" on="0"/>
        <pt x="490" y="67" on="1"/>
        <pt x="490" y="-4" on="1"/>
        <pt x="464" y="-10" on="0"/>
        <pt x="420" y="-10" on="1"/>
        <pt x="281" y="-9" on="0"/>
        <pt x="130" y="121" on="0"/>
        <pt x="110" y="259" on="1"/>
        <pt x="29" y="259" on="1"/>
        <pt x="29" y="313" on="1"/>
        <pt x="104" y="313" on="1"/>
        <pt x="103" y="326" on="0"/>
        <pt x="102" y="355" on="0"/>
        <pt x="102" y="369" on="1"/>
        <pt x="102" y="384" on="0"/>
        <pt x="103" y="413" on="0"/>
        <pt x="104" y="427" on="1"/>
        <pt x="29" y="427" on="1"/>
      </contour>
    </TTGlyph>
    <TTGlyph name="F" xMin="78" yMin="0" xMax="480" yMax="740">
      <contour>
        <pt x="78" y="740" on="1"/>
        <pt x="480" y="740" on="1"/>
        <pt x="480" y="671" on="1"/>
        <pt x="158" y="671" on="1"/>
        <pt x="158" y="403" on="1"/>
        <pt x="455" y="403" on="1"/>
        <pt x="455" y="334" on="1"/>
        <pt x="158" y="334" on="1"/>
        <pt x="158" y="0" on="1"/>
        <pt x="78" y="0" on="1"/>
      </contour>
    </TTGlyph>
    <TTGlyph name="F.sc" xMin="74" yMin="0" xMax="433" yMax="577">
      <contour>
        <pt x="74" y="577" on="1"/>
        <pt x="433" y="577" on="1"/>
        <pt x="433" y="512" on="1"/>
        <pt x="151" y="512" on="1"/>
        <pt x="151" y="317" on="1"/>
        <pt x="410" y="317" on="1"/>
        <pt x="410" y="253" on="1"/>
        <pt x="151" y="253" on="1"/>
        <pt x="151" y="0" on="1"/>
        <pt x="74" y="0" on="1"/>
      </contour>
    </TTGlyph>
    <TTGlyph name="F_B.sc" xMin="74" yMin="-8" xMax="944" yMax="585">
      <contour>
        <pt x="74" y="577" on="1"/>
        <pt x="433" y="577" on="1"/>
        <pt x="433" y="512" on="1"/>
        <pt x="151" y="512" on="1"/>
        <pt x="151" y="317" on="1"/>
        <pt x="410" y="317" on="1"/>
        <pt x="410" y="253" on="1"/>
        <pt x="151" y="253" on="1"/>
        <pt x="151" y="0" on="1"/>
        <pt x="74" y="0" on="1"/>
      </contour>
      <contour>
        <pt x="709" y="-8" on="1"/>
        <pt x="666" y="-8" on="0"/>
        <pt x="566" y="-1" on="0"/>
        <pt x="526" y="4" on="1"/>
        <pt x="526" y="574" on="1"/>
        <pt x="585" y="580" on="0"/>
        <pt x="663" y="585" on="0"/>
        <pt x="700" y="585" on="1"/>
        <pt x="818" y="585" on="0"/>
        <pt x="924" y="509" on="0"/>
        <pt x="924" y="427" on="1"/>
        <pt x="924" y="374" on="0"/>
        <pt x="870" y="307" on="0"/>
        <pt x="819" y="297" on="1"/>
        <pt x="819" y="294" on="1"/>
        <pt x="879" y="284" on="0"/>
        <pt x="944" y="212" on="0"/>
        <pt x="944" y="153" on="1"/>
        <pt x="944" y="-8" on="0"/>
      </contour>
      <contour>
        <pt x="715" y="51" on="1"/>
        <pt x="867" y="51" on="0"/>
        <pt x="867" y="158" on="1"/>
        <pt x="867" y="214" on="0"/>
        <pt x="794" y="264" on="0"/>
        <pt x="710" y="264" on="1"/>
        <pt x="599" y="264" on="1"/>
        <pt x="599" y="57" on="1"/>
        <pt x="614" y="55" on="0"/>
        <pt x="679" y="51" on="0"/>
      </contour>
      <contour>
        <pt x="708" y="319" on="1"/>
        <pt x="785" y="319" on="0"/>
        <pt x="847" y="366" on="0"/>
        <pt x="847" y="423" on="1"/>
        <pt x="847" y="477" on="0"/>
        <pt x="781" y="525" on="0"/>
        <pt x="706" y="525" on="1"/>
        <pt x="676" y="525" on="0"/>
        <pt x="625" y="522" on="0"/>
        <pt x="599" y="519" on="1"/>
        <pt x="599" y="319" on="1"/>
      </contour>
    </TTGlyph>
    <TTGlyph name="F_F.sc" xMin="74" yMin="0" xMax="884" yMax="577">
      <contour>
        <pt x="74" y="577" on="1"/>
        <pt x="433" y="577" on="1"/>
        <pt x="433" y="512" on="1"/>
        <pt x="151" y="512" on="1"/>
        <pt x="151" y="317" on="1"/>
        <pt x="410" y="317" on="1"/>
        <pt x="410" y="253" on="1"/>
        <pt x="151" y="253" on="1"/>
        <pt x="151" y="0" on="1"/>
        <pt x="74" y="0" on="1"/>
      </contour>
      <contour>
        <pt x="525" y="577" on="1"/>
        <pt x="884" y="577" on="1"/>
        <pt x="884" y="512" on="1"/>
        <pt x="602" y="512" on="1"/>
        <pt x="602" y="317" on="1"/>
        <pt x="861" y="317" on="1"/>
        <pt x="861" y="253" on="1"/>
        <pt x="602" y="253" on="1"/>
        <pt x="602" y="0" on="1"/>
        <pt x="525" y="0" on="1"/>
      </contour>
    </TTGlyph>
    <TTGlyph name="F_F_B.sc" xMin="74" yMin="-8" xMax="1395" yMax="585">
      <contour>
        <pt x="74" y="577" on="1"/>
        <pt x="433" y="577" on="1"/>
        <pt x="433" y="512" on="1"/>
        <pt x="151" y="512" on="1"/>
        <pt x="151" y="317" on="1"/>
        <pt x="410" y="317" on="1"/>
        <pt x="410" y="253" on="1"/>
        <pt x="151" y="253" on="1"/>
        <pt x="151" y="0" on="1"/>
        <pt x="74" y="0" on="1"/>
      </contour>
      <contour>
        <pt x="525" y="577" on="1"/>
        <pt x="884" y="577" on="1"/>
        <pt x="884" y="512" on="1"/>
        <pt x="602" y="512" on="1"/>
        <pt x="602" y="317" on="1"/>
        <pt x="861" y="317" on="1"/>
        <pt x="861" y="253" on="1"/>
        <pt x="602" y="253" on="1"/>
        <pt x="602" y="0" on="1"/>
        <pt x="525" y="0" on="1"/>
      </contour>
      <contour>
        <pt x="1160" y="-8" on="1"/>
        <pt x="1117" y="-8" on="0"/>
        <pt x="1017" y="-1" on="0"/>
        <pt x="977" y="4" on="1"/>
        <pt x="977" y="574" on="1"/>
        <pt x="1036" y="580" on="0"/>
        <pt x="1114" y="585" on="0"/>
        <pt x="1151" y="585" on="1"/>
        <pt x="1269" y="585" on="0"/>
        <pt x="1375" y="509" on="0"/>
        <pt x="1375" y="427" on="1"/>
        <pt x="1375" y="374" on="0"/>
        <pt x="1321" y="307" on="0"/>
        <pt x="1270" y="297" on="1"/>
        <pt x="1270" y="294" on="1"/>
        <pt x="1330" y="284" on="0"/>
        <pt x="1395" y="212" on="0"/>
        <pt x="1395" y="153" on="1"/>
        <pt x="1395" y="-8" on="0"/>
      </contour>
      <contour>
        <pt x="1166" y="51" on="1"/>
        <pt x="1318" y="51" on="0"/>
        <pt x="1318" y="158" on="1"/>
        <pt x="1318" y="214" on="0"/>
        <pt x="1245" y="264" on="0"/>
        <pt x="1161" y="264" on="1"/>
        <pt x="1050" y="264" on="1"/>
        <pt x="1050" y="57" on="1"/>
        <pt x="1065" y="55" on="0"/>
        <pt x="1130" y="51" on="0"/>
      </contour>
      <contour>
        <pt x="1159" y="319" on="1"/>
        <pt x="1236" y="319" on="0"/>
        <pt x="1298" y="366" on="0"/>
        <pt x="1298" y="423" on="1"/>
        <pt x="1298" y="477" on="0"/>
        <pt x="1232" y="525" on="0"/>
        <pt x="1157" y="525" on="1"/>
        <pt x="1127" y="525" on="0"/>
        <pt x="1076" y="522" on="0"/>
        <pt x="1050" y="519" on="1"/>
        <pt x="1050" y="319" on="1"/>
      </contour>
    </TTGlyph>
    <TTGlyph name="F_F_H.sc" xMin="74" yMin="0" xMax="1435" yMax="577">
      <contour>
        <pt x="74" y="577" on="1"/>
        <pt x="433" y="577" on="1"/>
        <pt x="433" y="512" on="1"/>
        <pt x="151" y="512" on="1"/>
        <pt x="151" y="317" on="1"/>
        <pt x="410" y="317" on="1"/>
        <pt x="410" y="253" on="1"/>
        <pt x="151" y="253" on="1"/>
        <pt x="151" y="0" on="1"/>
        <pt x="74" y="0" on="1"/>
      </contour>
      <contour>
        <pt x="525" y="577" on="1"/>
        <pt x="884" y="577" on="1"/>
        <pt x="884" y="512" on="1"/>
        <pt x="602" y="512" on="1"/>
        <pt x="602" y="317" on="1"/>
        <pt x="861" y="317" on="1"/>
        <pt x="861" y="253" on="1"/>
        <pt x="602" y="253" on="1"/>
        <pt x="602" y="0" on="1"/>
        <pt x="525" y="0" on="1"/>
      </contour>
      <contour>
        <pt x="976" y="577" on="1"/>
        <pt x="1053" y="577" on="1"/>
        <pt x="1053" y="328" on="1"/>
        <pt x="1358" y="328" on="1"/>
        <pt x="1358" y="577" on="1"/>
        <pt x="1435" y="577" on="1"/>
        <pt x="1435" y="0" on="1"/>
        <pt x="1358" y="0" on="1"/>
        <pt x="1358" y="263" on="1"/>
        <pt x="1053" y="263" on="1"/>
        <pt x="1053" y="0" on="1"/>
        <pt x="976" y="0" on="1"/>
      </contour>
    </TTGlyph>
    <TTGlyph name="F_F_I.sc" xMin="74" yMin="0" xMax="1053" yMax="577">
      <contour>
        <pt x="74" y="577" on="1"/>
        <pt x="433" y="577" on="1"/>
        <pt x="433" y="512" on="1"/>
        <pt x="151" y="512" on="1"/>
        <pt x="151" y="317" on="1"/>
        <pt x="410" y="317" on="1"/>
        <pt x="410" y="253" on="1"/>
        <pt x="151" y="253" on="1"/>
        <pt x="151" y="0" on="1"/>
        <pt x="74" y="0" on="1"/>
      </contour>
      <contour>
        <pt x="525" y="577" on="1"/>
        <pt x="884" y="577" on="1"/>
        <pt x="884" y="512" on="1"/>
        <pt x="602" y="512" on="1"/>
        <pt x="602" y="317" on="1"/>
        <pt x="861" y="317" on="1"/>
        <pt x="861" y="253" on="1"/>
        <pt x="602" y="253" on="1"/>
        <pt x="602" y="0" on="1"/>
        <pt x="525" y="0" on="1"/>
      </contour>
      <contour>
        <pt x="976" y="577" on="1"/>
        <pt x="1053" y="577" on="1"/>
        <pt x="1053" y="0" on="1"/>
        <pt x="976" y="0" on="1"/>
      </contour>
    </TTGlyph>
    <TTGlyph name="F_F_J.sc" xMin="74" yMin="-149" xMax="1065" yMax="577">
      <contour>
        <pt x="74" y="577" on="1"/>
        <pt x="433" y="577" on="1"/>
        <pt x="433" y="512" on="1"/>
        <pt x="151" y="512" on="1"/>
        <pt x="151" y="317" on="1"/>
        <pt x="410" y="317" on="1"/>
        <pt x="410" y="253" on="1"/>
        <pt x="151" y="253" on="1"/>
        <pt x="151" y="0" on="1"/>
        <pt x="74" y="0" on="1"/>
      </contour>
      <contour>
        <pt x="525" y="577" on="1"/>
        <pt x="884" y="577" on="1"/>
        <pt x="884" y="512" on="1"/>
        <pt x="602" y="512" on="1"/>
        <pt x="602" y="317" on="1"/>
        <pt x="861" y="317" on="1"/>
        <pt x="861" y="253" on="1"/>
        <pt x="602" y="253" on="1"/>
        <pt x="602" y="0" on="1"/>
        <pt x="525" y="0" on="1"/>
      </contour>
      <contour>
        <pt x="919" y="-124" on="1"/>
        <pt x="940" y="-84" on="0"/>
        <pt x="966" y="-19" on="0"/>
        <pt x="982" y="42" on="0"/>
        <pt x="988" y="107" on="0"/>
        <pt x="988" y="146" on="1"/>
        <pt x="988" y="577" on="1"/>
        <pt x="1065" y="577" on="1"/>
        <pt x="1065" y="140" on="1"/>
        <pt x="1065" y="102" on="0"/>
        <pt x="1055" y="33" on="0"/>
        <pt x="1032" y="-36" on="0"/>
        <pt x="996" y="-109" on="0"/>
        <pt x="970" y="-149" on="1"/>
      </contour>
    </TTGlyph>
    <TTGlyph name="F_F_K.sc" xMin="74" yMin="0" xMax="1434" yMax="577">
      <contour>
        <pt x="74" y="577" on="1"/>
        <pt x="433" y="577" on="1"/>
        <pt x="433" y="512" on="1"/>
        <pt x="151" y="512" on="1"/>
        <pt x="151" y="317" on="1"/>
        <pt x="410" y="317" on="1"/>
        <pt x="410" y="253" on="1"/>
        <pt x="151" y="253" on="1"/>
        <pt x="151" y="0" on="1"/>
        <pt x="74" y="0" on="1"/>
      </contour>
      <contour>
        <pt x="525" y="577" on="1"/>
        <pt x="884" y="577" on="1"/>
        <pt x="884" y="512" on="1"/>
        <pt x="602" y="512" on="1"/>
        <pt x="602" y="317" on="1"/>
        <pt x="861" y="317" on="1"/>
        <pt x="861" y="253" on="1"/>
        <pt x="602" y="253" on="1"/>
        <pt x="602" y="0" on="1"/>
        <pt x="525" y="0" on="1"/>
      </contour>
      <contour>
        <pt x="976" y="577" on="1"/>
        <pt x="1053" y="577" on="1"/>
        <pt x="1053" y="326" on="1"/>
        <pt x="1144" y="326" on="1"/>
        <pt x="1330" y="577" on="1"/>
        <pt x="1418" y="577" on="1"/>
        <pt x="1228" y="318" on="1"/>
        <pt x="1194" y="298" on="1"/>
        <pt x="1194" y="293" on="1"/>
        <pt x="1229" y="274" on="1"/>
        <pt x="1434" y="0" on="1"/>
        <pt x="1347" y="0" on="1"/>
        <pt x="1148" y="261" on="1"/>
        <pt x="1053" y="261" on="1"/>
        <pt x="1053" y="0" on="1"/>
        <pt x="976" y="0" on="1"/>
      </contour>
    </TTGlyph>
    <TTGlyph name="F_F_L.sc" xMin="74" yMin="0" xMax="1298" yMax="577">
      <contour>
        <pt x="976" y="577" on="1"/>
        <pt x="1053" y="577" on="1"/>
        <pt x="1053" y="65" on="1"/>
        <pt x="1298" y="65" on="1"/>
        <pt x="1298" y="0" on="1"/>
        <pt x="976" y="0" on="1"/>
      </contour>
      <contour>
        <pt x="74" y="577" on="1"/>
        <pt x="433" y="577" on="1"/>
        <pt x="433" y="512" on="1"/>
        <pt x="151" y="512" on="1"/>
        <pt x="151" y="317" on="1"/>
        <pt x="410" y="317" on="1"/>
        <pt x="410" y="253" on="1"/>
        <pt x="151" y="253" on="1"/>
        <pt x="151" y="0" on="1"/>
        <pt x="74" y="0" on="1"/>
      </contour>
      <contour>
        <pt x="525" y="577" on="1"/>
        <pt x="884" y="577" on="1"/>
        <pt x="884" y="512" on="1"/>
        <pt x="602" y="512" on="1"/>
        <pt x="602" y="317" on="1"/>
        <pt x="861" y="317" on="1"/>
        <pt x="861" y="253" on="1"/>
        <pt x="602" y="253" on="1"/>
        <pt x="602" y="0" on="1"/>
        <pt x="525" y="0" on="1"/>
      </contour>
    </TTGlyph>
    <TTGlyph name="F_F_T.sc" xMin="74" yMin="0" xMax="1335" yMax="577">
      <contour>
        <pt x="1081" y="511" on="1"/>
        <pt x="903" y="511" on="1"/>
        <pt x="903" y="577" on="1"/>
        <pt x="1335" y="577" on="1"/>
        <pt x="1335" y="511" on="1"/>
        <pt x="1157" y="511" on="1"/>
        <pt x="1157" y="0" on="1"/>
        <pt x="1081" y="0" on="1"/>
      </contour>
      <contour>
        <pt x="74" y="577" on="1"/>
        <pt x="433" y="577" on="1"/>
        <pt x="433" y="512" on="1"/>
        <pt x="151" y="512" on="1"/>
        <pt x="151" y="317" on="1"/>
        <pt x="410" y="317" on="1"/>
        <pt x="410" y="253" on="1"/>
        <pt x="151" y="253" on="1"/>
        <pt x="151" y="0" on="1"/>
        <pt x="74" y="0" on="1"/>
      </contour>
      <contour>
        <pt x="525" y="577" on="1"/>
        <pt x="884" y="577" on="1"/>
        <pt x="884" y="512" on="1"/>
        <pt x="602" y="512" on="1"/>
        <pt x="602" y="317" on="1"/>
        <pt x="861" y="317" on="1"/>
        <pt x="861" y="253" on="1"/>
        <pt x="602" y="253" on="1"/>
        <pt x="602" y="0" on="1"/>
        <pt x="525" y="0" on="1"/>
      </contour>
    </TTGlyph>
    <TTGlyph name="F_H.sc" xMin="74" yMin="0" xMax="984" yMax="577">
      <contour>
        <pt x="74" y="577" on="1"/>
        <pt x="433" y="577" on="1"/>
        <pt x="433" y="512" on="1"/>
        <pt x="151" y="512" on="1"/>
        <pt x="151" y="317" on="1"/>
        <pt x="410" y="317" on="1"/>
        <pt x="410" y="253" on="1"/>
        <pt x="151" y="253" on="1"/>
        <pt x="151" y="0" on="1"/>
        <pt x="74" y="0" on="1"/>
      </contour>
      <contour>
        <pt x="525" y="577" on="1"/>
        <pt x="602" y="577" on="1"/>
        <pt x="602" y="328" on="1"/>
        <pt x="907" y="328" on="1"/>
        <pt x="907" y="577" on="1"/>
        <pt x="984" y="577" on="1"/>
        <pt x="984" y="0" on="1"/>
        <pt x="907" y="0" on="1"/>
        <pt x="907" y="263" on="1"/>
        <pt x="602" y="263" on="1"/>
        <pt x="602" y="0" on="1"/>
        <pt x="525" y="0" on="1"/>
      </contour>
    </TTGlyph>
    <TTGlyph name="F_I.sc" xMin="74" yMin="0" xMax="602" yMax="577">
      <contour>
        <pt x="74" y="577" on="1"/>
        <pt x="433" y="577" on="1"/>
        <pt x="433" y="512" on="1"/>
        <pt x="151" y="512" on="1"/>
        <pt x="151" y="317" on="1"/>
        <pt x="410" y="317" on="1"/>
        <pt x="410" y="253" on="1"/>
        <pt x="151" y="253" on="1"/>
        <pt x="151" y="0" on="1"/>
        <pt x="74" y="0" on="1"/>
      </contour>
      <contour>
        <pt x="525" y="577" on="1"/>
        <pt x="602" y="577" on="1"/>
        <pt x="602" y="0" on="1"/>
        <pt x="525" y="0" on="1"/>
      </contour>
    </TTGlyph>
    <TTGlyph name="F_J.sc" xMin="74" yMin="-149" xMax="613" yMax="577">
      <contour>
        <pt x="74" y="577" on="1"/>
        <pt x="433" y="577" on="1"/>
        <pt x="433" y="512" on="1"/>
        <pt x="151" y="512" on="1"/>
        <pt x="151" y="317" on="1"/>
        <pt x="410" y="317" on="1"/>
        <pt x="410" y="253" on="1"/>
        <pt x="151" y="253" on="1"/>
        <pt x="151" y="0" on="1"/>
        <pt x="74" y="0" on="1"/>
      </contour>
      <contour>
        <pt x="467" y="-124" on="1"/>
        <pt x="488" y="-84" on="0"/>
        <pt x="514" y="-19" on="0"/>
        <pt x="530" y="42" on="0"/>
        <pt x="536" y="107" on="0"/>
        <pt x="536" y="146" on="1"/>
        <pt x="536" y="577" on="1"/>
        <pt x="613" y="577" on="1"/>
        <pt x="613" y="140" on="1"/>
        <pt x="613" y="102" on="0"/>
        <pt x="603" y="33" on="0"/>
        <pt x="580" y="-36" on="0"/>
        <pt x="544" y="-109" on="0"/>
        <pt x="518" y="-149" on="1"/>
      </contour>
    </TTGlyph>
    <TTGlyph name="F_K.sc" xMin="74" yMin="0" xMax="983" yMax="577">
      <contour>
        <pt x="74" y="577" on="1"/>
        <pt x="433" y="577" on="1"/>
        <pt x="433" y="512" on="1"/>
        <pt x="151" y="512" on="1"/>
        <pt x="151" y="317" on="1"/>
        <pt x="410" y="317" on="1"/>
        <pt x="410" y="253" on="1"/>
        <pt x="151" y="253" on="1"/>
        <pt x="151" y="0" on="1"/>
        <pt x="74" y="0" on="1"/>
      </contour>
      <contour>
        <pt x="525" y="577" on="1"/>
        <pt x="602" y="577" on="1"/>
        <pt x="602" y="326" on="1"/>
        <pt x="693" y="326" on="1"/>
        <pt x="879" y="577" on="1"/>
        <pt x="967" y="577" on="1"/>
        <pt x="777" y="318" on="1"/>
        <pt x="743" y="298" on="1"/>
        <pt x="743" y="293" on="1"/>
        <pt x="778" y="274" on="1"/>
        <pt x="983" y="0" on="1"/>
        <pt x="896" y="0" on="1"/>
        <pt x="697" y="261" on="1"/>
        <pt x="602" y="261" on="1"/>
        <pt x="602" y="0" on="1"/>
        <pt x="525" y="0" on="1"/>
      </contour>
    </TTGlyph>
    <TTGlyph name="F_L.sc" xMin="74" yMin="0" xMax="847" yMax="577">
      <contour>
        <pt x="525" y="577" on="1"/>
        <pt x="602" y="577" on="1"/>
        <pt x="602" y="65" on="1"/>
        <pt x="847" y="65" on="1"/>
        <pt x="847" y="0" on="1"/>
        <pt x="525" y="0" on="1"/>
      </contour>
      <contour>
        <pt x="74" y="577" on="1"/>
        <pt x="433" y="577" on="1"/>
        <pt x="433" y="512" on="1"/>
        <pt x="151" y="512" on="1"/>
        <pt x="151" y="317" on="1"/>
        <pt x="410" y="317" on="1"/>
        <pt x="410" y="253" on="1"/>
        <pt x="151" y="253" on="1"/>
        <pt x="151" y="0" on="1"/>
        <pt x="74" y="0" on="1"/>
      </contour>
    </TTGlyph>
    <TTGlyph name="F_T.sc" xMin="74" yMin="0" xMax="885" yMax="577">
      <contour>
        <pt x="631" y="511" on="1"/>
        <pt x="453" y="511" on="1"/>
        <pt x="453" y="577" on="1"/>
        <pt x="885" y="577" on="1"/>
        <pt x="885" y="511" on="1"/>
        <pt x="707" y="511" on="1"/>
        <pt x="707" y="0" on="1"/>
        <pt x="631" y="0" on="1"/>
      </contour>
      <contour>
        <pt x="74" y="577" on="1"/>
        <pt x="433" y="577" on="1"/>
        <pt x="433" y="512" on="1"/>
        <pt x="151" y="512" on="1"/>
        <pt x="151" y="317" on="1"/>
        <pt x="410" y="317" on="1"/>
        <pt x="410" y="253" on="1"/>
        <pt x="151" y="253" on="1"/>
        <pt x="151" y="0" on="1"/>
        <pt x="74" y="0" on="1"/>
      </contour>
    </TTGlyph>
    <TTGlyph name="G" xMin="46" yMin="-10" xMax="534" yMax="749">
      <contour>
        <pt x="363" y="-10" on="1"/>
        <pt x="199" y="-9" on="0"/>
        <pt x="46" y="175" on="0"/>
        <pt x="46" y="369" on="1"/>
        <pt x="46" y="566" on="0"/>
        <pt x="204" y="749" on="0"/>
        <pt x="374" y="749" on="1"/>
        <pt x="406" y="749" on="0"/>
        <pt x="490" y="739" on="0"/>
        <pt x="531" y="730" on="1"/>
        <pt x="531" y="661" on="1"/>
        <pt x="485" y="671" on="0"/>
        <pt x="413" y="679" on="0"/>
        <pt x="381" y="679" on="1"/>
        <pt x="313" y="679" on="0"/>
        <pt x="217" y="645" on="0"/>
        <pt x="156" y="570" on="0"/>
        <pt x="128" y="453" on="0"/>
        <pt x="128" y="369" on="1"/>
        <pt x="128" y="288" on="0"/>
        <pt x="156" y="171" on="0"/>
        <pt x="214" y="96" on="0"/>
        <pt x="304" y="60" on="0"/>
        <pt x="367" y="60" on="1"/>
        <pt x="384" y="60" on="0"/>
        <pt x="433" y="64" on="0"/>
        <pt x="459" y="68" on="1"/>
        <pt x="459" y="376" on="1"/>
        <pt x="534" y="376" on="1"/>
        <pt x="534" y="10" on="1"/>
        <pt x="484" y="0" on="0"/>
        <pt x="401" y="-10" on="0"/>
      </contour>
    </TTGlyph>
    <TTGlyph name="G.sc" xMin="45" yMin="-8" xMax="476" yMax="584">
      <contour>
        <pt x="322" y="-8" on="1"/>
        <pt x="180" y="-7" on="0"/>
        <pt x="45" y="138" on="0"/>
        <pt x="45" y="288" on="1"/>
        <pt x="45" y="441" on="0"/>
        <pt x="184" y="584" on="0"/>
        <pt x="334" y="584" on="1"/>
        <pt x="363" y="584" on="0"/>
        <pt x="438" y="577" on="0"/>
        <pt x="473" y="569" on="1"/>
        <pt x="473" y="504" on="1"/>
        <pt x="432" y="512" on="0"/>
        <pt x="369" y="519" on="0"/>
        <pt x="341" y="519" on="1"/>
        <pt x="282" y="519" on="0"/>
        <pt x="200" y="493" on="0"/>
        <pt x="148" y="438" on="0"/>
        <pt x="125" y="350" on="0"/>
        <pt x="125" y="288" on="1"/>
        <pt x="125" y="166" on="0"/>
        <pt x="220" y="59" on="0"/>
        <pt x="327" y="59" on="1"/>
        <pt x="339" y="59" on="0"/>
        <pt x="386" y="62" on="0"/>
        <pt x="405" y="65" on="1"/>
        <pt x="405" y="293" on="1"/>
        <pt x="476" y="293" on="1"/>
        <pt x="476" y="9" on="1"/>
        <pt x="432" y="1" on="0"/>
        <pt x="356" y="-8" on="0"/>
      </contour>
    </TTGlyph>
    <TTGlyph name="Gacute" xMin="46" yMin="-10" xMax="534" yMax="936">
      <contour>
        <pt x="304" y="796" on="1"/>
        <pt x="379" y="936" on="1"/>
        <pt x="462" y="936" on="1"/>
        <pt x="366" y="791" on="1"/>
      </contour>
      <contour>
        <pt x="363" y="-10" on="1"/>
        <pt x="199" y="-9" on="0"/>
        <pt x="46" y="175" on="0"/>
        <pt x="46" y="369" on="1"/>
        <pt x="46" y="566" on="0"/>
        <pt x="204" y="749" on="0"/>
        <pt x="374" y="749" on="1"/>
        <pt x="406" y="749" on="0"/>
        <pt x="490" y="739" on="0"/>
        <pt x="531" y="730" on="1"/>
        <pt x="531" y="661" on="1"/>
        <pt x="485" y="671" on="0"/>
        <pt x="413" y="679" on="0"/>
        <pt x="381" y="679" on="1"/>
        <pt x="313" y="679" on="0"/>
        <pt x="217" y="645" on="0"/>
        <pt x="156" y="570" on="0"/>
        <pt x="128" y="453" on="0"/>
        <pt x="128" y="369" on="1"/>
        <pt x="128" y="288" on="0"/>
        <pt x="156" y="171" on="0"/>
        <pt x="214" y="96" on="0"/>
        <pt x="304" y="60" on="0"/>
        <pt x="367" y="60" on="1"/>
        <pt x="384" y="60" on="0"/>
        <pt x="433" y="64" on="0"/>
        <pt x="459" y="68" on="1"/>
        <pt x="459" y="376" on="1"/>
        <pt x="534" y="376" on="1"/>
        <pt x="534" y="10" on="1"/>
        <pt x="484" y="0" on="0"/>
        <pt x="401" y="-10" on="0"/>
      </contour>
    </TTGlyph>
    <TTGlyph name="Gacute.sc" xMin="45" yMin="-8" xMax="476" yMax="738">
      <contour>
        <pt x="322" y="-8" on="1"/>
        <pt x="180" y="-7" on="0"/>
        <pt x="45" y="137" on="0"/>
        <pt x="45" y="288" on="1"/>
        <pt x="45" y="441" on="0"/>
        <pt x="184" y="584" on="0"/>
        <pt x="334" y="584" on="1"/>
        <pt x="363" y="584" on="0"/>
        <pt x="438" y="577" on="0"/>
        <pt x="473" y="569" on="1"/>
        <pt x="473" y="504" on="1"/>
        <pt x="432" y="512" on="0"/>
        <pt x="369" y="519" on="0"/>
        <pt x="341" y="519" on="1"/>
        <pt x="282" y="519" on="0"/>
        <pt x="200" y="493" on="0"/>
        <pt x="149" y="438" on="0"/>
        <pt x="125" y="350" on="0"/>
        <pt x="125" y="288" on="1"/>
        <pt x="125" y="166" on="0"/>
        <pt x="220" y="59" on="0"/>
        <pt x="327" y="59" on="1"/>
        <pt x="339" y="59" on="0"/>
        <pt x="386" y="62" on="0"/>
        <pt x="405" y="65" on="1"/>
        <pt x="405" y="293" on="1"/>
        <pt x="476" y="293" on="1"/>
        <pt x="476" y="9" on="1"/>
        <pt x="432" y="1" on="0"/>
        <pt x="356" y="-8" on="0"/>
      </contour>
      <contour>
        <pt x="269" y="623" on="1"/>
        <pt x="332" y="738" on="1"/>
        <pt x="411" y="738" on="1"/>
        <pt x="327" y="618" on="1"/>
      </contour>
    </TTGlyph>
    <TTGlyph name="Gbreve" xMin="46" yMin="-10" xMax="534" yMax="957">
      <contour>
        <pt x="342" y="810" on="1"/>
        <pt x="264" y="810" on="0"/>
        <pt x="182" y="889" on="0"/>
        <pt x="182" y="957" on="1"/>
        <pt x="243" y="957" on="1"/>
        <pt x="243" y="860" on="0"/>
        <pt x="342" y="860" on="1"/>
        <pt x="441" y="860" on="0"/>
        <pt x="441" y="957" on="1"/>
        <pt x="502" y="957" on="1"/>
        <pt x="502" y="889" on="0"/>
        <pt x="420" y="810" on="0"/>
      </contour>
      <contour>
        <pt x="363" y="-10" on="1"/>
        <pt x="199" y="-9" on="0"/>
        <pt x="46" y="175" on="0"/>
        <pt x="46" y="369" on="1"/>
        <pt x="46" y="566" on="0"/>
        <pt x="204" y="749" on="0"/>
        <pt x="374" y="749" on="1"/>
        <pt x="406" y="749" on="0"/>
        <pt x="490" y="739" on="0"/>
        <pt x="531" y="730" on="1"/>
        <pt x="531" y="661" on="1"/>
        <pt x="485" y="671" on="0"/>
        <pt x="413" y="679" on="0"/>
        <pt x="381" y="679" on="1"/>
        <pt x="313" y="679" on="0"/>
        <pt x="217" y="645" on="0"/>
        <pt x="156" y="570" on="0"/>
        <pt x="128" y="453" on="0"/>
        <pt x="128" y="369" on="1"/>
        <pt x="128" y="288" on="0"/>
        <pt x="156" y="171" on="0"/>
        <pt x="214" y="96" on="0"/>
        <pt x="304" y="60" on="0"/>
        <pt x="367" y="60" on="1"/>
        <pt x="384" y="60" on="0"/>
        <pt x="433" y="64" on="0"/>
        <pt x="459" y="68" on="1"/>
        <pt x="459" y="376" on="1"/>
        <pt x="534" y="376" on="1"/>
        <pt x="534" y="10" on="1"/>
        <pt x="484" y="0" on="0"/>
        <pt x="401" y="-10" on="0"/>
      </contour>
    </TTGlyph>
    <TTGlyph name="Gbreve.sc" xMin="45" yMin="-8" xMax="476" yMax="750">
      <contour>
        <pt x="322" y="-8" on="1"/>
        <pt x="180" y="-7" on="0"/>
        <pt x="45" y="137" on="0"/>
        <pt x="45" y="288" on="1"/>
        <pt x="45" y="441" on="0"/>
        <pt x="184" y="584" on="0"/>
        <pt x="334" y="584" on="1"/>
        <pt x="363" y="584" on="0"/>
        <pt x="438" y="577" on="0"/>
        <pt x="473" y="569" on="1"/>
        <pt x="473" y="504" on="1"/>
        <pt x="432" y="512" on="0"/>
        <pt x="369" y="519" on="0"/>
        <pt x="341" y="519" on="1"/>
        <pt x="282" y="519" on="0"/>
        <pt x="200" y="493" on="0"/>
        <pt x="149" y="438" on="0"/>
        <pt x="125" y="350" on="0"/>
        <pt x="125" y="288" on="1"/>
        <pt x="125" y="166" on="0"/>
        <pt x="220" y="59" on="0"/>
        <pt x="327" y="59" on="1"/>
        <pt x="339" y="59" on="0"/>
        <pt x="386" y="62" on="0"/>
        <pt x="405" y="65" on="1"/>
        <pt x="405" y="293" on="1"/>
        <pt x="476" y="293" on="1"/>
        <pt x="476" y="9" on="1"/>
        <pt x="432" y="1" on="0"/>
        <pt x="356" y="-8" on="0"/>
      </contour>
      <contour>
        <pt x="304" y="630" on="1"/>
        <pt x="235" y="630" on="0"/>
        <pt x="162" y="695" on="0"/>
        <pt x="162" y="750" on="1"/>
        <pt x="219" y="750" on="1"/>
        <pt x="219" y="674" on="0"/>
        <pt x="304" y="674" on="1"/>
        <pt x="390" y="674" on="0"/>
        <pt x="390" y="750" on="1"/>
        <pt x="447" y="750" on="1"/>
        <pt x="447" y="695" on="0"/>
        <pt x="374" y="630" on="0"/>
      </contour>
    </TTGlyph>
    <TTGlyph name="Gcircumflex" xMin="46" yMin="-10" xMax="534" yMax="949">
      <contour>
        <pt x="363" y="-10" on="1"/>
        <pt x="199" y="-9" on="0"/>
        <pt x="46" y="175" on="0"/>
        <pt x="46" y="369" on="1"/>
        <pt x="46" y="566" on="0"/>
        <pt x="204" y="749" on="0"/>
        <pt x="374" y="749" on="1"/>
        <pt x="406" y="749" on="0"/>
        <pt x="490" y="739" on="0"/>
        <pt x="531" y="730" on="1"/>
        <pt x="531" y="661" on="1"/>
        <pt x="485" y="671" on="0"/>
        <pt x="413" y="679" on="0"/>
        <pt x="381" y="679" on="1"/>
        <pt x="313" y="679" on="0"/>
        <pt x="217" y="645" on="0"/>
        <pt x="156" y="570" on="0"/>
        <pt x="128" y="453" on="0"/>
        <pt x="128" y="369" on="1"/>
        <pt x="128" y="288" on="0"/>
        <pt x="156" y="171" on="0"/>
        <pt x="214" y="96" on="0"/>
        <pt x="304" y="60" on="0"/>
        <pt x="367" y="60" on="1"/>
        <pt x="384" y="60" on="0"/>
        <pt x="433" y="64" on="0"/>
        <pt x="459" y="68" on="1"/>
        <pt x="459" y="376" on="1"/>
        <pt x="534" y="376" on="1"/>
        <pt x="534" y="10" on="1"/>
        <pt x="484" y="0" on="0"/>
        <pt x="401" y="-10" on="0"/>
      </contour>
      <contour>
        <pt x="196" y="876" on="1"/>
        <pt x="340" y="949" on="1"/>
        <pt x="485" y="876" on="1"/>
        <pt x="485" y="811" on="1"/>
        <pt x="340" y="883" on="1"/>
        <pt x="196" y="811" on="1"/>
      </contour>
    </TTGlyph>
    <TTGlyph name="Gcircumflex.sc" xMin="45" yMin="-8" xMax="476" yMax="745">
      <contour>
        <pt x="322" y="-8" on="1"/>
        <pt x="180" y="-7" on="0"/>
        <pt x="45" y="137" on="0"/>
        <pt x="45" y="288" on="1"/>
        <pt x="45" y="441" on="0"/>
        <pt x="184" y="584" on="0"/>
        <pt x="334" y="584" on="1"/>
        <pt x="363" y="584" on="0"/>
        <pt x="438" y="577" on="0"/>
        <pt x="473" y="569" on="1"/>
        <pt x="473" y="504" on="1"/>
        <pt x="432" y="512" on="0"/>
        <pt x="369" y="519" on="0"/>
        <pt x="341" y="519" on="1"/>
        <pt x="282" y="519" on="0"/>
        <pt x="200" y="493" on="0"/>
        <pt x="149" y="438" on="0"/>
        <pt x="125" y="350" on="0"/>
        <pt x="125" y="288" on="1"/>
        <pt x="125" y="166" on="0"/>
        <pt x="220" y="59" on="0"/>
        <pt x="327" y="59" on="1"/>
        <pt x="339" y="59" on="0"/>
        <pt x="386" y="62" on="0"/>
        <pt x="405" y="65" on="1"/>
        <pt x="405" y="293" on="1"/>
        <pt x="476" y="293" on="1"/>
        <pt x="476" y="9" on="1"/>
        <pt x="432" y="1" on="0"/>
        <pt x="356" y="-8" on="0"/>
      </contour>
      <contour>
        <pt x="173" y="688" on="1"/>
        <pt x="302" y="745" on="1"/>
        <pt x="431" y="688" on="1"/>
        <pt x="431" y="630" on="1"/>
        <pt x="302" y="687" on="1"/>
        <pt x="173" y="630" on="1"/>
      </contour>
    </TTGlyph>
    <TTGlyph name="Gcommaaccent" xMin="46" yMin="-220" xMax="534" yMax="749">
      <contour>
        <pt x="311" y="-68" on="1"/>
        <pt x="393" y="-68" on="1"/>
        <pt x="328" y="-220" on="1"/>
        <pt x="263" y="-220" on="1"/>
      </contour>
      <contour>
        <pt x="363" y="-10" on="1"/>
        <pt x="199" y="-9" on="0"/>
        <pt x="46" y="175" on="0"/>
        <pt x="46" y="369" on="1"/>
        <pt x="46" y="566" on="0"/>
        <pt x="204" y="749" on="0"/>
        <pt x="374" y="749" on="1"/>
        <pt x="406" y="749" on="0"/>
        <pt x="490" y="739" on="0"/>
        <pt x="531" y="730" on="1"/>
        <pt x="531" y="661" on="1"/>
        <pt x="485" y="671" on="0"/>
        <pt x="413" y="679" on="0"/>
        <pt x="381" y="679" on="1"/>
        <pt x="313" y="679" on="0"/>
        <pt x="217" y="645" on="0"/>
        <pt x="156" y="570" on="0"/>
        <pt x="128" y="453" on="0"/>
        <pt x="128" y="369" on="1"/>
        <pt x="128" y="288" on="0"/>
        <pt x="156" y="171" on="0"/>
        <pt x="214" y="96" on="0"/>
        <pt x="304" y="60" on="0"/>
        <pt x="367" y="60" on="1"/>
        <pt x="384" y="60" on="0"/>
        <pt x="433" y="64" on="0"/>
        <pt x="459" y="68" on="1"/>
        <pt x="459" y="376" on="1"/>
        <pt x="534" y="376" on="1"/>
        <pt x="534" y="10" on="1"/>
        <pt x="484" y="0" on="0"/>
        <pt x="401" y="-10" on="0"/>
      </contour>
    </TTGlyph>
    <TTGlyph name="Gcommaaccent.sc" xMin="45" yMin="-172" xMax="476" yMax="584">
      <contour>
        <pt x="322" y="-8" on="1"/>
        <pt x="180" y="-7" on="0"/>
        <pt x="45" y="137" on="0"/>
        <pt x="45" y="288" on="1"/>
        <pt x="45" y="441" on="0"/>
        <pt x="184" y="584" on="0"/>
        <pt x="334" y="584" on="1"/>
        <pt x="363" y="584" on="0"/>
        <pt x="438" y="577" on="0"/>
        <pt x="473" y="569" on="1"/>
        <pt x="473" y="504" on="1"/>
        <pt x="432" y="512" on="0"/>
        <pt x="369" y="519" on="0"/>
        <pt x="341" y="519" on="1"/>
        <pt x="282" y="519" on="0"/>
        <pt x="200" y="493" on="0"/>
        <pt x="149" y="438" on="0"/>
        <pt x="125" y="350" on="0"/>
        <pt x="125" y="288" on="1"/>
        <pt x="125" y="166" on="0"/>
        <pt x="220" y="59" on="0"/>
        <pt x="327" y="59" on="1"/>
        <pt x="339" y="59" on="0"/>
        <pt x="386" y="62" on="0"/>
        <pt x="405" y="65" on="1"/>
        <pt x="405" y="293" on="1"/>
        <pt x="476" y="293" on="1"/>
        <pt x="476" y="9" on="1"/>
        <pt x="432" y="1" on="0"/>
        <pt x="356" y="-8" on="0"/>
      </contour>
      <contour>
        <pt x="274" y="-53" on="1"/>
        <pt x="352" y="-53" on="1"/>
        <pt x="294" y="-172" on="1"/>
        <pt x="233" y="-172" on="1"/>
      </contour>
    </TTGlyph>
    <TTGlyph name="Gdotaccent" xMin="46" yMin="-10" xMax="534" yMax="905">
      <contour>
        <pt x="341" y="804" on="1"/>
        <pt x="290" y="804" on="0"/>
        <pt x="290" y="854" on="1"/>
        <pt x="290" y="905" on="0"/>
        <pt x="341" y="905" on="1"/>
        <pt x="393" y="905" on="0"/>
        <pt x="393" y="854" on="1"/>
        <pt x="393" y="804" on="0"/>
      </contour>
      <contour>
        <pt x="363" y="-10" on="1"/>
        <pt x="199" y="-9" on="0"/>
        <pt x="46" y="175" on="0"/>
        <pt x="46" y="369" on="1"/>
        <pt x="46" y="566" on="0"/>
        <pt x="204" y="749" on="0"/>
        <pt x="374" y="749" on="1"/>
        <pt x="406" y="749" on="0"/>
        <pt x="490" y="739" on="0"/>
        <pt x="531" y="730" on="1"/>
        <pt x="531" y="661" on="1"/>
        <pt x="485" y="671" on="0"/>
        <pt x="413" y="679" on="0"/>
        <pt x="381" y="679" on="1"/>
        <pt x="313" y="679" on="0"/>
        <pt x="217" y="645" on="0"/>
        <pt x="156" y="570" on="0"/>
        <pt x="128" y="453" on="0"/>
        <pt x="128" y="369" on="1"/>
        <pt x="128" y="288" on="0"/>
        <pt x="156" y="171" on="0"/>
        <pt x="214" y="96" on="0"/>
        <pt x="304" y="60" on="0"/>
        <pt x="367" y="60" on="1"/>
        <pt x="384" y="60" on="0"/>
        <pt x="433" y="64" on="0"/>
        <pt x="459" y="68" on="1"/>
        <pt x="459" y="376" on="1"/>
        <pt x="534" y="376" on="1"/>
        <pt x="534" y="10" on="1"/>
        <pt x="484" y="0" on="0"/>
        <pt x="401" y="-10" on="0"/>
      </contour>
    </TTGlyph>
    <TTGlyph name="Gdotaccent.sc" xMin="45" yMin="-8" xMax="476" yMax="718">
      <contour>
        <pt x="322" y="-8" on="1"/>
        <pt x="180" y="-7" on="0"/>
        <pt x="45" y="137" on="0"/>
        <pt x="45" y="288" on="1"/>
        <pt x="45" y="441" on="0"/>
        <pt x="184" y="584" on="0"/>
        <pt x="334" y="584" on="1"/>
        <pt x="363" y="584" on="0"/>
        <pt x="438" y="577" on="0"/>
        <pt x="473" y="569" on="1"/>
        <pt x="473" y="504" on="1"/>
        <pt x="432" y="512" on="0"/>
        <pt x="369" y="519" on="0"/>
        <pt x="341" y="519" on="1"/>
        <pt x="282" y="519" on="0"/>
        <pt x="200" y="493" on="0"/>
        <pt x="149" y="438" on="0"/>
        <pt x="125" y="350" on="0"/>
        <pt x="125" y="288" on="1"/>
        <pt x="125" y="166" on="0"/>
        <pt x="220" y="59" on="0"/>
        <pt x="327" y="59" on="1"/>
        <pt x="339" y="59" on="0"/>
        <pt x="386" y="62" on="0"/>
        <pt x="405" y="65" on="1"/>
        <pt x="405" y="293" on="1"/>
        <pt x="476" y="293" on="1"/>
        <pt x="476" y="9" on="1"/>
        <pt x="432" y="1" on="0"/>
        <pt x="356" y="-8" on="0"/>
      </contour>
      <contour>
        <pt x="304" y="627" on="1"/>
        <pt x="281" y="627" on="0"/>
        <pt x="256" y="648" on="0"/>
        <pt x="256" y="673" on="1"/>
        <pt x="256" y="697" on="0"/>
        <pt x="281" y="718" on="0"/>
        <pt x="304" y="718" on="1"/>
        <pt x="327" y="718" on="0"/>
        <pt x="353" y="697" on="0"/>
        <pt x="353" y="673" on="1"/>
        <pt x="353" y="627" on="0"/>
      </contour>
    </TTGlyph>
    <TTGlyph name="H" xMin="78" yMin="0" xMax="593" yMax="740">
      <contour>
        <pt x="78" y="740" on="1"/>
        <pt x="158" y="740" on="1"/>
        <pt x="158" y="413" on="1"/>
        <pt x="513" y="413" on="1"/>
        <pt x="513" y="740" on="1"/>
        <pt x="593" y="740" on="1"/>
        <pt x="593" y="0" on="1"/>
        <pt x="513" y="0" on="1"/>
        <pt x="513" y="343" on="1"/>
        <pt x="158" y="343" on="1"/>
        <pt x="158" y="0" on="1"/>
        <pt x="78" y="0" on="1"/>
      </contour>
    </TTGlyph>
    <TTGlyph name="H.sc" xMin="74" yMin="0" xMax="533" yMax="577">
      <contour>
        <pt x="74" y="577" on="1"/>
        <pt x="151" y="577" on="1"/>
        <pt x="151" y="328" on="1"/>
        <pt x="456" y="328" on="1"/>
        <pt x="456" y="577" on="1"/>
        <pt x="533" y="577" on="1"/>
        <pt x="533" y="0" on="1"/>
        <pt x="456" y="0" on="1"/>
        <pt x="456" y="263" on="1"/>
        <pt x="151" y="263" on="1"/>
        <pt x="151" y="0" on="1"/>
        <pt x="74" y="0" on="1"/>
      </contour>
    </TTGlyph>
    <TTGlyph name="Hbar" xMin="2" yMin="0" xMax="699" yMax="740">
      <contour>
        <pt x="2" y="591" on="1"/>
        <pt x="91" y="591" on="1"/>
        <pt x="91" y="740" on="1"/>
        <pt x="171" y="740" on="1"/>
        <pt x="171" y="591" on="1"/>
        <pt x="526" y="591" on="1"/>
        <pt x="526" y="740" on="1"/>
        <pt x="606" y="740" on="1"/>
        <pt x="606" y="591" on="1"/>
        <pt x="699" y="591" on="1"/>
        <pt x="699" y="546" on="1"/>
        <pt x="606" y="546" on="1"/>
        <pt x="606" y="0" on="1"/>
        <pt x="526" y="0" on="1"/>
        <pt x="526" y="343" on="1"/>
        <pt x="171" y="343" on="1"/>
        <pt x="171" y="0" on="1"/>
        <pt x="91" y="0" on="1"/>
        <pt x="91" y="546" on="1"/>
        <pt x="2" y="546" on="1"/>
      </contour>
      <contour>
        <pt x="526" y="413" on="1"/>
        <pt x="526" y="546" on="1"/>
        <pt x="171" y="546" on="1"/>
        <pt x="171" y="413" on="1"/>
      </contour>
    </TTGlyph>
    <TTGlyph name="Hbar.sc" xMin="8" yMin="0" xMax="621" yMax="577">
      <contour>
        <pt x="8" y="466" on="1"/>
        <pt x="84" y="466" on="1"/>
        <pt x="84" y="577" on="1"/>
        <pt x="161" y="577" on="1"/>
        <pt x="161" y="466" on="1"/>
        <pt x="465" y="466" on="1"/>
        <pt x="465" y="577" on="1"/>
        <pt x="542" y="577" on="1"/>
        <pt x="542" y="466" on="1"/>
        <pt x="621" y="466" on="1"/>
        <pt x="621" y="424" on="1"/>
        <pt x="542" y="424" on="1"/>
        <pt x="542" y="0" on="1"/>
        <pt x="465" y="0" on="1"/>
        <pt x="465" y="261" on="1"/>
        <pt x="161" y="261" on="1"/>
        <pt x="161" y="0" on="1"/>
        <pt x="84" y="0" on="1"/>
        <pt x="84" y="424" on="1"/>
        <pt x="8" y="424" on="1"/>
      </contour>
      <contour>
        <pt x="465" y="327" on="1"/>
        <pt x="465" y="424" on="1"/>
        <pt x="161" y="424" on="1"/>
        <pt x="161" y="327" on="1"/>
      </contour>
    </TTGlyph>
    <TTGlyph name="Hcircumflex" xMin="78" yMin="0" xMax="593" yMax="949">
      <contour>
        <pt x="78" y="740" on="1"/>
        <pt x="158" y="740" on="1"/>
        <pt x="158" y="413" on="1"/>
        <pt x="513" y="413" on="1"/>
        <pt x="513" y="740" on="1"/>
        <pt x="593" y="740" on="1"/>
        <pt x="593" y="0" on="1"/>
        <pt x="513" y="0" on="1"/>
        <pt x="513" y="343" on="1"/>
        <pt x="158" y="343" on="1"/>
        <pt x="158" y="0" on="1"/>
        <pt x="78" y="0" on="1"/>
      </contour>
      <contour>
        <pt x="183" y="876" on="1"/>
        <pt x="327" y="949" on="1"/>
        <pt x="472" y="876" on="1"/>
        <pt x="472" y="811" on="1"/>
        <pt x="327" y="883" on="1"/>
        <pt x="183" y="811" on="1"/>
      </contour>
    </TTGlyph>
    <TTGlyph name="Hcircumflex.sc" xMin="74" yMin="0" xMax="533" yMax="745">
      <contour>
        <pt x="74" y="577" on="1"/>
        <pt x="151" y="577" on="1"/>
        <pt x="151" y="328" on="1"/>
        <pt x="456" y="328" on="1"/>
        <pt x="456" y="577" on="1"/>
        <pt x="533" y="577" on="1"/>
        <pt x="533" y="0" on="1"/>
        <pt x="456" y="0" on="1"/>
        <pt x="456" y="263" on="1"/>
        <pt x="151" y="263" on="1"/>
        <pt x="151" y="0" on="1"/>
        <pt x="74" y="0" on="1"/>
      </contour>
      <contour>
        <pt x="168" y="688" on="1"/>
        <pt x="297" y="745" on="1"/>
        <pt x="426" y="688" on="1"/>
        <pt x="426" y="630" on="1"/>
        <pt x="297" y="687" on="1"/>
        <pt x="168" y="630" on="1"/>
      </contour>
    </TTGlyph>
    <TTGlyph name="Hdotbelow" xMin="78" yMin="-178" xMax="593" yMax="740">
      <contour>
        <pt x="78" y="740" on="1"/>
        <pt x="158" y="740" on="1"/>
        <pt x="158" y="413" on="1"/>
        <pt x="513" y="413" on="1"/>
        <pt x="513" y="740" on="1"/>
        <pt x="593" y="740" on="1"/>
        <pt x="593" y="0" on="1"/>
        <pt x="513" y="0" on="1"/>
        <pt x="513" y="343" on="1"/>
        <pt x="158" y="343" on="1"/>
        <pt x="158" y="0" on="1"/>
        <pt x="78" y="0" on="1"/>
      </contour>
      <contour>
        <pt x="342" y="-178" on="1"/>
        <pt x="318" y="-178" on="0"/>
        <pt x="294" y="-156" on="0"/>
        <pt x="294" y="-130" on="1"/>
        <pt x="294" y="-104" on="0"/>
        <pt x="318" y="-83" on="0"/>
        <pt x="342" y="-83" on="1"/>
        <pt x="390" y="-83" on="0"/>
        <pt x="390" y="-130" on="1"/>
        <pt x="390" y="-156" on="0"/>
        <pt x="365" y="-178" on="0"/>
      </contour>
    </TTGlyph>
    <TTGlyph name="Hdotbelow.sc" xMin="74" yMin="-144" xMax="533" yMax="577">
      <contour>
        <pt x="74" y="577" on="1"/>
        <pt x="151" y="577" on="1"/>
        <pt x="151" y="328" on="1"/>
        <pt x="456" y="328" on="1"/>
        <pt x="456" y="577" on="1"/>
        <pt x="533" y="577" on="1"/>
        <pt x="533" y="0" on="1"/>
        <pt x="456" y="0" on="1"/>
        <pt x="456" y="263" on="1"/>
        <pt x="151" y="263" on="1"/>
        <pt x="151" y="0" on="1"/>
        <pt x="74" y="0" on="1"/>
      </contour>
      <contour>
        <pt x="309" y="-144" on="1"/>
        <pt x="265" y="-144" on="0"/>
        <pt x="265" y="-104" on="1"/>
        <pt x="265" y="-81" on="0"/>
        <pt x="287" y="-62" on="0"/>
        <pt x="309" y="-62" on="1"/>
        <pt x="330" y="-62" on="0"/>
        <pt x="353" y="-81" on="0"/>
        <pt x="353" y="-104" on="1"/>
        <pt x="353" y="-144" on="0"/>
      </contour>
    </TTGlyph>
    <TTGlyph name="I" xMin="78" yMin="0" xMax="158" yMax="740">
      <contour>
        <pt x="78" y="740" on="1"/>
        <pt x="158" y="740" on="1"/>
        <pt x="158" y="0" on="1"/>
        <pt x="78" y="0" on="1"/>
      </contour>
    </TTGlyph>
    <TTGlyph name="I.sc" xMin="74" yMin="0" xMax="151" yMax="577">
      <contour>
        <pt x="74" y="577" on="1"/>
        <pt x="151" y="577" on="1"/>
        <pt x="151" y="0" on="1"/>
        <pt x="74" y="0" on="1"/>
      </contour>
    </TTGlyph>
    <TTGlyph name="IJ" xMin="78" yMin="-187" xMax="397" yMax="740">
      <contour>
        <pt x="78" y="740" on="1"/>
        <pt x="158" y="740" on="1"/>
        <pt x="158" y="0" on="1"/>
        <pt x="78" y="0" on="1"/>
      </contour>
      <contour>
        <pt x="236" y="-159" on="1"/>
        <pt x="260" y="-107" on="0"/>
        <pt x="291" y="-25" on="0"/>
        <pt x="310" y="53" on="0"/>
        <pt x="317" y="135" on="0"/>
        <pt x="317" y="185" on="1"/>
        <pt x="317" y="740" on="1"/>
        <pt x="397" y="740" on="1"/>
        <pt x="397" y="180" on="1"/>
        <pt x="397" y="132" on="0"/>
        <pt x="385" y="43" on="0"/>
        <pt x="359" y="-45" on="0"/>
        <pt x="318" y="-136" on="0"/>
        <pt x="289" y="-187" on="1"/>
      </contour>
    </TTGlyph>
    <TTGlyph name="Iacute" xMin="78" yMin="0" xMax="243" yMax="936">
      <contour>
        <pt x="78" y="740" on="1"/>
        <pt x="158" y="740" on="1"/>
        <pt x="158" y="0" on="1"/>
        <pt x="78" y="0" on="1"/>
      </contour>
      <contour>
        <pt x="85" y="796" on="1"/>
        <pt x="160" y="936" on="1"/>
        <pt x="243" y="936" on="1"/>
        <pt x="147" y="791" on="1"/>
      </contour>
    </TTGlyph>
    <TTGlyph name="Iacute.sc" xMin="74" yMin="0" xMax="224" yMax="738">
      <contour>
        <pt x="74" y="577" on="1"/>
        <pt x="151" y="577" on="1"/>
        <pt x="151" y="0" on="1"/>
        <pt x="74" y="0" on="1"/>
      </contour>
      <contour>
        <pt x="81" y="623" on="1"/>
        <pt x="145" y="738" on="1"/>
        <pt x="224" y="738" on="1"/>
        <pt x="139" y="618" on="1"/>
      </contour>
    </TTGlyph>
    <TTGlyph name="Ibreve" xMin="-39" yMin="0" xMax="281" yMax="957">
      <contour>
        <pt x="78" y="740" on="1"/>
        <pt x="158" y="740" on="1"/>
        <pt x="158" y="0" on="1"/>
        <pt x="78" y="0" on="1"/>
      </contour>
      <contour>
        <pt x="121" y="810" on="1"/>
        <pt x="43" y="810" on="0"/>
        <pt x="-39" y="889" on="0"/>
        <pt x="-39" y="957" on="1"/>
        <pt x="22" y="957" on="1"/>
        <pt x="22" y="860" on="0"/>
        <pt x="121" y="860" on="1"/>
        <pt x="220" y="860" on="0"/>
        <pt x="220" y="957" on="1"/>
        <pt x="281" y="957" on="1"/>
        <pt x="281" y="889" on="0"/>
        <pt x="199" y="810" on="0"/>
      </contour>
    </TTGlyph>
    <TTGlyph name="Ibreve.sc" xMin="-28" yMin="0" xMax="257" yMax="750">
      <contour>
        <pt x="74" y="577" on="1"/>
        <pt x="151" y="577" on="1"/>
        <pt x="151" y="0" on="1"/>
        <pt x="74" y="0" on="1"/>
      </contour>
      <contour>
        <pt x="115" y="630" on="1"/>
        <pt x="44" y="630" on="0"/>
        <pt x="-28" y="695" on="0"/>
        <pt x="-28" y="750" on="1"/>
        <pt x="29" y="750" on="1"/>
        <pt x="29" y="674" on="0"/>
        <pt x="115" y="674" on="1"/>
        <pt x="200" y="674" on="0"/>
        <pt x="200" y="750" on="1"/>
        <pt x="257" y="750" on="1"/>
        <pt x="257" y="695" on="0"/>
        <pt x="184" y="630" on="0"/>
      </contour>
    </TTGlyph>
    <TTGlyph name="Icircumflex" xMin="-24" yMin="0" xMax="265" yMax="949">
      <contour>
        <pt x="78" y="740" on="1"/>
        <pt x="158" y="740" on="1"/>
        <pt x="158" y="0" on="1"/>
        <pt x="78" y="0" on="1"/>
      </contour>
      <contour>
        <pt x="-24" y="876" on="1"/>
        <pt x="120" y="949" on="1"/>
        <pt x="265" y="876" on="1"/>
        <pt x="265" y="811" on="1"/>
        <pt x="120" y="883" on="1"/>
        <pt x="-24" y="811" on="1"/>
      </contour>
    </TTGlyph>
    <TTGlyph name="Icircumflex.sc" xMin="-14" yMin="0" xMax="243" yMax="745">
      <contour>
        <pt x="74" y="577" on="1"/>
        <pt x="151" y="577" on="1"/>
        <pt x="151" y="0" on="1"/>
        <pt x="74" y="0" on="1"/>
      </contour>
      <contour>
        <pt x="-14" y="688" on="1"/>
        <pt x="115" y="745" on="1"/>
        <pt x="243" y="688" on="1"/>
        <pt x="243" y="630" on="1"/>
        <pt x="115" y="687" on="1"/>
        <pt x="-14" y="630" on="1"/>
      </contour>
    </TTGlyph>
    <TTGlyph name="Idblgrave" xMin="-73" yMin="0" xMax="226" yMax="934">
      <contour>
        <pt x="78" y="740" on="1"/>
        <pt x="158" y="740" on="1"/>
        <pt x="158" y="0" on="1"/>
        <pt x="78" y="0" on="1"/>
      </contour>
      <contour>
        <pt x="22" y="789" on="1"/>
        <pt x="-73" y="934" on="1"/>
        <pt x="1" y="934" on="1"/>
        <pt x="76" y="802" on="1"/>
      </contour>
      <contour>
        <pt x="173" y="789" on="1"/>
        <pt x="76" y="934" on="1"/>
        <pt x="152" y="934" on="1"/>
        <pt x="226" y="802" on="1"/>
      </contour>
    </TTGlyph>
    <TTGlyph name="Idblgrave.sc" xMin="-58" yMin="0" xMax="211" yMax="736">
      <contour>
        <pt x="74" y="577" on="1"/>
        <pt x="151" y="577" on="1"/>
        <pt x="151" y="0" on="1"/>
        <pt x="74" y="0" on="1"/>
      </contour>
      <contour>
        <pt x="27" y="616" on="1"/>
        <pt x="-58" y="736" on="1"/>
        <pt x="13" y="736" on="1"/>
        <pt x="77" y="626" on="1"/>
      </contour>
      <contour>
        <pt x="161" y="616" on="1"/>
        <pt x="75" y="736" on="1"/>
        <pt x="147" y="736" on="1"/>
        <pt x="211" y="626" on="1"/>
      </contour>
    </TTGlyph>
    <TTGlyph name="Idieresis" xMin="-38" yMin="0" xMax="280" yMax="914">
      <contour>
        <pt x="78" y="740" on="1"/>
        <pt x="158" y="740" on="1"/>
        <pt x="158" y="0" on="1"/>
        <pt x="78" y="0" on="1"/>
      </contour>
      <contour>
        <pt x="13" y="813" on="1"/>
        <pt x="-38" y="813" on="0"/>
        <pt x="-38" y="864" on="1"/>
        <pt x="-38" y="914" on="0"/>
        <pt x="13" y="914" on="1"/>
        <pt x="65" y="914" on="0"/>
        <pt x="65" y="864" on="1"/>
        <pt x="65" y="837" on="0"/>
        <pt x="38" y="813" on="0"/>
      </contour>
      <contour>
        <pt x="228" y="813" on="1"/>
        <pt x="177" y="813" on="0"/>
        <pt x="177" y="864" on="1"/>
        <pt x="177" y="914" on="0"/>
        <pt x="228" y="914" on="1"/>
        <pt x="252" y="914" on="0"/>
        <pt x="280" y="890" on="0"/>
        <pt x="280" y="864" on="1"/>
        <pt x="280" y="837" on="0"/>
        <pt x="252" y="813" on="0"/>
      </contour>
    </TTGlyph>
    <TTGlyph name="Idieresis.sc" xMin="-29" yMin="0" xMax="260" yMax="724">
      <contour>
        <pt x="74" y="577" on="1"/>
        <pt x="151" y="577" on="1"/>
        <pt x="151" y="0" on="1"/>
        <pt x="74" y="0" on="1"/>
      </contour>
      <contour>
        <pt x="18" y="633" on="1"/>
        <pt x="-29" y="633" on="0"/>
        <pt x="-29" y="679" on="1"/>
        <pt x="-29" y="703" on="0"/>
        <pt x="-5" y="724" on="0"/>
        <pt x="18" y="724" on="1"/>
        <pt x="66" y="724" on="0"/>
        <pt x="66" y="679" on="1"/>
        <pt x="66" y="633" on="0"/>
      </contour>
      <contour>
        <pt x="211" y="633" on="1"/>
        <pt x="163" y="633" on="0"/>
        <pt x="163" y="679" on="1"/>
        <pt x="163" y="703" on="0"/>
        <pt x="188" y="724" on="0"/>
        <pt x="211" y="724" on="1"/>
        <pt x="260" y="724" on="0"/>
        <pt x="260" y="679" on="1"/>
        <pt x="260" y="633" on="0"/>
      </contour>
    </TTGlyph>
    <TTGlyph name="Idotaccent" xMin="69" yMin="0" xMax="172" yMax="905">
      <contour>
        <pt x="78" y="740" on="1"/>
        <pt x="158" y="740" on="1"/>
        <pt x="158" y="0" on="1"/>
        <pt x="78" y="0" on="1"/>
      </contour>
      <contour>
        <pt x="120" y="804" on="1"/>
        <pt x="69" y="804" on="0"/>
        <pt x="69" y="854" on="1"/>
        <pt x="69" y="905" on="0"/>
        <pt x="120" y="905" on="1"/>
        <pt x="172" y="905" on="0"/>
        <pt x="172" y="854" on="1"/>
        <pt x="172" y="804" on="0"/>
      </contour>
    </TTGlyph>
    <TTGlyph name="Idotaccent.sc" xMin="67" yMin="0" xMax="163" yMax="718">
      <contour>
        <pt x="74" y="577" on="1"/>
        <pt x="151" y="577" on="1"/>
        <pt x="151" y="0" on="1"/>
        <pt x="74" y="0" on="1"/>
      </contour>
      <contour>
        <pt x="114" y="627" on="1"/>
        <pt x="91" y="627" on="0"/>
        <pt x="67" y="648" on="0"/>
        <pt x="67" y="673" on="1"/>
        <pt x="67" y="697" on="0"/>
        <pt x="91" y="718" on="0"/>
        <pt x="114" y="718" on="1"/>
        <pt x="138" y="718" on="0"/>
        <pt x="163" y="697" on="0"/>
        <pt x="163" y="673" on="1"/>
        <pt x="163" y="627" on="0"/>
      </contour>
    </TTGlyph>
    <TTGlyph name="Idotbelow" xMin="72" yMin="-178" xMax="168" yMax="740">
      <contour>
        <pt x="78" y="740" on="1"/>
        <pt x="158" y="740" on="1"/>
        <pt x="158" y="0" on="1"/>
        <pt x="78" y="0" on="1"/>
      </contour>
      <contour>
        <pt x="120" y="-178" on="1"/>
        <pt x="96" y="-178" on="0"/>
        <pt x="72" y="-156" on="0"/>
        <pt x="72" y="-130" on="1"/>
        <pt x="72" y="-104" on="0"/>
        <pt x="96" y="-83" on="0"/>
        <pt x="120" y="-83" on="1"/>
        <pt x="168" y="-83" on="0"/>
        <pt x="168" y="-130" on="1"/>
        <pt x="168" y="-156" on="0"/>
        <pt x="143" y="-178" on="0"/>
      </contour>
    </TTGlyph>
    <TTGlyph name="Idotbelow.sc" xMin="71" yMin="-144" xMax="159" yMax="577">
      <contour>
        <pt x="74" y="577" on="1"/>
        <pt x="151" y="577" on="1"/>
        <pt x="151" y="0" on="1"/>
        <pt x="74" y="0" on="1"/>
      </contour>
      <contour>
        <pt x="114" y="-144" on="1"/>
        <pt x="71" y="-144" on="0"/>
        <pt x="71" y="-104" on="1"/>
        <pt x="71" y="-81" on="0"/>
        <pt x="92" y="-62" on="0"/>
        <pt x="114" y="-62" on="1"/>
        <pt x="135" y="-62" on="0"/>
        <pt x="159" y="-81" on="0"/>
        <pt x="159" y="-104" on="1"/>
        <pt x="159" y="-125" on="0"/>
        <pt x="135" y="-144" on="0"/>
      </contour>
    </TTGlyph>
    <TTGlyph name="Igrave" xMin="-7" yMin="0" xMax="158" yMax="936">
      <contour>
        <pt x="78" y="740" on="1"/>
        <pt x="158" y="740" on="1"/>
        <pt x="158" y="0" on="1"/>
        <pt x="78" y="0" on="1"/>
      </contour>
      <contour>
        <pt x="89" y="791" on="1"/>
        <pt x="-7" y="936" on="1"/>
        <pt x="76" y="936" on="1"/>
        <pt x="151" y="804" on="1"/>
      </contour>
    </TTGlyph>
    <TTGlyph name="Igrave.sc" xMin="1" yMin="0" xMax="152" yMax="738">
      <contour>
        <pt x="74" y="577" on="1"/>
        <pt x="152" y="577" on="1"/>
        <pt x="152" y="0" on="1"/>
        <pt x="74" y="0" on="1"/>
      </contour>
      <contour>
        <pt x="85" y="618" on="1"/>
        <pt x="1" y="738" on="1"/>
        <pt x="80" y="738" on="1"/>
        <pt x="144" y="628" on="1"/>
      </contour>
    </TTGlyph>
    <TTGlyph name="Iinvertedbreve" xMin="-39" yMin="0" xMax="281" yMax="965">
      <contour>
        <pt x="78" y="740" on="1"/>
        <pt x="158" y="740" on="1"/>
        <pt x="158" y="0" on="1"/>
        <pt x="78" y="0" on="1"/>
      </contour>
      <contour>
        <pt x="220" y="819" on="1"/>
        <pt x="220" y="867" on="0"/>
        <pt x="170" y="917" on="0"/>
        <pt x="121" y="917" on="1"/>
        <pt x="71" y="917" on="0"/>
        <pt x="22" y="867" on="0"/>
        <pt x="22" y="819" on="1"/>
        <pt x="-39" y="819" on="1"/>
        <pt x="-39" y="887" on="0"/>
        <pt x="43" y="965" on="0"/>
        <pt x="121" y="965" on="1"/>
        <pt x="198" y="965" on="0"/>
        <pt x="281" y="887" on="0"/>
        <pt x="281" y="819" on="1"/>
      </contour>
    </TTGlyph>
    <TTGlyph name="Iinvertedbreve.sc" xMin="-27" yMin="0" xMax="257" yMax="756">
      <contour>
        <pt x="74" y="577" on="1"/>
        <pt x="151" y="577" on="1"/>
        <pt x="151" y="0" on="1"/>
        <pt x="74" y="0" on="1"/>
      </contour>
      <contour>
        <pt x="200" y="637" on="1"/>
        <pt x="200" y="713" on="0"/>
        <pt x="115" y="713" on="1"/>
        <pt x="30" y="713" on="0"/>
        <pt x="30" y="637" on="1"/>
        <pt x="-27" y="637" on="1"/>
        <pt x="-27" y="692" on="0"/>
        <pt x="45" y="756" on="0"/>
        <pt x="115" y="756" on="1"/>
        <pt x="185" y="756" on="0"/>
        <pt x="257" y="693" on="0"/>
        <pt x="257" y="637" on="1"/>
      </contour>
    </TTGlyph>
    <TTGlyph name="Imacron" xMin="-19" yMin="0" xMax="251" yMax="901">
      <contour>
        <pt x="78" y="740" on="1"/>
        <pt x="158" y="740" on="1"/>
        <pt x="158" y="0" on="1"/>
        <pt x="78" y="0" on="1"/>
      </contour>
      <contour>
        <pt x="-19" y="901" on="1"/>
        <pt x="251" y="901" on="1"/>
        <pt x="251" y="841" on="1"/>
        <pt x="-19" y="841" on="1"/>
      </contour>
    </TTGlyph>
    <TTGlyph name="Imacron.sc" xMin="-11" yMin="0" xMax="233" yMax="711">
      <contour>
        <pt x="74" y="577" on="1"/>
        <pt x="151" y="577" on="1"/>
        <pt x="151" y="0" on="1"/>
        <pt x="74" y="0" on="1"/>
      </contour>
      <contour>
        <pt x="-11" y="711" on="1"/>
        <pt x="233" y="711" on="1"/>
        <pt x="233" y="656" on="1"/>
        <pt x="-11" y="656" on="1"/>
      </contour>
    </TTGlyph>
    <TTGlyph name="Iogonek" xMin="-3" yMin="-220" xMax="158" yMax="740">
      <contour>
        <pt x="78" y="740" on="1"/>
        <pt x="158" y="740" on="1"/>
        <pt x="158" y="-16" on="1"/>
        <pt x="106" y="-39" on="0"/>
        <pt x="56" y="-97" on="0"/>
        <pt x="56" y="-128" on="1"/>
        <pt x="56" y="-166" on="0"/>
        <pt x="101" y="-166" on="1"/>
        <pt x="130" y="-166" on="0"/>
        <pt x="157" y="-155" on="1"/>
        <pt x="157" y="-208" on="1"/>
        <pt x="128" y="-220" on="0"/>
        <pt x="95" y="-220" on="1"/>
        <pt x="-3" y="-220" on="0"/>
        <pt x="-3" y="-133" on="1"/>
        <pt x="-3" y="-95" on="0"/>
        <pt x="43" y="-31" on="0"/>
        <pt x="92" y="0" on="1"/>
        <pt x="78" y="0" on="1"/>
      </contour>
    </TTGlyph>
    <TTGlyph name="Iogonek.sc" xMin="7" yMin="-172" xMax="151" yMax="577">
      <contour>
        <pt x="75" y="577" on="1"/>
        <pt x="151" y="577" on="1"/>
        <pt x="151" y="-11" on="1"/>
        <pt x="106" y="-28" on="0"/>
        <pt x="62" y="-73" on="0"/>
        <pt x="62" y="-96" on="1"/>
        <pt x="62" y="-124" on="0"/>
        <pt x="100" y="-124" on="1"/>
        <pt x="113" y="-124" on="0"/>
        <pt x="140" y="-119" on="0"/>
        <pt x="151" y="-115" on="1"/>
        <pt x="151" y="-162" on="1"/>
        <pt x="137" y="-167" on="0"/>
        <pt x="110" y="-172" on="0"/>
        <pt x="95" y="-172" on="1"/>
        <pt x="7" y="-172" on="0"/>
        <pt x="7" y="-103" on="1"/>
        <pt x="7" y="-73" on="0"/>
        <pt x="45" y="-25" on="0"/>
        <pt x="87" y="0" on="1"/>
        <pt x="75" y="0" on="1"/>
      </contour>
    </TTGlyph>
    <TTGlyph name="Itilde" xMin="-47" yMin="0" xMax="299" yMax="923">
      <contour>
        <pt x="78" y="740" on="1"/>
        <pt x="158" y="740" on="1"/>
        <pt x="158" y="0" on="1"/>
        <pt x="78" y="0" on="1"/>
      </contour>
      <contour>
        <pt x="-47" y="851" on="1"/>
        <pt x="-25" y="883" on="0"/>
        <pt x="33" y="923" on="0"/>
        <pt x="62" y="923" on="1"/>
        <pt x="83" y="923" on="0"/>
        <pt x="118" y="910" on="0"/>
        <pt x="152" y="894" on="0"/>
        <pt x="186" y="881" on="0"/>
        <pt x="205" y="881" on="1"/>
        <pt x="241" y="881" on="0"/>
        <pt x="273" y="920" on="1"/>
        <pt x="299" y="898" on="1"/>
        <pt x="280" y="863" on="0"/>
        <pt x="220" y="823" on="0"/>
        <pt x="190" y="823" on="1"/>
        <pt x="170" y="823" on="0"/>
        <pt x="135" y="836" on="0"/>
        <pt x="101" y="851" on="0"/>
        <pt x="67" y="864" on="0"/>
        <pt x="49" y="864" on="1"/>
        <pt x="12" y="864" on="0"/>
        <pt x="-24" y="826" on="1"/>
      </contour>
    </TTGlyph>
    <TTGlyph name="Itilde.sc" xMin="-35" yMin="0" xMax="274" yMax="727">
      <contour>
        <pt x="74" y="577" on="1"/>
        <pt x="151" y="577" on="1"/>
        <pt x="151" y="0" on="1"/>
        <pt x="74" y="0" on="1"/>
      </contour>
      <contour>
        <pt x="-35" y="664" on="1"/>
        <pt x="-15" y="693" on="0"/>
        <pt x="37" y="727" on="0"/>
        <pt x="64" y="727" on="1"/>
        <pt x="82" y="727" on="0"/>
        <pt x="113" y="717" on="0"/>
        <pt x="143" y="705" on="0"/>
        <pt x="173" y="695" on="0"/>
        <pt x="190" y="695" on="1"/>
        <pt x="224" y="695" on="0"/>
        <pt x="252" y="726" on="1"/>
        <pt x="274" y="707" on="1"/>
        <pt x="256" y="675" on="0"/>
        <pt x="203" y="641" on="0"/>
        <pt x="176" y="641" on="1"/>
        <pt x="158" y="641" on="0"/>
        <pt x="127" y="651" on="0"/>
        <pt x="96" y="664" on="0"/>
        <pt x="66" y="674" on="0"/>
        <pt x="50" y="674" on="1"/>
        <pt x="16" y="674" on="0"/>
        <pt x="-15" y="643" on="1"/>
      </contour>
    </TTGlyph>
    <TTGlyph name="J" xMin="-1" yMin="-187" xMax="160" yMax="740">
      <contour>
        <pt x="-1" y="-159" on="1"/>
        <pt x="23" y="-107" on="0"/>
        <pt x="54" y="-25" on="0"/>
        <pt x="73" y="53" on="0"/>
        <pt x="80" y="135" on="0"/>
        <pt x="80" y="185" on="1"/>
        <pt x="80" y="740" on="1"/>
        <pt x="160" y="740" on="1"/>
        <pt x="160" y="180" on="1"/>
        <pt x="160" y="132" on="0"/>
        <pt x="148" y="43" on="0"/>
        <pt x="122" y="-45" on="0"/>
        <pt x="81" y="-136" on="0"/>
        <pt x="52" y="-187" on="1"/>
      </contour>
    </TTGlyph>
    <TTGlyph name="J.sc" xMin="7" yMin="-149" xMax="153" yMax="577">
      <contour>
        <pt x="7" y="-124" on="1"/>
        <pt x="28" y="-84" on="0"/>
        <pt x="54" y="-19" on="0"/>
        <pt x="70" y="42" on="0"/>
        <pt x="76" y="107" on="0"/>
        <pt x="76" y="146" on="1"/>
        <pt x="76" y="577" on="1"/>
        <pt x="153" y="577" on="1"/>
        <pt x="153" y="140" on="1"/>
        <pt x="153" y="102" on="0"/>
        <pt x="143" y="33" on="0"/>
        <pt x="120" y="-36" on="0"/>
        <pt x="84" y="-109" on="0"/>
        <pt x="58" y="-149" on="1"/>
      </contour>
    </TTGlyph>
    <TTGlyph name="Jcircumflex" xMin="-25" yMin="-187" xMax="264" yMax="949">
      <contour>
        <pt x="-1" y="-159" on="1"/>
        <pt x="23" y="-107" on="0"/>
        <pt x="54" y="-25" on="0"/>
        <pt x="73" y="53" on="0"/>
        <pt x="80" y="135" on="0"/>
        <pt x="80" y="185" on="1"/>
        <pt x="80" y="740" on="1"/>
        <pt x="160" y="740" on="1"/>
        <pt x="160" y="180" on="1"/>
        <pt x="160" y="132" on="0"/>
        <pt x="148" y="43" on="0"/>
        <pt x="122" y="-45" on="0"/>
        <pt x="81" y="-136" on="0"/>
        <pt x="52" y="-187" on="1"/>
      </contour>
      <contour>
        <pt x="-25" y="876" on="1"/>
        <pt x="119" y="949" on="1"/>
        <pt x="264" y="876" on="1"/>
        <pt x="264" y="811" on="1"/>
        <pt x="119" y="883" on="1"/>
        <pt x="-25" y="811" on="1"/>
      </contour>
    </TTGlyph>
    <TTGlyph name="Jcircumflex.sc" xMin="-15" yMin="-149" xMax="243" yMax="745">
      <contour>
        <pt x="7" y="-124" on="1"/>
        <pt x="27" y="-84" on="0"/>
        <pt x="54" y="-19" on="0"/>
        <pt x="70" y="42" on="0"/>
        <pt x="76" y="107" on="0"/>
        <pt x="76" y="146" on="1"/>
        <pt x="76" y="577" on="1"/>
        <pt x="153" y="577" on="1"/>
        <pt x="153" y="140" on="1"/>
        <pt x="153" y="102" on="0"/>
        <pt x="143" y="33" on="0"/>
        <pt x="120" y="-36" on="0"/>
        <pt x="84" y="-109" on="0"/>
        <pt x="57" y="-149" on="1"/>
      </contour>
      <contour>
        <pt x="-15" y="688" on="1"/>
        <pt x="114" y="745" on="1"/>
        <pt x="243" y="688" on="1"/>
        <pt x="243" y="630" on="1"/>
        <pt x="115" y="687" on="1"/>
        <pt x="-15" y="630" on="1"/>
      </contour>
    </TTGlyph>
    <TTGlyph name="K" xMin="78" yMin="0" xMax="595" yMax="740">
      <contour>
        <pt x="78" y="740" on="1"/>
        <pt x="158" y="740" on="1"/>
        <pt x="158" y="412" on="1"/>
        <pt x="262" y="412" on="1"/>
        <pt x="483" y="740" on="1"/>
        <pt x="576" y="740" on="1"/>
        <pt x="350" y="407" on="1"/>
        <pt x="318" y="381" on="1"/>
        <pt x="318" y="376" on="1"/>
        <pt x="352" y="352" on="1"/>
        <pt x="595" y="0" on="1"/>
        <pt x="503" y="0" on="1"/>
        <pt x="267" y="342" on="1"/>
        <pt x="158" y="342" on="1"/>
        <pt x="158" y="0" on="1"/>
        <pt x="78" y="0" on="1"/>
      </contour>
    </TTGlyph>
    <TTGlyph name="K.sc" xMin="74" yMin="0" xMax="532" yMax="577">
      <contour>
        <pt x="74" y="577" on="1"/>
        <pt x="151" y="577" on="1"/>
        <pt x="151" y="326" on="1"/>
        <pt x="242" y="326" on="1"/>
        <pt x="428" y="577" on="1"/>
        <pt x="516" y="577" on="1"/>
        <pt x="326" y="318" on="1"/>
        <pt x="292" y="298" on="1"/>
        <pt x="292" y="293" on="1"/>
        <pt x="327" y="274" on="1"/>
        <pt x="532" y="0" on="1"/>
        <pt x="445" y="0" on="1"/>
        <pt x="246" y="261" on="1"/>
        <pt x="151" y="261" on="1"/>
        <pt x="151" y="0" on="1"/>
        <pt x="74" y="0" on="1"/>
      </contour>
    </TTGlyph>
    <TTGlyph name="Kcommaaccent" xMin="78" yMin="-220" xMax="595" yMax="740">
      <contour>
        <pt x="270" y="-68" on="1"/>
        <pt x="352" y="-68" on="1"/>
        <pt x="287" y="-220" on="1"/>
        <pt x="222" y="-220" on="1"/>
      </contour>
      <contour>
        <pt x="78" y="740" on="1"/>
        <pt x="158" y="740" on="1"/>
        <pt x="158" y="412" on="1"/>
        <pt x="262" y="412" on="1"/>
        <pt x="483" y="740" on="1"/>
        <pt x="576" y="740" on="1"/>
        <pt x="350" y="407" on="1"/>
        <pt x="318" y="381" on="1"/>
        <pt x="318" y="376" on="1"/>
        <pt x="352" y="352" on="1"/>
        <pt x="595" y="0" on="1"/>
        <pt x="503" y="0" on="1"/>
        <pt x="267" y="342" on="1"/>
        <pt x="158" y="342" on="1"/>
        <pt x="158" y="0" on="1"/>
        <pt x="78" y="0" on="1"/>
      </contour>
    </TTGlyph>
    <TTGlyph name="Kcommaaccent.sc" xMin="74" yMin="-172" xMax="532" yMax="577">
      <contour>
        <pt x="74" y="577" on="1"/>
        <pt x="151" y="577" on="1"/>
        <pt x="151" y="326" on="1"/>
        <pt x="242" y="326" on="1"/>
        <pt x="428" y="577" on="1"/>
        <pt x="516" y="577" on="1"/>
        <pt x="326" y="318" on="1"/>
        <pt x="292" y="298" on="1"/>
        <pt x="292" y="293" on="1"/>
        <pt x="327" y="274" on="1"/>
        <pt x="532" y="0" on="1"/>
        <pt x="445" y="0" on="1"/>
        <pt x="246" y="261" on="1"/>
        <pt x="151" y="261" on="1"/>
        <pt x="151" y="0" on="1"/>
        <pt x="74" y="0" on="1"/>
      </contour>
      <contour>
        <pt x="245" y="-53" on="1"/>
        <pt x="324" y="-53" on="1"/>
        <pt x="266" y="-172" on="1"/>
        <pt x="204" y="-172" on="1"/>
      </contour>
    </TTGlyph>
    <TTGlyph name="L" xMin="78" yMin="0" xMax="437" yMax="740">
      <contour>
        <pt x="78" y="740" on="1"/>
        <pt x="158" y="740" on="1"/>
        <pt x="158" y="69" on="1"/>
        <pt x="437" y="69" on="1"/>
        <pt x="437" y="0" on="1"/>
        <pt x="78" y="0" on="1"/>
      </contour>
    </TTGlyph>
    <TTGlyph name="L.sc" xMin="74" yMin="0" xMax="396" yMax="577">
      <contour>
        <pt x="74" y="577" on="1"/>
        <pt x="151" y="577" on="1"/>
        <pt x="151" y="65" on="1"/>
        <pt x="396" y="65" on="1"/>
        <pt x="396" y="0" on="1"/>
        <pt x="74" y="0" on="1"/>
      </contour>
    </TTGlyph>
    <TTGlyph name="Lacute" xMin="78" yMin="0" xMax="437" yMax="936">
      <contour>
        <pt x="94" y="796" on="1"/>
        <pt x="169" y="936" on="1"/>
        <pt x="252" y="936" on="1"/>
        <pt x="156" y="791" on="1"/>
      </contour>
      <contour>
        <pt x="78" y="740" on="1"/>
        <pt x="158" y="740" on="1"/>
        <pt x="158" y="69" on="1"/>
        <pt x="437" y="69" on="1"/>
        <pt x="437" y="0" on="1"/>
        <pt x="78" y="0" on="1"/>
      </contour>
    </TTGlyph>
    <TTGlyph name="Lacute.sc" xMin="74" yMin="0" xMax="396" yMax="738">
      <contour>
        <pt x="74" y="577" on="1"/>
        <pt x="151" y="577" on="1"/>
        <pt x="151" y="65" on="1"/>
        <pt x="396" y="65" on="1"/>
        <pt x="396" y="0" on="1"/>
        <pt x="74" y="0" on="1"/>
      </contour>
      <contour>
        <pt x="88" y="623" on="1"/>
        <pt x="152" y="738" on="1"/>
        <pt x="231" y="738" on="1"/>
        <pt x="146" y="618" on="1"/>
      </contour>
    </TTGlyph>
    <TTGlyph name="Lcaron" xMin="78" yMin="0" xMax="437" yMax="758">
      <contour>
        <pt x="348" y="758" on="1"/>
        <pt x="415" y="758" on="1"/>
        <pt x="387" y="530" on="1"/>
        <pt x="348" y="530" on="1"/>
      </contour>
      <contour>
        <pt x="78" y="740" on="1"/>
        <pt x="158" y="740" on="1"/>
        <pt x="158" y="69" on="1"/>
        <pt x="437" y="69" on="1"/>
        <pt x="437" y="0" on="1"/>
        <pt x="78" y="0" on="1"/>
      </contour>
    </TTGlyph>
    <TTGlyph name="Lcaron.sc" xMin="75" yMin="0" xMax="396" yMax="597">
      <contour>
        <pt x="75" y="577" on="1"/>
        <pt x="151" y="577" on="1"/>
        <pt x="151" y="65" on="1"/>
        <pt x="396" y="65" on="1"/>
        <pt x="396" y="0" on="1"/>
        <pt x="75" y="0" on="1"/>
      </contour>
      <contour>
        <pt x="315" y="597" on="1"/>
        <pt x="379" y="597" on="1"/>
        <pt x="353" y="420" on="1"/>
        <pt x="315" y="420" on="1"/>
      </contour>
    </TTGlyph>
    <TTGlyph name="Lcommaaccent" xMin="78" yMin="-220" xMax="437" yMax="740">
      <contour>
        <pt x="226" y="-68" on="1"/>
        <pt x="308" y="-68" on="1"/>
        <pt x="243" y="-220" on="1"/>
        <pt x="178" y="-220" on="1"/>
      </contour>
      <contour>
        <pt x="78" y="740" on="1"/>
        <pt x="158" y="740" on="1"/>
        <pt x="158" y="69" on="1"/>
        <pt x="437" y="69" on="1"/>
        <pt x="437" y="0" on="1"/>
        <pt x="78" y="0" on="1"/>
      </contour>
    </TTGlyph>
    <TTGlyph name="Lcommaaccent.sc" xMin="74" yMin="-172" xMax="396" yMax="577">
      <contour>
        <pt x="74" y="577" on="1"/>
        <pt x="151" y="577" on="1"/>
        <pt x="151" y="65" on="1"/>
        <pt x="396" y="65" on="1"/>
        <pt x="396" y="0" on="1"/>
        <pt x="74" y="0" on="1"/>
      </contour>
      <contour>
        <pt x="203" y="-53" on="1"/>
        <pt x="280" y="-53" on="1"/>
        <pt x="223" y="-172" on="1"/>
        <pt x="161" y="-172" on="1"/>
      </contour>
    </TTGlyph>
    <TTGlyph name="Ldot" xMin="78" yMin="0" xMax="437" yMax="740">
      <contour>
        <pt x="78" y="740" on="1"/>
        <pt x="158" y="740" on="1"/>
        <pt x="158" y="69" on="1"/>
        <pt x="437" y="69" on="1"/>
        <pt x="437" y="0" on="1"/>
        <pt x="78" y="0" on="1"/>
      </contour>
      <contour>
        <pt x="353" y="321" on="1"/>
        <pt x="328" y="321" on="0"/>
        <pt x="302" y="345" on="0"/>
        <pt x="302" y="372" on="1"/>
        <pt x="302" y="399" on="0"/>
        <pt x="328" y="423" on="0"/>
        <pt x="353" y="423" on="1"/>
        <pt x="405" y="423" on="0"/>
        <pt x="405" y="372" on="1"/>
        <pt x="405" y="321" on="0"/>
      </contour>
    </TTGlyph>
    <TTGlyph name="Ldot.sc" xMin="74" yMin="0" xMax="396" yMax="577">
      <contour>
        <pt x="74" y="577" on="1"/>
        <pt x="151" y="577" on="1"/>
        <pt x="151" y="65" on="1"/>
        <pt x="396" y="65" on="1"/>
        <pt x="396" y="0" on="1"/>
        <pt x="74" y="0" on="1"/>
      </contour>
      <contour>
        <pt x="324" y="246" on="1"/>
        <pt x="277" y="246" on="0"/>
        <pt x="277" y="292" on="1"/>
        <pt x="277" y="337" on="0"/>
        <pt x="324" y="337" on="1"/>
        <pt x="347" y="337" on="0"/>
        <pt x="373" y="316" on="0"/>
        <pt x="373" y="292" on="1"/>
        <pt x="373" y="246" on="0"/>
      </contour>
    </TTGlyph>
    <TTGlyph name="Lslash" xMin="12" yMin="0" xMax="459" yMax="740">
      <contour>
        <pt x="12" y="294" on="1"/>
        <pt x="100" y="359" on="1"/>
        <pt x="100" y="740" on="1"/>
        <pt x="180" y="740" on="1"/>
        <pt x="180" y="418" on="1"/>
        <pt x="300" y="507" on="1"/>
        <pt x="300" y="435" on="1"/>
        <pt x="180" y="347" on="1"/>
        <pt x="180" y="69" on="1"/>
        <pt x="459" y="69" on="1"/>
        <pt x="459" y="0" on="1"/>
        <pt x="100" y="0" on="1"/>
        <pt x="100" y="288" on="1"/>
        <pt x="12" y="223" on="1"/>
      </contour>
    </TTGlyph>
    <TTGlyph name="Lslash.sc" xMin="19" yMin="0" xMax="415" yMax="577">
      <contour>
        <pt x="19" y="239" on="1"/>
        <pt x="94" y="291" on="1"/>
        <pt x="94" y="577" on="1"/>
        <pt x="171" y="577" on="1"/>
        <pt x="171" y="332" on="1"/>
        <pt x="276" y="401" on="1"/>
        <pt x="276" y="337" on="1"/>
        <pt x="171" y="268" on="1"/>
        <pt x="171" y="65" on="1"/>
        <pt x="415" y="65" on="1"/>
        <pt x="415" y="0" on="1"/>
        <pt x="94" y="0" on="1"/>
        <pt x="94" y="226" on="1"/>
        <pt x="19" y="174" on="1"/>
      </contour>
    </TTGlyph>
    <TTGlyph name="M" xMin="78" yMin="0" xMax="762" yMax="740">
      <contour>
        <pt x="78" y="740" on="1"/>
        <pt x="188" y="740" on="1"/>
        <pt x="376" y="247" on="1"/>
        <pt x="417" y="126" on="1"/>
        <pt x="423" y="126" on="1"/>
        <pt x="464" y="247" on="1"/>
        <pt x="652" y="740" on="1"/>
        <pt x="762" y="740" on="1"/>
        <pt x="762" y="0" on="1"/>
        <pt x="686" y="0" on="1"/>
        <pt x="686" y="620" on="1"/>
        <pt x="680" y="620" on="1"/>
        <pt x="630" y="480" on="1"/>
        <pt x="458" y="32" on="1"/>
        <pt x="381" y="32" on="1"/>
        <pt x="209" y="480" on="1"/>
        <pt x="158" y="620" on="1"/>
        <pt x="153" y="620" on="1"/>
        <pt x="153" y="0" on="1"/>
        <pt x="78" y="0" on="1"/>
      </contour>
    </TTGlyph>
    <TTGlyph name="M.sc" xMin="74" yMin="0" xMax="680" yMax="577">
      <contour>
        <pt x="74" y="577" on="1"/>
        <pt x="178" y="577" on="1"/>
        <pt x="339" y="207" on="1"/>
        <pt x="374" y="116" on="1"/>
        <pt x="380" y="116" on="1"/>
        <pt x="415" y="207" on="1"/>
        <pt x="576" y="577" on="1"/>
        <pt x="680" y="577" on="1"/>
        <pt x="680" y="0" on="1"/>
        <pt x="608" y="0" on="1"/>
        <pt x="608" y="474" on="1"/>
        <pt x="603" y="474" on="1"/>
        <pt x="554" y="355" on="1"/>
        <pt x="413" y="26" on="1"/>
        <pt x="341" y="26" on="1"/>
        <pt x="200" y="355" on="1"/>
        <pt x="151" y="474" on="1"/>
        <pt x="147" y="474" on="1"/>
        <pt x="147" y="0" on="1"/>
        <pt x="74" y="0" on="1"/>
      </contour>
    </TTGlyph>
    <TTGlyph name="N" xMin="78" yMin="0" xMax="617" yMax="740">
      <contour>
        <pt x="78" y="740" on="1"/>
        <pt x="151" y="740" on="1"/>
        <pt x="489" y="219" on="1"/>
        <pt x="537" y="135" on="1"/>
        <pt x="543" y="135" on="1"/>
        <pt x="543" y="740" on="1"/>
        <pt x="617" y="740" on="1"/>
        <pt x="617" y="0" on="1"/>
        <pt x="543" y="0" on="1"/>
        <pt x="207" y="518" on="1"/>
        <pt x="158" y="606" on="1"/>
        <pt x="152" y="605" on="1"/>
        <pt x="152" y="0" on="1"/>
        <pt x="78" y="0" on="1"/>
      </contour>
    </TTGlyph>
    <TTGlyph name="N.sc" xMin="74" yMin="0" xMax="548" yMax="577">
      <contour>
        <pt x="74" y="577" on="1"/>
        <pt x="142" y="577" on="1"/>
        <pt x="428" y="188" on="1"/>
        <pt x="473" y="121" on="1"/>
        <pt x="478" y="122" on="1"/>
        <pt x="478" y="577" on="1"/>
        <pt x="548" y="577" on="1"/>
        <pt x="548" y="0" on="1"/>
        <pt x="481" y="0" on="1"/>
        <pt x="196" y="388" on="1"/>
        <pt x="150" y="455" on="1"/>
        <pt x="145" y="455" on="1"/>
        <pt x="145" y="0" on="1"/>
        <pt x="74" y="0" on="1"/>
      </contour>
    </TTGlyph>
    <TTGlyph name="Nacute" xMin="78" yMin="0" xMax="617" yMax="936">
      <contour>
        <pt x="311" y="796" on="1"/>
        <pt x="386" y="936" on="1"/>
        <pt x="469" y="936" on="1"/>
        <pt x="373" y="791" on="1"/>
      </contour>
      <contour>
        <pt x="78" y="740" on="1"/>
        <pt x="151" y="740" on="1"/>
        <pt x="489" y="219" on="1"/>
        <pt x="537" y="135" on="1"/>
        <pt x="543" y="135" on="1"/>
        <pt x="543" y="740" on="1"/>
        <pt x="617" y="740" on="1"/>
        <pt x="617" y="0" on="1"/>
        <pt x="543" y="0" on="1"/>
        <pt x="207" y="518" on="1"/>
        <pt x="158" y="606" on="1"/>
        <pt x="152" y="605" on="1"/>
        <pt x="152" y="0" on="1"/>
        <pt x="78" y="0" on="1"/>
      </contour>
    </TTGlyph>
    <TTGlyph name="Nacute.sc" xMin="74" yMin="0" xMax="548" yMax="738">
      <contour>
        <pt x="74" y="577" on="1"/>
        <pt x="142" y="577" on="1"/>
        <pt x="428" y="188" on="1"/>
        <pt x="473" y="121" on="1"/>
        <pt x="478" y="122" on="1"/>
        <pt x="478" y="577" on="1"/>
        <pt x="548" y="577" on="1"/>
        <pt x="548" y="0" on="1"/>
        <pt x="481" y="0" on="1"/>
        <pt x="196" y="388" on="1"/>
        <pt x="150" y="455" on="1"/>
        <pt x="145" y="455" on="1"/>
        <pt x="145" y="0" on="1"/>
        <pt x="74" y="0" on="1"/>
      </contour>
      <contour>
        <pt x="276" y="623" on="1"/>
        <pt x="340" y="738" on="1"/>
        <pt x="419" y="738" on="1"/>
        <pt x="334" y="618" on="1"/>
      </contour>
    </TTGlyph>
    <TTGlyph name="Ncaron" xMin="78" yMin="0" xMax="617" yMax="938">
      <contour>
        <pt x="209" y="938" on="1"/>
        <pt x="353" y="865" on="1"/>
        <pt x="497" y="938" on="1"/>
        <pt x="497" y="872" on="1"/>
        <pt x="353" y="800" on="1"/>
        <pt x="209" y="872" on="1"/>
      </contour>
      <contour>
        <pt x="78" y="740" on="1"/>
        <pt x="151" y="740" on="1"/>
        <pt x="489" y="219" on="1"/>
        <pt x="537" y="135" on="1"/>
        <pt x="543" y="135" on="1"/>
        <pt x="543" y="740" on="1"/>
        <pt x="617" y="740" on="1"/>
        <pt x="617" y="0" on="1"/>
        <pt x="543" y="0" on="1"/>
        <pt x="207" y="518" on="1"/>
        <pt x="158" y="606" on="1"/>
        <pt x="152" y="605" on="1"/>
        <pt x="152" y="0" on="1"/>
        <pt x="78" y="0" on="1"/>
      </contour>
    </TTGlyph>
    <TTGlyph name="Ncaron.sc" xMin="74" yMin="0" xMax="548" yMax="739">
      <contour>
        <pt x="74" y="577" on="1"/>
        <pt x="142" y="577" on="1"/>
        <pt x="428" y="188" on="1"/>
        <pt x="473" y="121" on="1"/>
        <pt x="478" y="122" on="1"/>
        <pt x="478" y="577" on="1"/>
        <pt x="548" y="577" on="1"/>
        <pt x="548" y="0" on="1"/>
        <pt x="481" y="0" on="1"/>
        <pt x="196" y="388" on="1"/>
        <pt x="150" y="455" on="1"/>
        <pt x="145" y="455" on="1"/>
        <pt x="145" y="0" on="1"/>
        <pt x="74" y="0" on="1"/>
      </contour>
      <contour>
        <pt x="186" y="680" on="1"/>
        <pt x="186" y="739" on="1"/>
        <pt x="316" y="682" on="1"/>
        <pt x="445" y="739" on="1"/>
        <pt x="445" y="680" on="1"/>
        <pt x="316" y="623" on="1"/>
      </contour>
    </TTGlyph>
    <TTGlyph name="Ncommaaccent" xMin="78" yMin="-220" xMax="617" yMax="740">
      <contour>
        <pt x="331" y="-68" on="1"/>
        <pt x="413" y="-68" on="1"/>
        <pt x="348" y="-220" on="1"/>
        <pt x="283" y="-220" on="1"/>
      </contour>
      <contour>
        <pt x="78" y="740" on="1"/>
        <pt x="151" y="740" on="1"/>
        <pt x="489" y="219" on="1"/>
        <pt x="537" y="135" on="1"/>
        <pt x="543" y="135" on="1"/>
        <pt x="543" y="740" on="1"/>
        <pt x="617" y="740" on="1"/>
        <pt x="617" y="0" on="1"/>
        <pt x="543" y="0" on="1"/>
        <pt x="207" y="518" on="1"/>
        <pt x="158" y="606" on="1"/>
        <pt x="152" y="605" on="1"/>
        <pt x="152" y="0" on="1"/>
        <pt x="78" y="0" on="1"/>
      </contour>
    </TTGlyph>
    <TTGlyph name="Ncommaaccent.sc" xMin="74" yMin="-172" xMax="548" yMax="577">
      <contour>
        <pt x="74" y="577" on="1"/>
        <pt x="142" y="577" on="1"/>
        <pt x="428" y="188" on="1"/>
        <pt x="473" y="121" on="1"/>
        <pt x="478" y="122" on="1"/>
        <pt x="478" y="577" on="1"/>
        <pt x="548" y="577" on="1"/>
        <pt x="548" y="0" on="1"/>
        <pt x="481" y="0" on="1"/>
        <pt x="196" y="388" on="1"/>
        <pt x="150" y="455" on="1"/>
        <pt x="145" y="455" on="1"/>
        <pt x="145" y="0" on="1"/>
        <pt x="74" y="0" on="1"/>
      </contour>
      <contour>
        <pt x="292" y="-53" on="1"/>
        <pt x="370" y="-53" on="1"/>
        <pt x="313" y="-172" on="1"/>
        <pt x="250" y="-172" on="1"/>
      </contour>
    </TTGlyph>
    <TTGlyph name="Ndotaccent" xMin="78" yMin="0" xMax="617" yMax="905">
      <contour>
        <pt x="349" y="804" on="1"/>
        <pt x="298" y="804" on="0"/>
        <pt x="298" y="854" on="1"/>
        <pt x="298" y="905" on="0"/>
        <pt x="349" y="905" on="1"/>
        <pt x="401" y="905" on="0"/>
        <pt x="401" y="854" on="1"/>
        <pt x="401" y="804" on="0"/>
      </contour>
      <contour>
        <pt x="78" y="740" on="1"/>
        <pt x="151" y="740" on="1"/>
        <pt x="489" y="219" on="1"/>
        <pt x="537" y="135" on="1"/>
        <pt x="543" y="135" on="1"/>
        <pt x="543" y="740" on="1"/>
        <pt x="617" y="740" on="1"/>
        <pt x="617" y="0" on="1"/>
        <pt x="543" y="0" on="1"/>
        <pt x="207" y="518" on="1"/>
        <pt x="158" y="606" on="1"/>
        <pt x="152" y="605" on="1"/>
        <pt x="152" y="0" on="1"/>
        <pt x="78" y="0" on="1"/>
      </contour>
    </TTGlyph>
    <TTGlyph name="Ndotaccent.sc" xMin="74" yMin="0" xMax="548" yMax="718">
      <contour>
        <pt x="74" y="577" on="1"/>
        <pt x="142" y="577" on="1"/>
        <pt x="428" y="188" on="1"/>
        <pt x="473" y="121" on="1"/>
        <pt x="478" y="122" on="1"/>
        <pt x="478" y="577" on="1"/>
        <pt x="548" y="577" on="1"/>
        <pt x="548" y="0" on="1"/>
        <pt x="481" y="0" on="1"/>
        <pt x="196" y="388" on="1"/>
        <pt x="150" y="455" on="1"/>
        <pt x="145" y="455" on="1"/>
        <pt x="145" y="0" on="1"/>
        <pt x="74" y="0" on="1"/>
      </contour>
      <contour>
        <pt x="312" y="627" on="1"/>
        <pt x="289" y="627" on="0"/>
        <pt x="264" y="648" on="0"/>
        <pt x="264" y="673" on="1"/>
        <pt x="264" y="697" on="0"/>
        <pt x="289" y="718" on="0"/>
        <pt x="312" y="718" on="1"/>
        <pt x="335" y="718" on="0"/>
        <pt x="360" y="697" on="0"/>
        <pt x="360" y="673" on="1"/>
        <pt x="360" y="627" on="0"/>
      </contour>
    </TTGlyph>
    <TTGlyph name="Ntilde" xMin="78" yMin="0" xMax="617" yMax="923">
      <contour>
        <pt x="181" y="851" on="1"/>
        <pt x="203" y="883" on="0"/>
        <pt x="261" y="923" on="0"/>
        <pt x="290" y="923" on="1"/>
        <pt x="311" y="923" on="0"/>
        <pt x="346" y="910" on="0"/>
        <pt x="380" y="894" on="0"/>
        <pt x="414" y="881" on="0"/>
        <pt x="433" y="881" on="1"/>
        <pt x="469" y="881" on="0"/>
        <pt x="501" y="920" on="1"/>
        <pt x="527" y="898" on="1"/>
        <pt x="508" y="863" on="0"/>
        <pt x="448" y="823" on="0"/>
        <pt x="418" y="823" on="1"/>
        <pt x="398" y="823" on="0"/>
        <pt x="363" y="836" on="0"/>
        <pt x="329" y="851" on="0"/>
        <pt x="295" y="864" on="0"/>
        <pt x="277" y="864" on="1"/>
        <pt x="240" y="864" on="0"/>
        <pt x="204" y="826" on="1"/>
      </contour>
      <contour>
        <pt x="78" y="740" on="1"/>
        <pt x="151" y="740" on="1"/>
        <pt x="489" y="219" on="1"/>
        <pt x="537" y="135" on="1"/>
        <pt x="543" y="135" on="1"/>
        <pt x="543" y="740" on="1"/>
        <pt x="617" y="740" on="1"/>
        <pt x="617" y="0" on="1"/>
        <pt x="543" y="0" on="1"/>
        <pt x="207" y="518" on="1"/>
        <pt x="158" y="606" on="1"/>
        <pt x="152" y="605" on="1"/>
        <pt x="152" y="0" on="1"/>
        <pt x="78" y="0" on="1"/>
      </contour>
    </TTGlyph>
    <TTGlyph name="Ntilde.sc" xMin="74" yMin="0" xMax="548" yMax="727">
      <contour>
        <pt x="163" y="664" on="1"/>
        <pt x="183" y="693" on="0"/>
        <pt x="235" y="727" on="0"/>
        <pt x="262" y="727" on="1"/>
        <pt x="280" y="727" on="0"/>
        <pt x="311" y="717" on="0"/>
        <pt x="341" y="705" on="0"/>
        <pt x="372" y="695" on="0"/>
        <pt x="389" y="695" on="1"/>
        <pt x="422" y="695" on="0"/>
        <pt x="450" y="726" on="1"/>
        <pt x="472" y="707" on="1"/>
        <pt x="454" y="675" on="0"/>
        <pt x="401" y="641" on="0"/>
        <pt x="374" y="641" on="1"/>
        <pt x="356" y="641" on="0"/>
        <pt x="325" y="651" on="0"/>
        <pt x="294" y="664" on="0"/>
        <pt x="264" y="674" on="0"/>
        <pt x="248" y="674" on="1"/>
        <pt x="213" y="674" on="0"/>
        <pt x="183" y="643" on="1"/>
      </contour>
      <contour>
        <pt x="74" y="577" on="1"/>
        <pt x="142" y="577" on="1"/>
        <pt x="428" y="188" on="1"/>
        <pt x="473" y="121" on="1"/>
        <pt x="478" y="122" on="1"/>
        <pt x="478" y="577" on="1"/>
        <pt x="548" y="577" on="1"/>
        <pt x="548" y="0" on="1"/>
        <pt x="481" y="0" on="1"/>
        <pt x="196" y="388" on="1"/>
        <pt x="150" y="455" on="1"/>
        <pt x="145" y="455" on="1"/>
        <pt x="145" y="0" on="1"/>
        <pt x="74" y="0" on="1"/>
      </contour>
    </TTGlyph>
    <TTGlyph name="O" xMin="46" yMin="-10" xMax="612" yMax="750">
      <contour>
        <pt x="328" y="-10" on="1"/>
        <pt x="188" y="-10" on="0"/>
        <pt x="46" y="179" on="0"/>
        <pt x="46" y="369" on="1"/>
        <pt x="46" y="561" on="0"/>
        <pt x="188" y="750" on="0"/>
        <pt x="328" y="750" on="1"/>
        <pt x="469" y="750" on="0"/>
        <pt x="612" y="561" on="0"/>
        <pt x="612" y="369" on="1"/>
        <pt x="612" y="179" on="0"/>
        <pt x="469" y="-10" on="0"/>
      </contour>
      <contour>
        <pt x="328" y="60" on="1"/>
        <pt x="434" y="60" on="0"/>
        <pt x="530" y="208" on="0"/>
        <pt x="530" y="369" on="1"/>
        <pt x="530" y="530" on="0"/>
        <pt x="432" y="681" on="0"/>
        <pt x="328" y="681" on="1"/>
        <pt x="224" y="681" on="0"/>
        <pt x="127" y="531" on="0"/>
        <pt x="127" y="369" on="1"/>
        <pt x="127" y="208" on="0"/>
        <pt x="224" y="60" on="0"/>
      </contour>
    </TTGlyph>
    <TTGlyph name="O.sc" xMin="45" yMin="-8" xMax="547" yMax="585">
      <contour>
        <pt x="296" y="-8" on="1"/>
        <pt x="45" y="-8" on="0"/>
        <pt x="45" y="288" on="1"/>
        <pt x="45" y="585" on="0"/>
        <pt x="296" y="585" on="1"/>
        <pt x="421" y="585" on="0"/>
        <pt x="547" y="437" on="0"/>
        <pt x="547" y="288" on="1"/>
        <pt x="547" y="140" on="0"/>
        <pt x="421" y="-8" on="0"/>
      </contour>
      <contour>
        <pt x="296" y="58" on="1"/>
        <pt x="386" y="58" on="0"/>
        <pt x="469" y="167" on="0"/>
        <pt x="469" y="288" on="1"/>
        <pt x="469" y="409" on="0"/>
        <pt x="385" y="520" on="0"/>
        <pt x="296" y="520" on="1"/>
        <pt x="206" y="520" on="0"/>
        <pt x="123" y="410" on="0"/>
        <pt x="123" y="288" on="1"/>
        <pt x="123" y="167" on="0"/>
        <pt x="205" y="58" on="0"/>
      </contour>
    </TTGlyph>
    <TTGlyph name="OE" xMin="46" yMin="-5" xMax="816" yMax="745">
      <contour>
        <pt x="333" y="-5" on="1"/>
        <pt x="192" y="-5" on="0"/>
        <pt x="46" y="182" on="0"/>
        <pt x="46" y="369" on="1"/>
        <pt x="46" y="558" on="0"/>
        <pt x="193" y="745" on="0"/>
        <pt x="333" y="745" on="1"/>
        <pt x="357" y="745" on="0"/>
        <pt x="407" y="742" on="0"/>
        <pt x="427" y="740" on="1"/>
        <pt x="807" y="740" on="1"/>
        <pt x="807" y="671" on="1"/>
        <pt x="505" y="671" on="1"/>
        <pt x="505" y="410" on="1"/>
        <pt x="781" y="410" on="1"/>
        <pt x="781" y="343" on="1"/>
        <pt x="505" y="343" on="1"/>
        <pt x="505" y="69" on="1"/>
        <pt x="816" y="69" on="1"/>
        <pt x="816" y="0" on="1"/>
        <pt x="427" y="0" on="1"/>
        <pt x="408" y="-3" on="0"/>
        <pt x="356" y="-5" on="0"/>
      </contour>
      <contour>
        <pt x="339" y="64" on="1"/>
        <pt x="359" y="64" on="0"/>
        <pt x="406" y="67" on="0"/>
        <pt x="425" y="70" on="1"/>
        <pt x="425" y="669" on="1"/>
        <pt x="405" y="673" on="0"/>
        <pt x="359" y="676" on="0"/>
        <pt x="338" y="676" on="1"/>
        <pt x="228" y="676" on="0"/>
        <pt x="127" y="528" on="0"/>
        <pt x="127" y="369" on="1"/>
        <pt x="127" y="210" on="0"/>
        <pt x="227" y="64" on="0"/>
      </contour>
    </TTGlyph>
    <TTGlyph name="OE.sc" xMin="45" yMin="-5" xMax="731" yMax="582">
      <contour>
        <pt x="300" y="-5" on="1"/>
        <pt x="175" y="-5" on="0"/>
        <pt x="45" y="142" on="0"/>
        <pt x="45" y="288" on="1"/>
        <pt x="45" y="435" on="0"/>
        <pt x="175" y="582" on="0"/>
        <pt x="300" y="582" on="1"/>
        <pt x="321" y="582" on="0"/>
        <pt x="366" y="579" on="0"/>
        <pt x="383" y="577" on="1"/>
        <pt x="724" y="577" on="1"/>
        <pt x="724" y="514" on="1"/>
        <pt x="459" y="514" on="1"/>
        <pt x="459" y="323" on="1"/>
        <pt x="702" y="323" on="1"/>
        <pt x="702" y="262" on="1"/>
        <pt x="459" y="262" on="1"/>
        <pt x="459" y="64" on="1"/>
        <pt x="731" y="64" on="1"/>
        <pt x="731" y="0" on="1"/>
        <pt x="383" y="0" on="1"/>
        <pt x="366" y="-2" on="0"/>
        <pt x="320" y="-5" on="0"/>
      </contour>
      <contour>
        <pt x="305" y="60" on="1"/>
        <pt x="324" y="60" on="0"/>
        <pt x="365" y="62" on="0"/>
        <pt x="381" y="66" on="1"/>
        <pt x="381" y="511" on="1"/>
        <pt x="364" y="514" on="0"/>
        <pt x="324" y="516" on="0"/>
        <pt x="305" y="516" on="1"/>
        <pt x="208" y="516" on="0"/>
        <pt x="122" y="408" on="0"/>
        <pt x="122" y="288" on="1"/>
        <pt x="122" y="168" on="0"/>
        <pt x="209" y="60" on="0"/>
      </contour>
    </TTGlyph>
</ttFont>
